<svg width="372" height="369" viewBox="0 0 372 369" fill="none" xmlns="http://www.w3.org/2000/svg">
<path d="M0 0H372V369H0V0Z" fill="#F3F0EF"/>
<path d="M36.4677 32.1987L36.5234 32.2552L36.7454 32.4243L36.801 32.4808L37.1871 32.534L37.5726 32.5301L37.5187 32.6449L37.4642 32.7025L37.8526 32.9841L38.078 33.4957L38.5956 35.6604L38.8204 36.1149L39.1543 36.4541L38.992 36.7413L39.0488 36.912L39.4928 37.2501L39.7682 37.2474L39.8789 37.3033L39.9913 37.5306L40.047 37.5872L40.6574 38.0378L40.7687 38.1509L40.8255 38.3216L41.1605 38.775L41.3268 38.8876L41.4393 39.1148L41.7772 39.8537L41.8896 40.081L42.0572 40.3077L42.1696 40.535L42.3463 41.6752L42.4599 42.0167L42.8988 41.841L44.6674 42.4512L44.7219 42.3936L44.8314 42.3354L44.9961 42.2766L45.1613 42.2749L45.2175 42.3886L45.163 42.4462L45.1647 42.6175L45.3305 42.6729L45.5514 42.7278L45.7734 42.8969L45.8858 43.1241L45.7247 43.5255L45.8371 43.7527L46.1698 43.9778L46.3368 44.1474L46.3936 44.3181L46.5089 44.8309L46.6208 45.0011L46.7871 45.1136L47.1743 45.281L47.2311 45.4517L47.1784 45.6806L47.0717 46.0243L47.1291 46.2522L47.3517 46.4783L47.7395 46.7028L48.1267 46.8702L48.3475 46.9251L48.6235 46.9794L48.9562 47.2044L49.0113 47.2039L49.122 47.2599L49.6176 47.2549L50.6112 47.4732L52.0981 47.4582L52.9827 47.7919L53.3699 47.9593L56.9575 48.7225L58.0641 49.2253L59.0583 49.5008L59.2235 49.4991L60.3783 49.3161L60.6519 49.1421L61.5261 48.448L61.8548 48.2734L62.0745 48.2141L62.7353 48.2074L63.1197 48.0893L63.2849 48.0877L63.5057 48.1426L65.2761 48.9241L65.6076 49.035L65.9381 49.0316L66.3218 48.8565L66.5955 48.6824L66.8685 48.4512L67.0859 48.1635L67.3027 47.8187L67.788 46.786L68.0054 46.4983L68.3329 46.2095L69.319 45.6857L69.5915 45.3974L69.8599 44.7095L70.0768 44.3647L70.1858 44.2494L70.4594 44.0753L70.6774 43.8447L71.1099 43.0409L71.3273 42.7532L71.6003 42.5221L71.8745 42.4051L72.1499 42.4023L72.6478 42.6257L72.9237 42.68L73.1434 42.6207L74.1289 42.0398L74.2385 41.9816L74.4014 41.7515L74.5098 41.5791L74.7765 40.7199L75.3719 39.6861L75.4247 39.4571L75.5882 39.2842L76.4091 38.762L78.1093 38.0596L78.3285 37.9432L78.8212 37.6527L79.3662 37.0762L80.1807 35.926L80.7268 35.4637L81.4387 35.0568L82.6462 34.6449L83.0311 34.5839L83.2497 34.4104L84.121 33.4309L84.4497 33.2563L86.4752 32.0367L87.1831 31.2302L87.4555 30.9419L87.7837 30.7102L88.168 30.5921L89.4346 30.5793L89.6543 30.52L89.8178 30.3471L90.0352 30.0594L90.2561 30.1142L90.5888 30.3393L91.6455 31.3564L94.5449 34.8675L95.7129 35.9977L96.2154 36.6778L96.609 37.4733L96.4444 37.532L96.0055 37.7078L95.1307 38.3447L94.0867 38.5836L93.5389 38.8747L93.0484 39.3935L92.7243 40.0249L92.6773 40.8248L92.904 41.4506L93.3509 42.0742L94.3519 43.0348L95.3472 43.4245L95.6255 43.7072L96.1326 44.8441L96.2456 45.1285L96.2491 45.4711L96.1969 45.7571L96.0896 46.0437L95.9267 46.2737L95.2154 46.7377L92.0822 47.3403L92.0288 47.5122L92.0305 47.6835L91.9772 47.8553L91.1018 48.4351L90.9395 48.7223L91.0038 49.6352L91.3405 50.26L92.4512 51.1624L94.7206 52.2815L94.9426 52.4506L94.9994 52.6213L95.0579 52.9633L95.0075 53.4206L95.0666 53.8197L95.8995 54.4965L96.1789 54.8934L96.5122 55.1756L97.0079 55.1706L97.885 54.762L98.2704 54.7581L98.4959 55.2698L98.6118 55.8396L98.835 56.1228L99.1132 56.4055L99.3932 56.8595L99.672 57.1993L99.9514 57.5962L100.621 58.446L101.069 59.2409L101.626 59.8063L101.736 59.8051L102.508 59.8545L102.892 59.7364L103.33 59.5036L103.768 59.2136L104.095 58.8677L104.478 58.6355L105.029 58.6299L106.133 58.8472L106.208 60.8449L106.049 61.5318L106.164 61.9874L106.231 63.1858L106.57 63.9818L106.818 66.7202L107.56 69.3393L107.454 69.7401L107.459 70.254L107.133 70.7141L107.247 71.0555L107.863 72.0771L107.866 72.3055L107.812 72.4774L107.814 72.6487L107.988 73.5034L108.327 74.3565L109.221 75.6608L110.39 76.9052L111.666 77.806L114.435 79.2627L115.706 79.7066L122.269 80.5541L122.983 80.4326L123.587 80.1982L124.136 80.0784L124.746 80.4149L124.58 80.4165L124.415 80.3611L124.304 80.3622L124.196 80.5346L125.634 81.0911L127.842 81.5827L128.616 81.9175L129.172 82.4258L129.125 83.2257L129.293 83.5095L129.521 84.3066L129.69 84.6476L129.914 85.045L130.312 86.2401L130.816 87.0915L131.428 87.6564L132.649 88.6148L133.486 89.6912L133.763 89.8597L134.095 89.9706L135.98 91.2649L136.311 91.3187L136.533 91.4306L137.034 91.9966L137.312 92.2222L140.026 93.7365L142.467 95.5391L143.906 96.2098L148.652 97.1327L151.69 98.0156L154.835 98.5549L157.873 99.4379L161.007 98.9494L163.805 97.8363L166.716 97.0646L169.739 96.4631L172.652 95.8056L175.561 94.8626L178.361 93.9208L183.965 92.5509L184.734 92.4289L191.394 91.962L192.603 91.6643L193.421 90.9138L193.375 91.7707L192.442 92.1228L191.232 92.3063L190.464 92.5424L190.244 92.6588L190.024 92.604L189.581 92.4371L189.307 92.497L188.813 92.6733L188.538 92.7332L187.545 92.629L186.664 92.6379L186.777 92.8651L186.998 92.92L187.548 92.9144L187.219 93.032L187.109 93.0331L187.5 93.6001L188.219 93.9355L190.865 94.1372L191.142 94.3057L191.419 94.4171L193.56 93.7674L193.779 93.5939L193.885 93.2502L193.862 90.9664L193.748 90.5679L193.471 90.3993L193.14 90.2885L193.191 89.9454L193.569 89.1992L193.177 88.5751L192.894 87.7785L192.489 85.8983L191.979 84.4759L191.921 84.1339L191.737 82.2514L196.367 82.6044L196.697 82.6011L197.026 82.4835L197.353 82.1376L197.681 81.9059L198.067 81.902L198.453 81.9552L198.838 81.9513L199.442 81.7169L202.288 79.9751L202.673 79.9141L203.722 80.1319L204.107 80.128L204.161 80.0133L204.597 79.5521L204.926 79.4346L205.144 79.204L205.965 78.6247L206.347 78.2782L206.4 78.1064L206.452 77.7633L206.666 77.1901L206.718 76.847L206.711 76.1618L206.654 75.9911L206.432 75.822L206.376 75.7084L206.371 75.2516L206.64 74.5637L206.69 74.1064L206.797 73.7627L207.014 73.4179L207.504 72.842L210.018 70.9893L210.78 70.068L210.888 69.8386L210.995 69.552L211.214 69.4356L211.434 69.3762L211.599 69.3175L211.707 69.1451L211.868 68.7437L212.032 68.5708L212.361 68.4533L213.351 68.272L213.57 68.2127L213.732 67.8684L214.115 67.6362L214.883 67.3429L215.104 67.3407L215.431 67.0519L215.76 66.8772L217.016 65.8368L217.4 65.6616L218.501 65.5934L221.853 64.8172L222.348 64.8122L223.397 65.0301L224.062 65.4231L224.338 65.5345L225.219 65.5256L225.496 65.637L225.939 65.8609L226.16 65.9158L226.435 65.913L228.853 65.4318L229.515 65.5393L229.571 65.5959L230.124 65.8187L230.4 65.873L231.83 65.6302L232.103 65.399L232.264 65.0548L232.315 64.6546L232.256 64.2555L231.81 63.689L231.917 63.4024L232.953 62.3641L233.5 61.9589L234.103 61.7244L235.645 61.6517L235.921 61.706L236.365 62.0442L236.586 62.1561L236.861 62.0963L238.231 61.4543L239.056 61.2747L239.221 61.3301L239.888 61.8944L240.497 62.2309L240.774 62.3423L243.312 62.8306L243.976 63.1094L244.307 63.1632L244.636 62.9885L244.854 62.7579L245.4 62.3527L245.618 62.1221L245.942 61.4907L246.16 61.2601L246.434 61.0861L246.764 61.0827L247.151 61.193L247.317 61.3056L247.374 61.4763L247.376 61.6476L247.433 61.8183L247.825 62.4996L248.164 63.2956L248.387 63.5788L248.944 64.2013L249.171 64.8842L249.726 65.2783L249.84 65.6769L249.789 66.0771L249.471 67.2794L249.917 67.8459L252.35 68.8492L253.175 68.6696L253.451 68.7239L254.335 69.0005L255.161 68.9922L255.435 68.9323L255.711 68.9295L256.377 69.4367L256.542 69.435L256.817 69.3752L256.983 69.4306L257.094 69.5437L257.263 69.8846L257.374 69.9977L257.65 70.1091L257.926 70.1063L258.201 70.0464L258.476 70.0436L259.083 70.2088L261.74 71.4953L262.844 71.7697L263.396 71.8212L263.672 71.8755L263.949 72.044L264.06 72.2142L264.062 72.3855L264.009 72.5574L264.011 72.7286L264.291 73.2397L264.348 73.4104L264.407 73.8096L264.41 74.095L264.467 74.3229L264.745 74.5485L265.021 74.6599L266.345 74.8749L266.567 74.9869L267.011 75.325L267.232 75.3799L268.772 75.193L269.046 75.019L269.262 74.6742L269.424 74.2729L269.641 73.9851L269.915 73.8111L270.245 73.8078L270.522 73.9763L271.356 74.7673L272.075 75.0455L272.461 75.0987L272.846 75.0377L273.01 74.9219L273.228 74.6913L273.448 74.689L273.834 74.7423L274 74.7406L274.164 74.6818L274.382 74.3941L274.433 74.051L274.542 73.8786L275.539 74.4396L276.864 74.7688L277.528 75.1047L277.75 75.2738L277.971 75.3286L278.467 75.3807L278.634 75.4932L279.19 76.0586L281.465 77.7487L281.851 77.8019L282.783 77.3357L283.17 77.446L283.503 77.7853L283.839 78.2387L283.896 78.5236L283.847 79.038L283.959 79.2653L284.016 79.436L283.962 79.6079L283.855 79.8373L283.802 80.0663L283.862 80.5225L284.208 82.0607L284.431 82.344L285.486 83.2469L285.82 83.5862L285.932 83.7564L285.933 83.8705L285.879 83.9282L285.881 84.1566L285.828 84.3284L285.884 84.4992L286.16 84.5535L286.383 84.7796L286.549 84.8351L286.714 84.8334L287.262 84.5994L287.538 84.6538L287.817 84.9936L287.931 85.335L287.99 85.7341L288.103 86.0756L288.325 86.2447L288.49 86.1859L288.599 86.0706L288.816 85.7258L288.98 85.6099L289.145 85.6083L291.576 86.3832L292.687 87.3427L293.297 87.7362L294.677 88.0078L295.341 88.2866L295.843 88.9668L296.518 90.3875L297.302 91.6358L299.142 93.9013L299.534 94.5254L300.044 95.8907L300.38 96.5154L300.935 96.8524L303.633 96.7681L306 96.6871L309.634 96.5933L311.671 96.5157L313.433 96.4408L314.261 96.6038L314.978 96.7107L315.15 97.4513L315.319 97.7922L315.376 98.02L315.434 98.305L315.437 98.5904L315.384 98.8194L315.277 99.0489L315.168 99.2213L315.115 99.4502L315.173 99.7351L315.287 100.077L314.919 101.85L314.82 102.936L315.047 103.562L314.993 103.677L314.993 103.734L314.94 103.906L315.106 103.961L315.328 104.187L315.385 104.301L315.499 104.757L315.505 105.271L315.562 105.498L315.786 105.896L316.076 107.263L316.137 107.948L316.194 108.062L316.14 108.176L315.977 108.406L315.868 108.579L315.815 108.751L315.762 108.98L315.764 109.151L315.711 109.38L315.547 109.496L315.383 109.554L315.274 109.67L315.221 109.956L315.281 110.412L315.283 110.64L315.065 110.871L314.738 111.16L314.52 111.447L314.742 111.559L315.183 111.612L315.515 111.78L315.793 112.063L316.072 112.402L316.24 112.686L316.409 113.027L316.523 113.426L316.586 114.225L316.645 114.567L316.648 114.909L316.543 115.424L316.655 115.594L316.658 115.823L316.553 116.338L316.558 116.851L316.504 117.023L316.286 117.254L316.233 117.369L316.293 117.939L316.519 118.451L316.911 119.132L317.024 119.359L317.198 120.271L317.258 120.727L317.152 121.185L316.936 121.587L316.556 122.105L316.395 122.506L316.236 123.193L316.128 123.422L315.803 123.94L315.695 124.169L315.645 124.626L315.711 125.711L315.605 126.111L315.276 126.286L314.891 126.347L314.506 126.351L314.288 126.582L314.182 127.039L314.189 127.725L314.3 127.838L314.358 128.065L314.36 128.294L314.196 128.41L314.087 128.525L314.199 128.752L314.814 129.603L314.87 129.716L314.817 129.945L314.764 130.117L314.766 130.288L314.933 130.458L314.553 131.09L314.446 131.376L314.345 132.291L314.133 133.093L314.082 133.493L314.029 133.722L313.813 134.124L313.761 134.41L313.763 134.638L313.822 135.037L313.824 135.208L313.776 135.951L313.673 136.638L313.179 136.814L313.073 137.157L312.748 137.789L312.202 138.251L311.876 138.654L311.881 139.168L311.942 139.738L311.892 140.253L311.729 140.483L311.509 140.542L311.289 140.544L311.069 140.604L310.85 140.72L310.741 140.835L310.633 141.008L309.871 141.929L309.543 142.161L309.104 142.28L308.169 142.403L307.73 142.636L307.46 143.096L307.625 143.094L307.791 143.149L307.902 143.319L308.073 143.832L308.24 144.001L308.682 144.168L308.904 144.337L309.072 144.564L309.353 145.132L310.637 146.832L310.861 147.23L309.595 147.299L307.889 147.431L306.678 147.5L306.793 147.956L306.52 148.244L305.699 148.709L305.099 149.343L304.556 150.091L304.071 151.124L303.97 152.096L304.028 152.38L304.212 154.206L304.741 157.455L304.634 157.799L304.096 159.061L303.993 159.747L304.449 161.284L305.506 162.358L306.889 162.915L308.211 163.016L309.477 162.946L310.139 162.997L310.691 163.162L310.968 163.331L311.247 163.614L311.415 163.897L311.415 163.955L311.307 164.184L311.033 164.301L310.208 164.366L309.935 164.598L309.883 164.884L310 165.568L309.893 165.968L309.73 166.199L309.183 166.547L308.692 167.008L307.226 169.079L306.303 170.401L305.489 171.552L305.381 171.838L305.398 173.494L305.632 174.862L306.145 176.57L306.717 178.62L307.344 180.726L307.972 182.947L308.712 185.338L309.512 188.242L310.085 190.463L310.048 192.176L309.953 193.719L309.846 194.063L309.412 194.638L309.305 194.982L309.361 195.095L309.528 195.208L309.639 195.321L309.478 195.779L309.536 196.007L309.648 196.234L309.705 196.462L309.765 196.919L309.668 198.176L309.733 199.203L309.973 201.142L309.768 202.686L309.828 203.142L310.113 204.11L310.353 206.049L310.906 206.272L312.616 206.54L318.353 207.396L321.662 207.876L323.647 208.142L324.585 208.246L325.027 208.413L325.36 208.695L325.974 209.488L326.088 209.887L325.987 210.745L325.991 211.144L326.16 211.542L326.609 212.337L326.779 212.792L326.84 213.42L326.897 213.648L327.179 214.273L327.406 214.956L327.465 215.355L327.469 215.755L327.364 216.212L327.04 216.901L327.098 217.129L327.167 218.556L327.058 218.614L327.004 218.786L327.008 219.128L327.064 219.242L326.792 219.587L325.433 221.371L323.312 224.076L321.41 226.551L320.05 228.277L318.256 230.58L317.332 231.788L315.972 233.515L313.362 236.796L312.111 238.35L311.132 239.559L312.526 241.258L313.418 242.334L314.533 243.693L315.816 245.279L317.154 246.922L318.548 248.62L318.881 248.903L319.214 249.071L319.491 249.296L319.662 249.808L319.611 250.209L319.397 250.896L319.401 251.296L319.571 251.694L320.128 252.316L320.351 252.656L320.409 252.884L320.469 253.398L320.581 253.625L320.749 253.852L320.915 253.907L321.08 253.905L321.246 254.018L321.414 254.302L321.528 254.643L321.641 254.928L321.917 255.039L322.084 255.151L322.141 255.322L322.087 255.494L321.815 255.782L321.761 255.897L321.817 256.011L321.928 256.124L322.15 256.236L322.317 256.405L322.484 256.632L323.218 258.338L323.332 258.736L323.39 259.078L323.503 259.363L324.005 259.929L324.511 261.008L325.013 261.631L326.792 263.269L327.518 264.233L328.63 265.249L329.187 265.872L329.519 266.04L330.513 266.315L331.344 266.821L331.842 266.987L332.944 267.09L333.496 267.199L334.935 267.87L337.197 268.303L337.695 268.527L337.918 268.753L338.086 269.037L338.253 269.264L338.53 269.432L338.807 269.543L338.973 269.656L339.086 269.883L339.199 270.225L339.424 270.679L340.483 271.868L340.815 272.093L343.563 271.494L343.951 271.719L344.013 272.403L343.758 274.461L343.506 276.748L343.85 278.115L344.31 280.052L344.433 281.25L344.614 282.847L344.734 283.816L344.918 285.641L345.038 286.668L344.936 287.468L344.076 289.59L344.411 289.986L344.523 290.213L344.472 290.557L344.419 290.843L344.311 291.072L344.147 291.188L343.872 291.191L344.595 291.869L344.872 292.037L344.982 292.036L345.201 291.92L345.311 291.919L345.422 291.975L345.81 292.199L346.362 292.308L346.802 292.303L347.791 292.065L348.231 292.003L349.11 291.709L349.55 291.704L349.826 291.759L350.046 291.757L350.98 291.462L351.145 291.46L351.366 291.515L351.81 291.91L352.032 292.022L352.474 292.189L352.64 292.301L352.808 292.528L353.032 292.926L353.596 294.233L353.32 294.122L352.934 294.126L352.605 294.3L352.276 294.361L352.222 294.533L352.06 294.82L352.007 294.992L352.009 295.22L352.142 297.446L352.31 297.786L352.534 298.127L352.703 298.468L352.651 298.811L352.378 299.042L351.663 299.163L351.39 299.337L351.282 299.624L351.201 302.48L351.044 303.281L350.662 303.684L350.497 303.686L350.386 303.63L350.275 303.517L350.109 303.462L349.944 303.463L349.45 303.583L348.789 303.589L348.127 303.482L346.584 303.44L345.262 303.396L344.105 303.351L343.94 303.41L343.832 303.582L343.67 303.926L343.561 304.042L343.452 304.1L343.287 304.159L342.737 304.278L342.572 304.28L342.406 304.167L342.24 304.112L342.076 304.228L341.968 304.4L341.803 304.516L341.474 304.634L338.613 304.948L338.449 305.007L338.34 305.122L338.177 305.352L338.068 305.467L337.903 305.526L337.353 305.532L337.188 305.591L336.969 305.764L336.475 305.94L336.311 306.056L336.203 306.229L336.15 306.4L336.262 306.628L336.263 306.742L336.102 307.086L335.557 307.663L335.449 307.892L335.563 308.348L335.732 308.689L335.735 308.974L335.352 309.206L334.69 309.099L333.916 308.821L333.254 308.714L332.983 309.173L332.933 309.631L332.77 309.861L332.055 309.982L331.726 310.1L331.397 310.274L330.795 310.68L328.764 311.329L328.382 311.675L328.167 312.191L328.008 312.821L327.855 314.021L327.755 315.05L327.602 316.251L327.399 317.909L327.247 319.281L327.14 319.625L326.869 319.97L326.594 320.03L326.263 320.033L325.879 320.151L325.499 320.669L325.616 321.41L325.79 322.208L325.741 322.893L325.633 323.066L325.361 323.354L325.252 323.526L325.2 323.813L325.156 324.955L325.063 326.612L324.972 328.554L324.879 330.211L324.344 331.815L324.231 331.531L324.173 331.189L323.895 330.963L323.839 330.85L323.783 330.793L323.619 330.909L323.565 331.024L323.568 331.309L323.514 331.424L323.626 331.537L323.793 331.764L323.904 331.877L323.518 331.824L323.242 331.712L322.966 331.715L322.584 332.004L322.97 332.115L323.137 332.227L323.304 332.397L323.195 332.569L322.924 332.915L322.871 333.144L322.872 333.315L322.763 333.43L322.544 333.546L321.611 333.841L321.833 334.01L321.453 334.585L318.579 333.586L317.586 333.368L317.582 333.026L317.302 332.572L314.926 331.739L312.112 331.311L309.739 330.764L308.139 330.551L307.862 330.383L308.135 330.152L307.743 329.527L307.685 329.243L307.674 328.158L307.618 327.987L307.006 327.365L306.729 327.197L306.453 327.142L306.123 327.203L304.97 327.614L304.697 327.788L304.534 328.075L304.262 328.421L304.155 328.65L304.156 328.764L304.212 328.878L304.271 329.277L304.382 329.333L304.492 329.332L304.658 329.444L304.824 329.443L304.879 329.499L304.935 329.613L305.102 329.783L304.937 329.784L304.938 329.841L305.436 330.122L305.383 330.351L305.163 330.296L304.61 330.073L303.891 329.795L303.558 329.57L302.842 329.577L302.342 329.182L302.505 328.895L302.559 328.837L302.338 328.725L302.007 328.672L301.402 328.735L300.907 328.854L300.798 328.912L300.634 329.085L300.635 329.199L300.691 329.313L301.024 329.538L300.918 329.882L300.477 329.886L300.144 329.661L299.978 329.606L299.372 329.498L299.26 329.385L299.093 329.158L298.816 328.989L298.21 329.053L297.33 329.176L296.395 329.242L295.794 329.762L295.075 329.484L294.353 328.806L293.579 328.585L291.598 328.72L290.827 328.727L289.557 328.455L288.723 327.607L288.114 327.27L287.179 327.451L285.2 327.814L284.705 327.876L283.77 328.056L282.784 328.523L282.399 328.584L282.233 328.529L282.122 328.416L282.011 328.36L281.517 328.536L281.132 328.54L280.801 328.486L280.524 328.375L280.302 328.206L279.518 326.9L279.072 326.391L278.408 326.055L277.802 326.061L277.636 326.005L277.524 325.835L277.468 325.665L277.356 325.494L277.135 325.439L275.703 325.454L272.613 324.914L271.569 325.096L270.632 325.048L270.3 324.88L270.407 324.594L269.912 324.656L269.362 324.776L269.143 324.892L268.761 325.238L268.487 325.298L268.376 325.242L268.32 325.186L268.21 325.187L267.991 325.36L267.883 325.476L267.718 325.535L267.553 325.536L267.496 325.423L267.387 325.481L266.786 325.944L266.181 326.064L265.629 325.955L265.077 325.79L264.525 325.681L264.082 325.457L263.691 324.947L263.184 323.81L262.627 323.131L261.964 322.966L261.25 323.144L260.592 323.494L259.992 324.014L259.609 324.246L259.333 324.249L259.38 323.392L259.432 323.163L259.486 323.048L259.484 322.82L259.314 322.365L259.037 322.139L258.705 322.028L258.264 322.033L257.88 322.094L256.946 322.331L256.725 322.276L256.393 322.109L256.172 322.054L255.952 322.056L255.622 322.173L255.457 322.175L255.016 322.122L253.855 321.734L253.964 321.619L251.705 321.471L251.428 321.359L251.315 321.075L251.195 320.105L250.8 319.139L250.572 318.341L250.402 317.943L250.18 317.717L249.79 317.264L249.735 317.265L249.515 317.324L249.46 317.325L249.404 317.268L249.347 317.041L249.12 316.358L249.061 316.016L248.892 315.618L248.835 315.39L248.941 314.989L249.485 314.355L249.646 313.954L249.42 313.328L248.305 312.026L248.41 311.511L248.299 311.398L248.179 310.486L248.064 310.03L247.896 309.689L247.562 309.35L247.448 309.008L247.389 308.552L247.387 308.381L247.637 305.923L247.573 305.01L246.426 300.454L246.202 300.113L245.646 299.605L245.423 299.322L245.419 298.979L244.92 298.642L244.917 298.299L245.137 298.297L245.302 298.238L245.466 298.122L245.685 298.006L245.519 297.893L245.517 297.722L245.57 297.55L245.679 297.378L245.185 297.611L245.021 297.67L244.855 297.614L244.744 297.501L244.687 297.388L244.466 297.276L244.355 297.163L244.244 297.107L243.915 297.281L243.805 297.225L243.748 297.055L243.745 296.826L243.526 296.885L243.414 296.772L243.413 296.601L243.577 296.542L243.687 296.484L243.959 296.139L244.123 296.023L244.121 295.852L243.625 295.8L243.237 295.518L242.957 295.121L242.842 294.665L242.624 294.896L242.405 294.955L241.964 294.96L241.688 294.848L241.521 294.679L241.409 294.509L241.243 294.453L239.481 294.471L239.094 294.361L238.986 294.533L238.598 294.309L238.101 294.199L237.054 294.153L236.557 294.044L235.673 293.71L235.122 293.658L234.076 293.726L233.527 293.903L233.144 294.192L232.761 294.367L231.66 294.436L231.22 294.554L231.056 294.67L230.784 294.958L230.73 295.073L230.677 295.302L230.458 295.419L230.294 295.534L230.021 295.823L228.872 296.577L228.49 296.923L228.491 296.98L228.381 297.038L228.054 297.327L227.889 297.386L227.119 297.508L226.405 297.686L225.689 297.694L225.525 297.752L225.251 297.926L225.086 297.985L224.426 297.992L223.874 297.883L223.708 297.885L223.38 298.059L222.835 298.636L222.616 298.752L222.452 298.925L221.527 300.02L221.747 299.96L221.856 299.902L221.965 299.787L222.025 300.243L221.921 300.815L221.706 301.388L221.49 301.79L220.944 302.31L220.287 302.659L219.573 302.837L218.801 302.788L217.419 302.288L216.647 302.182L215.99 302.531L215.773 302.933L215.667 303.276L215.504 303.564L215.12 303.682L214.79 303.742L214.021 303.978L213.747 304.095L212.656 305.134L212.492 305.25L210.854 306.637L209.048 307.797L208.721 308.143L208.556 308.202L208.336 308.147L208.059 307.978L207.838 307.923L206.407 308.052L205.635 307.946L205.355 307.492L205.129 306.923L204.628 306.414L203.855 306.251L202.314 306.323L201.705 306.044L201.37 305.533L201.088 304.908L200.751 304.283L200.252 303.889L199.865 303.836L199.536 303.896L199.206 304.013L197.941 304.14L197.61 304.087L196.45 303.756L196.174 303.701L196.008 303.646L195.675 303.364L195.509 303.308L195.344 303.31L195.014 303.371L193.918 303.953L193.149 304.075L192.435 304.31L192.049 304.314L191.276 304.094L190.835 304.041L190.452 304.273L190.231 304.218L189.342 303.428L188.067 302.641L186.402 301.345L186.179 301.061L186.064 300.663L186 299.75L185.886 299.351L185.607 299.012L185.053 298.675L179.25 296.677L178.864 296.624L178.477 296.514L178.254 296.231L178.085 295.89L177.862 295.607L176.868 295.331L176.701 295.161L176.531 294.706L176.198 294.481L175.425 294.261L174.036 293.019L173.426 292.625L172.541 292.234L171.213 291.619L170.878 291.223L170.819 290.824L170.982 290.594L171.256 290.477L171.586 290.417L171.917 290.413L172.301 290.352L172.52 290.179L172.35 289.724L172.073 289.498L171.354 289.22L171.076 288.994L170.964 288.767L170.682 288.142L170.57 287.914L169.289 286.557L168.734 286.106L168.125 285.826L165.089 285.172L164.425 284.836L162.423 282.915L161.813 282.464L161.094 282.186L160.267 282.08L159.112 282.263L158.835 282.151L158.503 281.926L157.897 281.99L157.238 282.168L156.194 282.406L155.532 282.299L154.042 281.971L153.821 281.917L153.71 281.803L153.708 281.632L153.651 281.461L153.54 281.348L152.989 281.297L152.27 281.076L151.881 280.68L151.488 279.999L151.1 279.717L150.996 280.289L150.666 280.349L150.323 279.154L149.988 278.643L149.705 277.904L149.033 276.826L148.755 276.543L148.42 276.147L148.306 275.748L148.681 274.659L148.676 274.146L148.339 273.578L147.728 273.013L147.505 272.73L146.889 271.765L146.332 271.143L146.22 270.916L145.146 268.243L144.975 267.616L144.949 265.047L144.72 264.193L144.327 263.454L143.881 262.945L143.327 262.608L142.609 262.444L141.948 262.394L141.616 262.283L141.449 262.056L141.335 261.657L140.498 260.638L140.329 260.24L140.213 259.67L140.263 259.156L140.591 258.924L140.923 259.035L141.256 259.317L141.535 259.657L141.703 259.998L141.867 259.825L141.865 259.654L141.808 259.483L141.806 259.254L141.914 259.082L142.241 258.736L142.349 258.507L142.4 258.049L142.34 257.593L142.172 257.309L141.842 257.37L141.671 256.8L141.559 256.573L141.337 256.404L141.227 256.405L140.897 256.523L140.841 256.409L140.838 256.067L140.781 255.896L140.725 255.782L140.338 255.729L139.017 255.799L138.688 255.86L138.25 256.15L137.754 256.098L137.365 255.759L137.194 255.19L137.133 254.676L137.186 254.447L137.349 254.217L137.456 253.931L137.563 253.587L137.727 253.414L138.005 253.697L138.052 252.897L138.106 252.782L137.94 252.727L137.829 252.614L137.604 252.216L137.709 251.701L137.701 250.902L137.583 250.104L137.467 249.534L137.243 249.136L136.908 248.683L136.631 248.572L136.638 249.2L136.525 248.972L136.022 248.235L135.133 247.502L134.965 247.218L134.852 246.877L134.572 246.48L134.016 245.914L133.021 245.525L132.853 245.298L132.739 244.899L132.515 244.502L132.069 243.992L131.621 243.312L130.835 241.835L130.444 241.211L130.11 240.929L129.39 240.479L128.722 239.801L128.666 239.687L128.608 239.459L128.604 239.06L128.547 238.832L128.822 238.772L128.876 238.657L128.764 238.487L128.542 238.375L128.701 237.688L128.304 236.55L128.409 236.035L128.187 235.866L127.908 235.526L127.683 235.129L127.57 234.788L127.457 234.56L127.235 234.391L127.07 234.336L126.627 234.169L126.021 234.118L125.416 234.238L124.813 234.473L119.507 238.067L118.904 238.358L118.352 238.249L117.849 237.512L117.79 237.17L117.781 236.257L117.668 235.915L117.556 235.745L117.443 235.518L117.277 235.405L116.945 235.294L116.395 235.3L116.01 235.418L115.79 235.42L115.624 235.365L115.402 235.196L115.236 235.14L114.907 235.201L114.249 235.493L113.919 235.553L113.478 235.501L113.311 235.331L113.302 234.475L113.246 234.418L113.024 234.249L112.968 234.135L112.962 233.564L113.016 233.45L113.015 233.336L112.794 233.224L112.687 233.567L112.525 233.911L112.307 234.142L112.032 234.202L111.7 234.034L111.532 233.75L111.365 233.523L111.089 233.526L110.702 233.359L109.594 232.685L109.371 232.459L109.254 231.775L108.975 231.378L108.532 231.154L107.979 230.988L108.141 230.644L108.416 230.584L109.133 230.691L109.519 230.687L110.068 230.51L110.397 230.45L110.729 230.561L111.449 230.953L111.67 231.065L112.056 231.118L112.333 231.23L112.556 231.456L112.779 231.796L112.887 231.51L113.211 230.935L113.7 230.245L113.808 230.016L113.804 229.673L113.474 229.734L113.197 229.565L113.029 229.224L112.911 228.483L112.692 228.599L112.419 228.888L112.146 229.119L112.143 228.776L112.197 228.662L112.029 228.435L111.865 228.494L111.701 228.609L111.481 228.669L111.37 228.613L111.202 228.329L111.091 228.273L110.981 228.274L110.817 228.39L110.707 228.391L110.376 228.337L110.045 228.226L109.769 228.229L109.496 228.403L108.889 228.295L108.396 228.643L108.729 228.868L109.172 229.092L109.724 229.2L110.167 229.481L110.281 229.823L109.954 230.169L109.679 230.172L108.741 230.067L108.522 230.126L107.595 231.049L107.541 231.164L107.378 231.394L107.27 231.623L107.492 231.792L107.439 231.964L107.33 232.137L107.276 232.251L107.391 232.707L107.669 232.99L108.003 233.272L108.281 233.612L108.45 233.953L108.565 234.408L108.684 235.321L108.631 235.55L108.47 235.951L108.417 236.18L108.42 236.408L108.534 236.807L108.536 237.035L108.43 237.436L108.213 237.781L107.886 238.07L107.556 238.187L106.399 238.085L106.125 238.202L105.792 238.034L104.581 238.046L103.861 237.653L103.585 237.599L103.533 237.942L103.646 238.169L103.87 238.567L103.928 238.852L103.875 239.081L103.767 239.253L103.603 239.426L103.439 239.542L103.055 239.66L101.787 239.559L101.786 239.444L101.677 239.56L101.678 239.617L101.567 239.561L101.015 239.395L100.737 239.227L100.515 239.058L100.404 238.944L100.348 238.831L100.179 238.433L100.121 238.148L99.78 237.124L99.7243 237.067L99.6119 236.84L99.2774 236.443L98.9963 235.875L99.0491 235.646L99.1575 235.474L99.321 235.301L99.4294 235.129L99.4822 234.9L99.4248 234.672L99.3123 234.445L99.2005 234.274L98.5333 233.653L97.9762 233.03L97.6401 232.463L97.4737 232.35L97.2528 232.295L97.0325 232.298L96.4279 232.418L96.2076 232.42L95.9868 232.365L95.8204 232.253L95.7085 232.083L95.6517 231.912L95.4773 231L95.3075 230.545L95.0832 230.147L94.8044 229.808L94.638 229.695L94.4722 229.64L92.652 229.373L92.6457 228.745L92.6011 218.867L92.5432 218.582L92.3768 218.469L86.8147 218.525L86.8196 213.557L86.839 210.017L89.3535 202.683L89.4591 202.225L89.3994 201.769L89.1757 201.428L88.5096 200.921L88.2308 200.581L88.0604 200.069L87.9486 199.899L87.8373 199.786L87.5045 199.561L87.3927 199.391L86.7754 198.255L86.7168 197.913L86.5482 197.572L85.9395 197.292L85.6613 197.01L85.2666 196.1L84.9872 195.703L84.9315 195.647L84.6 195.536L84.324 195.482L84.1571 195.312L84.0447 195.085L83.8226 194.916L83.5467 194.861L83.4354 194.748L83.4337 194.577L83.4859 194.291L83.5387 194.062L83.6471 193.89L83.7549 193.66L83.752 193.375L83.639 193.09L83.3057 192.808L83.1927 192.524L83.0269 192.468L82.9156 192.355L82.6356 191.901L82.5232 191.674L82.0224 191.165L81.9661 191.051L81.8531 190.767L81.852 190.653L81.9065 190.595L82.0676 190.194L82.1766 190.079L82.2306 189.964L82.2282 189.735L82.1164 189.565L81.6724 189.227L81.393 188.83L81.2243 188.489L81.0011 188.206L80.6139 188.039L79.6743 187.706L79.454 187.708L78.6876 188.172L78.4134 188.289L77.8082 188.353L77.2563 188.244L76.7578 187.963L76.2031 187.569L71.0349 182.996L70.3103 182.147L69.202 181.473L68.4247 180.853L68.369 180.796L66.7622 179.842L66.2614 179.333L64.5455 178.494L62.7225 177.941L60.7422 178.189L59.7498 178.085L59.3557 177.233L59.5736 177.002L59.8467 176.771L60.1192 176.483L60.2258 176.139L60.1128 175.855L59.8902 175.628L59.5587 175.518L58.7865 175.411L58.5639 175.185L58.5616 174.957L58.8903 174.782L59.2752 174.721L59.5506 174.718L59.8254 174.658L60.1529 174.37L60.5889 173.908L60.8063 173.621L60.9135 173.334L60.9118 173.163L60.6904 173.051L60.6336 172.88L60.6318 172.709L60.738 172.308L60.7357 172.08L60.567 171.739L60.3444 171.513L59.7891 171.061L59.1184 170.097L58.562 169.532L58.449 169.248L58.4455 168.905L58.3858 168.449L58.2717 168.05L58.0479 167.71L57.4897 166.973L57.3228 166.804L57.1025 166.806L56.9929 166.864L56.8857 167.151L56.3906 167.213L55.8938 167.104L55.6156 166.821L55.8875 166.476L56.7084 165.953L56.9252 165.609L56.8104 165.153L56.4221 164.871L56.1433 164.532L56.192 163.903L55.8076 164.021L54.9816 164.029L54.6523 164.147L54.1619 164.666L53.8882 164.84L53.6135 164.9L53.5016 164.73L53.4941 163.987L53.3805 163.646L52.5487 163.083L52.2705 162.801L52.0467 162.46L51.8781 162.119L51.7639 161.721L51.7042 161.265L51.5906 160.923L51.368 160.697L51.0904 160.471L50.8672 160.188L49.3515 157.348L49.2958 157.292L49.1857 157.293L48.6906 157.355L48.2495 157.302L47.8617 157.078L47.5261 156.567L47.9099 156.392L48.0739 156.276L48.2374 156.103L48.507 155.53L48.667 155.014L48.8276 154.556L49.2642 154.152L49.5366 153.863L50.1917 153.286L50.3546 153.056L50.3523 152.827L50.1286 152.487L50.0712 152.259L50.1246 152.087L50.3408 151.685L50.4492 151.513L50.6591 150.483L50.709 149.969L50.5943 149.513L50.3149 149.116L49.9822 148.891L49.5967 148.895L49.2691 149.184L48.9364 148.959L48.7115 148.504L48.1429 146.74L48.3053 146.453L49.1841 146.215L49.4021 145.985L49.5105 145.812L49.5638 145.64L49.5575 145.012L49.3836 144.158L49.4329 143.586L50.0961 143.808L50.7053 144.144L51.2572 144.253L52.4148 144.355L52.8015 144.466L52.9116 144.465L52.9655 144.35L53.0183 144.121L53.016 143.893L52.9598 143.779L52.7917 143.495L52.7331 143.153L52.7291 142.753L52.67 142.354L52.6132 142.184L52.3906 141.957L52.3332 141.73L52.2764 141.559L52.1646 141.389L51.9982 141.276L51.8324 141.221L51.5542 140.938L51.6609 140.594L52.1508 140.018L52.2035 139.79L52.1438 139.333L52.196 139.047L52.3589 138.817L52.5781 138.701L53.0731 138.639L53.5653 138.291L53.6703 137.776L53.6094 137.206L53.7155 136.805L54.101 136.801L54.6546 137.081L55.0969 137.248L55.3688 136.903L55.4738 136.388L55.6349 135.986L55.686 135.586L55.515 135.017L55.4571 134.732L55.4542 134.446L55.5069 134.217L55.6704 134.044L55.78 133.986L56.0003 133.984L56.1098 133.926L56.1638 133.811L56.1058 133.526L56.1047 133.412L56.3209 133.01L56.4305 132.952L56.707 133.063L57.0948 133.288L57.2606 133.343L57.4808 133.341L57.9788 133.564L58.2536 133.504L58.5266 133.273L58.9643 132.983L59.1295 132.982L59.4605 133.035L59.8993 132.86L60.119 132.8L60.2831 132.685L60.3904 132.398L60.0559 132.002L60.2699 131.371L60.649 130.739L60.6983 130.168L60.4207 129.942L59.7598 129.949L59.5378 129.78L59.4793 129.438L59.6416 129.151L59.859 128.863L60.0208 128.519L59.9043 127.892L59.5136 127.382L58.5688 126.535L57.4489 124.719L57.2223 124.093L57.22 123.865L57.2733 123.693L57.4913 123.462L57.5452 123.348L57.5429 123.119L57.4867 123.006L57.3175 122.608L57.1477 122.153L57.2578 122.151L57.7552 122.318L57.8073 122.032L57.6335 121.177L57.63 120.834L57.6811 120.434L57.7878 120.09L58.0057 119.86L58.335 119.742L59.5471 119.787L59.877 119.727L60.6984 119.262L61.3599 119.312L61.6897 119.252L61.9622 118.963L62.179 118.619L62.6712 118.271L62.9442 118.04L63.1611 117.695L63.2127 117.352L63.0996 117.068L62.822 116.842L62.4359 116.789L62.1072 116.963L61.8342 117.195L61.5049 117.312L60.7907 117.491L60.4052 117.494L60.0731 117.327L59.9067 117.214L59.7954 117.101L59.7386 116.93L59.6239 116.475L59.5682 116.418L59.4581 116.419L58.9601 116.196L58.6848 116.199L58.4106 116.315L58.0819 116.49L57.7526 116.608L56.6506 116.562L56.1017 116.738L55.9364 116.74L55.7707 116.685L55.6054 116.686L55.2234 117.033L54.8947 117.207L54.5643 117.211L54.2872 117.042L54.1214 116.987L53.4629 117.222L53.1313 117.111L52.9081 116.828L52.4561 115.69L51.6735 114.556L51.1733 114.104L50.7316 113.995L50.5096 113.826L49.8975 113.204L49.2343 112.982L48.8471 112.815L48.4065 112.819L47.8587 113.11L47.5845 113.227L47.2564 113.459L46.872 113.577L46.486 113.524L46.2072 113.184L45.875 113.016L45.9805 112.558L46.1962 112.099L46.413 111.754L46.4635 111.297L46.2386 110.842L45.681 110.163L45.5662 109.707L45.611 108.679L45.5518 108.28L45.3293 108.054L44.996 107.771L44.8829 107.487L45.2656 107.198L44.9311 106.801L44.8169 106.403L44.7526 105.49L44.6924 104.977L44.5214 104.407L44.242 104.01L43.8009 103.958L42.8687 104.367L42.3737 104.429L41.9308 104.205L41.7082 103.979L41.6514 103.808L41.594 103.58L41.5361 103.295L41.4236 103.068L41.2567 102.899L41.1448 102.728L41.1419 102.443L40.9194 102.217L40.6417 101.991L40.5861 101.935L40.3623 101.594L40.4139 101.251L40.4684 101.193L40.6876 101.077L40.7421 101.019L40.7374 100.563L40.8952 99.8187L41.2175 99.016L41.2135 98.6164L41.0437 98.1613L40.6501 97.3658L40.3713 97.026L40.0942 96.8575L39.8739 96.8597L39.6531 96.8049L39.4867 96.6924L39.3198 96.5227L39.0978 96.3537L38.8769 96.2988L38.3268 96.3615L37.8851 96.2517L37.5523 96.0267L37.4382 95.6281L37.5976 95.0555L38.1959 94.3071L38.4122 93.9052L38.5171 93.3903L38.4569 92.877L38.2882 92.5361L38.174 92.1375L38.2784 91.5655L38.4413 91.3354L38.4941 91.1065L38.3822 90.9363L37.9944 90.7118L37.7718 90.4856L37.6611 90.4297L37.4959 90.4313L37.1666 90.5489L37.0008 90.4934L36.9446 90.3798L36.7742 89.8676L36.6629 89.7545L36.4415 89.6426L36.3296 89.4724L36.2154 89.0738L36.2131 88.8454L36.4271 88.2152L36.5332 87.8144L36.419 87.4158L36.2498 87.0178L36.1901 86.5616L36.2423 86.2756L36.4608 86.1021L36.68 85.9857L36.8974 85.698L36.9449 84.9552L36.5548 84.5023L35.5572 83.8843L35.3891 83.6005L35.2761 83.3161L35.1086 83.0894L34.504 83.2097L34.337 83.0401L34.1104 82.4142L33.8328 82.1886L33.2264 82.1377L33.005 82.0257L32.8902 81.57L33.1036 80.8827L33.0445 80.4836L32.9298 80.0279L32.9791 79.4564L33.0834 78.8843L33.244 78.4259L33.1849 78.0268L32.7966 77.7452L32.4621 77.3489L32.5103 76.6632L32.6738 76.4902L33.2743 75.9703L33.4367 75.6831L33.3793 75.4553L32.7655 74.6621L31.7696 74.2153L31.3296 74.2769L31.1105 74.3933L30.8363 74.5102L30.616 74.5125L30.5035 74.2852L30.5024 74.171L30.554 73.8279L30.5528 73.7137L30.4416 73.6006L30.3314 73.6017L30.2218 73.6599L30.0555 73.5474L29.888 73.3207L29.7749 73.0363L29.717 72.7514L29.6046 72.5241L29.4382 72.4116L28.8295 72.1322L28.6087 72.0774L27.5084 72.2027L26.9015 72.0946L26.621 71.5835L26.6743 71.4117L26.6737 71.3546L26.9995 70.8945L26.9967 70.609L26.8831 70.2675L26.9352 69.9815L27.0425 69.6949L27.2048 69.4078L27.3666 69.0635L27.7481 68.66L27.9098 68.3158L28.0704 67.8573L28.2327 67.5702L28.4513 67.3967L28.78 67.2221L28.889 67.1068L28.7197 66.7087L28.718 66.5375L28.8821 66.4216L29.1563 66.3046L29.2647 66.1322L29.3714 65.7886L29.4207 65.2171L29.4711 64.7597L29.4057 63.7326L29.8956 63.1566L30.4962 62.6367L30.8759 62.0618L30.8724 61.7192L30.7588 61.3778L30.5357 61.0945L30.3131 60.8684L30.0366 60.757L29.8169 60.8163L29.2696 61.1644L28.4418 61.0015L28.1653 60.89L27.999 60.7775L27.9422 60.6068L27.9938 60.2637L27.9915 60.0353L27.9307 59.4649L27.9278 59.1794L28.1388 58.2637L28.1348 57.864L27.9581 56.7238L28.0039 55.8097L27.9993 55.3529L27.8852 54.9544L27.7733 54.7842L27.6631 54.7853L27.3316 54.6744L27.1101 54.5625L27.2185 54.3901L27.382 54.2171L27.4354 54.0453L27.3212 53.6467L27.2082 53.3624L27.1502 53.0774L27.2563 52.6767L27.6802 51.0165L27.6188 50.389L26.733 49.9411L26.4548 49.6584L26.2311 49.3181L26.0607 48.8059L25.9488 48.6357L25.892 48.465L25.888 48.0653L25.7767 47.9522L25.6103 47.8397L25.4985 47.6695L25.4399 47.3275L25.3831 47.1568L25.2713 46.9866L25.4875 46.5847L25.7606 46.3535L25.9229 46.0664L25.7485 45.1545L25.8551 44.8109L26.1787 44.1224L26.0077 43.5531L25.3422 43.103L24.5672 42.7111L24.1232 42.373L24.1215 42.2017L24.2276 41.8009L24.2253 41.5726L24.0004 41.118L23.9436 40.9473L23.9413 40.7189L23.9946 40.5471L23.9929 40.3758L23.768 39.9212L23.6532 39.4656L23.6509 39.2372L23.2046 38.6707L23.0916 38.3863L23.2539 38.0992L23.6371 37.8669L23.9113 37.75L24.1867 37.7472L24.5727 37.8004L24.9577 37.7394L25.8365 37.5021L26.2225 37.5553L27.3854 38.1717L27.8265 38.2244L28.2108 38.1063L29.0879 37.6977L29.4161 37.466L29.6868 37.0065L29.6828 36.6068L29.6225 36.0935L29.7275 35.5785L29.8898 35.2914L29.8869 35.0059L29.829 34.721L29.7704 34.379L29.8215 33.9788L29.8737 33.6927L30.4123 32.4882L30.5195 32.2016L30.5184 32.0874L30.5706 31.8014L30.453 31.0602L30.5051 30.7742L32.3631 29.3279L32.7475 29.2098L33.0246 29.3784L33.4726 30.1161L33.6958 30.3994L34.6922 30.9033L35.0255 31.1854L36.4677 32.1987ZM204.348 311.385L204.569 311.497L204.682 311.724L204.359 312.47L204.249 312.471L204.028 312.416L203.806 312.304L203.695 312.191L203.692 311.905L203.635 311.735L203.634 311.563L203.686 311.334L203.795 311.162L203.959 311.103L204.125 311.159L204.348 311.385ZM195.997 307.986L194.73 307.941L194.62 307.943L194.066 307.663L193.73 307.095L193.892 306.808L194.166 306.634L194.495 306.516L194.825 306.513L195.102 306.624L195.708 306.675L195.93 306.787L195.986 306.901L195.989 307.244L196.1 307.3L196.211 307.413L196.214 307.641L196.106 307.871L195.997 307.986ZM183.709 301.943L183.38 302.118L183.05 302.121L182.057 301.96L181.78 301.848L181.725 301.849L181.503 301.68L180.948 301.228L180.781 301.059L180.836 301.001L181.055 300.885L181.22 300.883L182.656 301.325L183.924 301.427L184.311 301.594L184.534 301.82L184.7 301.933L184.481 301.992L183.819 301.942L183.709 301.943ZM234.697 300.743L234.747 300.229L234.964 299.884L235.402 299.651L236.063 299.587L236.179 300.214L235.688 300.676L235.03 300.911L234.697 300.743ZM232.847 297.45L233.178 297.504L233.62 297.671L233.898 297.896L234.008 297.952L234.122 298.294L233.575 298.642L232.531 298.938L232.149 299.284L231.772 300.145L231.556 300.489L230.847 301.239L230.74 301.525L230.576 301.698L229.919 302.048L229.755 302.221L229.591 302.336L228.774 303.201L228.281 303.492L227.894 303.324L227.505 302.929L227.06 302.59L225.91 303.23L225.583 303.519L225.254 303.694L224.869 303.697L224.096 303.591L223.767 303.651L223.383 303.827L222.454 304.521L221.521 304.93L220.975 305.393L220.702 305.567L219.657 305.691L218.888 305.928L218.56 306.159L218.395 306.218L218.23 306.22L218.064 306.164L217.899 306.166L217.846 306.338L217.792 306.453L217.628 306.568L217.408 306.628L217.243 306.629L217.131 306.516L217.019 306.289L216.959 305.776L217.065 305.432L217.118 305.203L217.007 305.09L216.835 304.464L216.998 304.234L217.827 304.511L217.991 304.395L218.102 304.451L218.157 304.45L219.033 303.928L221.283 303.163L221.613 303.102L221.832 302.986L221.887 302.985L222.653 302.464L222.981 302.175L224.077 301.707L224.243 301.705L224.574 301.759L224.739 301.757L224.848 301.699L225.012 301.526L225.177 301.467L225.064 301.24L225.337 300.952L225.388 300.609L225.324 299.753L225.211 299.411L224.933 299.129L224.655 298.903L224.543 298.733L224.981 298.443L227.358 299.333L228.017 299.155L229.822 297.937L232.075 297.401L232.847 297.45ZM237.232 295.35L237.398 295.463L237.619 295.518L237.785 295.63L237.786 295.687L237.843 295.915L237.79 296.144L237.627 296.317L237.408 296.433L237.133 296.493L236.58 296.27L236.63 295.756L236.956 295.296L237.232 295.35ZM132.106 253.185L132.439 253.353L132.605 253.466L132.553 253.809L132.612 254.151L132.505 254.438L132.339 254.439L132.118 254.327L131.948 253.872L131.834 253.474L131.722 253.246L131.941 253.13L132.106 253.185ZM204.754 318.918L204.866 319.088L204.925 319.43L204.761 319.546L204.54 319.491L204.263 319.38L204.206 319.152L204.425 319.035L204.754 318.918ZM227.514 303.899L227.627 304.126L227.686 304.583L227.47 304.985L227.142 305.216L226.865 305.048L226.915 304.59L227.131 304.131L227.404 303.9L227.514 303.899ZM189.184 304.115L189.405 304.227L189.518 304.511L189.3 304.742L189.024 304.687L188.747 304.519L188.579 304.292L188.687 304.062L189.018 304.059L189.184 304.115ZM213.298 319.631L213.3 319.802L213.357 320.03L213.248 320.146L213.083 320.147L212.974 320.205L212.807 320.036L212.752 320.093L212.751 319.979L212.695 319.866L212.638 319.695L212.857 319.579L213.132 319.519L213.298 319.631Z" fill="white"/>
<path d="M162.203 117.56H163.237L160.278 109.97H159.156L156.186 117.56H157.198L157.924 115.635H161.477L162.203 117.56ZM158.265 114.733L159.706 110.905L161.147 114.733H158.265Z" fill="black"/>
<path d="M170.212 111.928C169.453 111.928 168.804 112.247 168.408 112.863C168.089 112.269 167.495 111.928 166.725 111.928C165.999 111.928 165.394 112.258 165.053 112.764V112.06H164.118V117.56H165.086V114.337C165.086 113.435 165.691 112.808 166.538 112.808C167.319 112.808 167.671 113.369 167.671 114.172V117.56H168.65V114.238C168.672 113.435 169.222 112.808 170.003 112.808C170.828 112.808 171.191 113.369 171.191 114.172V117.56H172.17V113.974C172.17 112.698 171.422 111.928 170.212 111.928Z" fill="black"/>
<path d="M175.978 117.681C177.573 117.681 178.673 116.504 178.673 114.799C178.673 113.094 177.573 111.928 175.978 111.928C174.383 111.928 173.272 113.094 173.272 114.799C173.272 116.504 174.383 117.681 175.978 117.681ZM174.218 114.799C174.218 113.567 174.922 112.753 175.978 112.753C177.034 112.753 177.727 113.567 177.727 114.799C177.727 116.042 177.034 116.856 175.978 116.856C174.922 116.856 174.218 116.042 174.218 114.799Z" fill="black"/>
<path d="M179.823 109.97V117.56H180.791V109.97H179.823Z" fill="black"/>
<path d="M113.178 162.271H114.212L111.253 154.681H110.131L107.161 162.271H108.173L108.899 160.346H112.452L113.178 162.271ZM109.24 159.444L110.681 155.616L112.122 159.444H109.24Z" fill="black"/>
<path d="M117.622 156.694C116.874 156.694 116.324 157.002 116.027 157.53V156.771H115.092V162.271H116.06V159.026C116.06 158.168 116.61 157.629 117.611 157.629H117.853V156.694H117.622Z" fill="black"/>
<path d="M120.331 161.589C119.693 161.589 119.297 161.248 119.297 160.709C119.297 160.071 119.814 159.73 120.782 159.73H122.08V159.972C121.981 160.962 121.288 161.589 120.331 161.589ZM118.34 160.731C118.34 161.776 119.044 162.381 120.254 162.381C121.046 162.381 121.728 162.029 122.113 161.424V162.271H123.037V158.74C123.037 157.343 122.3 156.617 120.859 156.617C119.55 156.617 118.67 157.255 118.56 158.3H119.517C119.616 157.739 120.1 157.42 120.859 157.42C121.695 157.42 122.08 157.838 122.08 158.729V158.982H120.87C119.231 158.982 118.34 159.598 118.34 160.731Z" fill="black"/>
<path d="M128.22 162.271H129.342L127.054 158.993L129.221 156.771H128.088L125.47 159.455V154.681H124.502V162.271H125.47V160.621L126.416 159.653L128.22 162.271Z" fill="black"/>
<path d="M121.404 265.048C122.108 264.762 122.416 264.113 122.416 263.497C122.416 262.364 121.525 261.528 120.117 261.528H117.125V269.118H120.194C121.767 269.118 122.812 268.26 122.812 266.896C122.812 266.082 122.339 265.301 121.404 265.048ZM118.137 268.205V265.62H120.172C121.217 265.62 121.756 266.038 121.756 266.896C121.756 267.743 121.173 268.227 120.095 268.216L118.137 268.205ZM118.137 264.74V262.441L120.018 262.43C120.942 262.43 121.393 262.848 121.393 263.552C121.393 264.245 120.986 264.74 120.029 264.74H118.137Z" fill="black"/>
<path d="M127.609 263.618V266.808C127.609 267.765 127.026 268.392 126.157 268.392C125.31 268.392 124.826 267.886 124.826 266.995V263.618H123.858V267.149C123.858 268.425 124.683 269.25 125.926 269.25C126.718 269.25 127.312 268.92 127.642 268.392V269.118H128.577V263.618H127.609Z" fill="black"/>
<path d="M133.214 267.644C133.214 268.172 132.796 268.469 132.026 268.469C131.19 268.469 130.739 268.172 130.618 267.523H129.65C129.793 268.678 130.618 269.272 131.993 269.272C133.368 269.272 134.149 268.634 134.149 267.578C134.149 266.731 133.665 266.225 132.565 266.016L131.817 265.873C131.179 265.752 130.772 265.576 130.772 265.059C130.772 264.553 131.223 264.267 131.938 264.267C132.653 264.267 133.049 264.553 133.137 265.147H134.094C133.995 263.948 133.071 263.464 131.938 263.464C130.673 263.464 129.837 264.08 129.837 265.092C129.837 265.928 130.343 266.456 131.476 266.676L132.323 266.841C133.016 266.973 133.214 267.226 133.214 267.644Z" fill="black"/>
<path d="M135.288 261.528V269.118H136.256V265.906C136.256 264.982 136.872 264.366 137.774 264.366C138.61 264.366 139.028 264.949 139.028 265.741V269.118H139.996V265.532C139.996 264.256 139.16 263.486 137.961 263.486C137.191 263.486 136.597 263.794 136.256 264.278V261.528H135.288Z" fill="black"/>
<path d="M142.048 266.621H146.272V266.236C146.272 264.575 145.282 263.486 143.764 263.486C142.191 263.486 141.091 264.663 141.091 266.357C141.091 268.095 142.158 269.239 143.764 269.239C144.985 269.239 145.854 268.645 146.162 267.589H145.216C144.952 268.15 144.468 268.425 143.764 268.425C142.785 268.425 142.136 267.754 142.048 266.621ZM142.07 265.851C142.235 264.883 142.884 264.289 143.764 264.289C144.666 264.289 145.227 264.85 145.304 265.851H142.07Z" fill="black"/>
<path d="M147.448 261.528V269.118H148.416V265.906C148.416 264.982 149.032 264.366 149.934 264.366C150.77 264.366 151.188 264.949 151.188 265.741V269.118H152.156V265.532C152.156 264.256 151.32 263.486 150.121 263.486C149.351 263.486 148.757 263.794 148.416 264.278V261.528H147.448Z" fill="black"/>
<path d="M156.144 263.541C155.396 263.541 154.846 263.849 154.549 264.377V263.618H153.614V269.118H154.582V265.873C154.582 265.015 155.132 264.476 156.133 264.476H156.375V263.541H156.144Z" fill="black"/>
<path d="M144.022 176.708V184.298H145.023V176.708H144.022Z" fill="black"/>
<path d="M149.797 182.824C149.797 183.352 149.379 183.649 148.609 183.649C147.773 183.649 147.322 183.352 147.201 182.703H146.233C146.376 183.858 147.201 184.452 148.576 184.452C149.951 184.452 150.732 183.814 150.732 182.758C150.732 181.911 150.248 181.405 149.148 181.196L148.4 181.053C147.762 180.932 147.355 180.756 147.355 180.239C147.355 179.733 147.806 179.447 148.521 179.447C149.236 179.447 149.632 179.733 149.72 180.327H150.677C150.578 179.128 149.654 178.644 148.521 178.644C147.256 178.644 146.42 179.26 146.42 180.272C146.42 181.108 146.926 181.636 148.059 181.856L148.906 182.021C149.599 182.153 149.797 182.406 149.797 182.824Z" fill="black"/>
<path d="M154.459 178.798H153.183V178.347C153.183 177.665 153.425 177.489 154.129 177.489H154.459V176.653C154.294 176.631 154.129 176.62 153.964 176.62C152.886 176.62 152.215 177.093 152.215 178.226V178.798H151.302V179.645H152.215V184.298H153.183V179.645H154.459V178.798Z" fill="black"/>
<path d="M156.981 183.616C156.343 183.616 155.947 183.275 155.947 182.736C155.947 182.098 156.464 181.757 157.432 181.757H158.73V181.999C158.631 182.989 157.938 183.616 156.981 183.616ZM154.99 182.758C154.99 183.803 155.694 184.408 156.904 184.408C157.696 184.408 158.378 184.056 158.763 183.451V184.298H159.687V180.767C159.687 179.37 158.95 178.644 157.509 178.644C156.2 178.644 155.32 179.282 155.21 180.327H156.167C156.266 179.766 156.75 179.447 157.509 179.447C158.345 179.447 158.73 179.865 158.73 180.756V181.009H157.52C155.881 181.009 154.99 181.625 154.99 182.758Z" fill="black"/>
<path d="M161.153 176.708V184.298H162.121V181.086C162.121 180.162 162.737 179.546 163.639 179.546C164.475 179.546 164.893 180.129 164.893 180.921V184.298H165.861V180.712C165.861 179.436 165.025 178.666 163.826 178.666C163.056 178.666 162.462 178.974 162.121 179.458V176.708H161.153Z" fill="black"/>
<path d="M169.002 183.616C168.364 183.616 167.968 183.275 167.968 182.736C167.968 182.098 168.485 181.757 169.453 181.757H170.751V181.999C170.652 182.989 169.959 183.616 169.002 183.616ZM167.011 182.758C167.011 183.803 167.715 184.408 168.925 184.408C169.717 184.408 170.399 184.056 170.784 183.451V184.298H171.708V180.767C171.708 179.37 170.971 178.644 169.53 178.644C168.221 178.644 167.341 179.282 167.231 180.327H168.188C168.287 179.766 168.771 179.447 169.53 179.447C170.366 179.447 170.751 179.865 170.751 180.756V181.009H169.541C167.902 181.009 167.011 181.625 167.011 182.758Z" fill="black"/>
<path d="M175.846 178.666C175.054 178.666 174.449 178.996 174.108 179.502V178.798H173.173V184.298H174.141V181.086C174.141 180.162 174.757 179.546 175.659 179.546C176.495 179.546 176.913 180.129 176.913 180.921V184.298H177.881V180.712C177.881 179.436 177.045 178.666 175.846 178.666Z" fill="black"/>
<path d="M118.527 204.324V211.914H119.528V204.324H118.527Z" fill="black"/>
<path d="M121.838 211.067L124.94 207.239V206.414H120.771V207.261H123.862L120.738 211.089V211.914H124.962V211.067H121.838Z" fill="black"/>
<path d="M126.53 209.417H130.754V209.032C130.754 207.371 129.764 206.282 128.246 206.282C126.673 206.282 125.573 207.459 125.573 209.153C125.573 210.891 126.64 212.035 128.246 212.035C129.467 212.035 130.336 211.441 130.644 210.385H129.698C129.434 210.946 128.95 211.221 128.246 211.221C127.267 211.221 126.618 210.55 126.53 209.417ZM126.552 208.647C126.717 207.679 127.366 207.085 128.246 207.085C129.148 207.085 129.709 207.646 129.786 208.647H126.552Z" fill="black"/>
<path d="M131.93 204.324V211.914H132.898V208.702C132.898 207.778 133.514 207.162 134.416 207.162C135.252 207.162 135.67 207.745 135.67 208.537V211.914H136.638V208.328C136.638 207.052 135.802 206.282 134.603 206.282C133.833 206.282 133.239 206.59 132.898 207.074V204.324H131.93Z" fill="black"/>
<path d="M53.4252 140.244H54.6242L51.7532 135.712L54.4262 132.654H53.2272L49.6962 136.746V132.654H48.6952V140.244H49.6962V138.088L51.1042 136.46L53.4252 140.244Z" fill="black"/>
<path d="M57.1762 139.562C56.5382 139.562 56.1422 139.221 56.1422 138.682C56.1422 138.044 56.6592 137.703 57.6272 137.703H58.9252V137.945C58.8262 138.935 58.1332 139.562 57.1762 139.562ZM55.1852 138.704C55.1852 139.749 55.8892 140.354 57.0992 140.354C57.8912 140.354 58.5732 140.002 58.9582 139.397V140.244H59.8822V136.713C59.8822 135.316 59.1452 134.59 57.7042 134.59C56.3952 134.59 55.5152 135.228 55.4052 136.273H56.3622C56.4612 135.712 56.9452 135.393 57.7042 135.393C58.5402 135.393 58.9252 135.811 58.9252 136.702V136.955H57.7152C56.0762 136.955 55.1852 137.571 55.1852 138.704Z" fill="black"/>
<path d="M67.4417 134.612C66.6827 134.612 66.0337 134.931 65.6377 135.547C65.3187 134.953 64.7247 134.612 63.9547 134.612C63.2287 134.612 62.6237 134.942 62.2827 135.448V134.744H61.3477V140.244H62.3157V137.021C62.3157 136.119 62.9207 135.492 63.7677 135.492C64.5487 135.492 64.9007 136.053 64.9007 136.856V140.244H65.8797V136.922C65.9017 136.119 66.4517 135.492 67.2327 135.492C68.0577 135.492 68.4207 136.053 68.4207 136.856V140.244H69.3997V136.658C69.3997 135.382 68.6517 134.612 67.4417 134.612Z" fill="black"/>
<path d="M74.4145 134.744L72.7315 139.034L71.0265 134.744H69.9265L72.2805 140.2L72.1155 140.618C71.8625 141.267 71.5655 141.52 70.9275 141.52H70.6305V142.367H70.8725C72.0605 142.367 72.5005 142.026 72.9735 140.86L75.4595 134.744H74.4145Z" fill="black"/>
<path d="M77.6616 139.562C77.0236 139.562 76.6276 139.221 76.6276 138.682C76.6276 138.044 77.1446 137.703 78.1126 137.703H79.4106V137.945C79.3116 138.935 78.6186 139.562 77.6616 139.562ZM75.6706 138.704C75.6706 139.749 76.3746 140.354 77.5846 140.354C78.3766 140.354 79.0586 140.002 79.4436 139.397V140.244H80.3676V136.713C80.3676 135.316 79.6306 134.59 78.1896 134.59C76.8806 134.59 76.0006 135.228 75.8906 136.273H76.8476C76.9466 135.712 77.4306 135.393 78.1896 135.393C79.0256 135.393 79.4106 135.811 79.4106 136.702V136.955H78.2006C76.5616 136.955 75.6706 137.571 75.6706 138.704Z" fill="black"/>
<path d="M84.3631 134.667C83.6151 134.667 83.0651 134.975 82.7681 135.503V134.744H81.8331V140.244H82.8011V136.999C82.8011 136.141 83.3511 135.602 84.3521 135.602H84.5941V134.667H84.3631Z" fill="black"/>
<path d="M87.0717 139.562C86.4337 139.562 86.0377 139.221 86.0377 138.682C86.0377 138.044 86.5547 137.703 87.5227 137.703H88.8207V137.945C88.7217 138.935 88.0287 139.562 87.0717 139.562ZM85.0807 138.704C85.0807 139.749 85.7847 140.354 86.9947 140.354C87.7867 140.354 88.4687 140.002 88.8537 139.397V140.244H89.7777V136.713C89.7777 135.316 89.0407 134.59 87.5997 134.59C86.2907 134.59 85.4107 135.228 85.3007 136.273H86.2577C86.3567 135.712 86.8407 135.393 87.5997 135.393C88.4357 135.393 88.8207 135.811 88.8207 136.702V136.955H87.6107C85.9717 136.955 85.0807 137.571 85.0807 138.704Z" fill="black"/>
<path d="M93.9162 134.612C93.1242 134.612 92.5192 134.942 92.1782 135.448V134.744H91.2432V140.244H92.2112V137.032C92.2112 136.108 92.8272 135.492 93.7292 135.492C94.5652 135.492 94.9832 136.075 94.9832 136.867V140.244H95.9512V136.658C95.9512 135.382 95.1152 134.612 93.9162 134.612Z" fill="black"/>
<path d="M233.282 241.502H234.481L231.61 236.97L234.283 233.912H233.084L229.553 238.004V233.912H228.552V241.502H229.553V239.346L230.961 237.718L233.282 241.502Z" fill="black"/>
<path d="M235.847 239.005H240.071V238.62C240.071 236.959 239.081 235.87 237.563 235.87C235.99 235.87 234.89 237.047 234.89 238.741C234.89 240.479 235.957 241.623 237.563 241.623C238.784 241.623 239.653 241.029 239.961 239.973H239.015C238.751 240.534 238.267 240.809 237.563 240.809C236.584 240.809 235.935 240.138 235.847 239.005ZM235.869 238.235C236.034 237.267 236.683 236.673 237.563 236.673C238.465 236.673 239.026 237.234 239.103 238.235H235.869Z" fill="black"/>
<path d="M243.777 235.925C243.029 235.925 242.479 236.233 242.182 236.761V236.002H241.247V241.502H242.215V238.257C242.215 237.399 242.765 236.86 243.766 236.86H244.008V235.925H243.777Z" fill="black"/>
<path d="M251.252 235.87C250.493 235.87 249.844 236.189 249.448 236.805C249.129 236.211 248.535 235.87 247.765 235.87C247.039 235.87 246.434 236.2 246.093 236.706V236.002H245.158V241.502H246.126V238.279C246.126 237.377 246.731 236.75 247.578 236.75C248.359 236.75 248.711 237.311 248.711 238.114V241.502H249.69V238.18C249.712 237.377 250.262 236.75 251.043 236.75C251.868 236.75 252.231 237.311 252.231 238.114V241.502H253.21V237.916C253.21 236.64 252.462 235.87 251.252 235.87Z" fill="black"/>
<path d="M256.358 240.82C255.72 240.82 255.324 240.479 255.324 239.94C255.324 239.302 255.841 238.961 256.809 238.961H258.107V239.203C258.008 240.193 257.315 240.82 256.358 240.82ZM254.367 239.962C254.367 241.007 255.071 241.612 256.281 241.612C257.073 241.612 257.755 241.26 258.14 240.655V241.502H259.064V237.971C259.064 236.574 258.327 235.848 256.886 235.848C255.577 235.848 254.697 236.486 254.587 237.531H255.544C255.643 236.97 256.127 236.651 256.886 236.651C257.722 236.651 258.107 237.069 258.107 237.96V238.213H256.897C255.258 238.213 254.367 238.829 254.367 239.962Z" fill="black"/>
<path d="M263.203 235.87C262.411 235.87 261.806 236.2 261.465 236.706V236.002H260.53V241.502H261.498V238.29C261.498 237.366 262.114 236.75 263.016 236.75C263.852 236.75 264.27 237.333 264.27 238.125V241.502H265.238V237.916C265.238 236.64 264.402 235.87 263.203 235.87Z" fill="black"/>
<path d="M46.3492 153.724H47.5482L44.6772 149.192L47.3502 146.134H46.1512L42.6202 150.226V146.134H41.6192V153.724H42.6202V151.568L44.0282 149.94L46.3492 153.724Z" fill="black"/>
<path d="M48.9145 151.227H53.1385V150.842C53.1385 149.181 52.1485 148.092 50.6305 148.092C49.0575 148.092 47.9575 149.269 47.9575 150.963C47.9575 152.701 49.0245 153.845 50.6305 153.845C51.8515 153.845 52.7205 153.251 53.0285 152.195H52.0825C51.8185 152.756 51.3345 153.031 50.6305 153.031C49.6515 153.031 49.0025 152.36 48.9145 151.227ZM48.9365 150.457C49.1015 149.489 49.7505 148.895 50.6305 148.895C51.5325 148.895 52.0935 149.456 52.1705 150.457H48.9365Z" fill="black"/>
<path d="M56.8447 148.147C56.0967 148.147 55.5467 148.455 55.2497 148.983V148.224H54.3147V153.724H55.2827V150.479C55.2827 149.621 55.8327 149.082 56.8337 149.082H57.0757V148.147H56.8447Z" fill="black"/>
<path d="M64.3188 148.092C63.5598 148.092 62.9108 148.411 62.5148 149.027C62.1958 148.433 61.6018 148.092 60.8318 148.092C60.1058 148.092 59.5008 148.422 59.1598 148.928V148.224H58.2248V153.724H59.1928V150.501C59.1928 149.599 59.7978 148.972 60.6448 148.972C61.4258 148.972 61.7778 149.533 61.7778 150.336V153.724H62.7568V150.402C62.7788 149.599 63.3288 148.972 64.1098 148.972C64.9348 148.972 65.2978 149.533 65.2978 150.336V153.724H66.2768V150.138C66.2768 148.862 65.5288 148.092 64.3188 148.092Z" fill="black"/>
<path d="M69.4254 153.042C68.7874 153.042 68.3914 152.701 68.3914 152.162C68.3914 151.524 68.9084 151.183 69.8764 151.183H71.1744V151.425C71.0754 152.415 70.3824 153.042 69.4254 153.042ZM67.4344 152.184C67.4344 153.229 68.1384 153.834 69.3484 153.834C70.1404 153.834 70.8224 153.482 71.2074 152.877V153.724H72.1314V150.193C72.1314 148.796 71.3944 148.07 69.9534 148.07C68.6444 148.07 67.7644 148.708 67.6544 149.753H68.6114C68.7104 149.192 69.1944 148.873 69.9534 148.873C70.7894 148.873 71.1744 149.291 71.1744 150.182V150.435H69.9644C68.3254 150.435 67.4344 151.051 67.4344 152.184Z" fill="black"/>
<path d="M76.2699 148.092C75.4779 148.092 74.8729 148.422 74.5319 148.928V148.224H73.5969V153.724H74.5649V150.512C74.5649 149.588 75.1809 148.972 76.0829 148.972C76.9189 148.972 77.3369 149.555 77.3369 150.347V153.724H78.3049V150.138C78.3049 148.862 77.4689 148.092 76.2699 148.092Z" fill="black"/>
<path d="M82.9089 152.25C82.9089 152.778 82.4909 153.075 81.7209 153.075C80.8849 153.075 80.4339 152.778 80.3129 152.129H79.3449C79.4879 153.284 80.3129 153.878 81.6879 153.878C83.0629 153.878 83.8439 153.24 83.8439 152.184C83.8439 151.337 83.3599 150.831 82.2599 150.622L81.5119 150.479C80.8739 150.358 80.4669 150.182 80.4669 149.665C80.4669 149.159 80.9179 148.873 81.6329 148.873C82.3479 148.873 82.7439 149.159 82.8319 149.753H83.7889C83.6899 148.554 82.7659 148.07 81.6329 148.07C80.3679 148.07 79.5319 148.686 79.5319 149.698C79.5319 150.534 80.0379 151.062 81.1709 151.282L82.0179 151.447C82.7109 151.579 82.9089 151.832 82.9089 152.25Z" fill="black"/>
<path d="M84.9836 146.134V153.724H85.9516V150.512C85.9516 149.588 86.5676 148.972 87.4696 148.972C88.3056 148.972 88.7236 149.555 88.7236 150.347V153.724H89.6916V150.138C89.6916 148.862 88.8556 148.092 87.6566 148.092C86.8866 148.092 86.2926 148.4 85.9516 148.884V146.134H84.9836Z" fill="black"/>
<path d="M92.8326 153.042C92.1946 153.042 91.7986 152.701 91.7986 152.162C91.7986 151.524 92.3156 151.183 93.2836 151.183H94.5816V151.425C94.4826 152.415 93.7896 153.042 92.8326 153.042ZM90.8416 152.184C90.8416 153.229 91.5456 153.834 92.7556 153.834C93.5476 153.834 94.2296 153.482 94.6146 152.877V153.724H95.5386V150.193C95.5386 148.796 94.8016 148.07 93.3606 148.07C92.0516 148.07 91.1716 148.708 91.0616 149.753H92.0186C92.1176 149.192 92.6016 148.873 93.3606 148.873C94.1966 148.873 94.5816 149.291 94.5816 150.182V150.435H93.3716C91.7326 150.435 90.8416 151.051 90.8416 152.184Z" fill="black"/>
<path d="M97.0041 146.134V153.724H97.9721V150.512C97.9721 149.588 98.5881 148.972 99.4901 148.972C100.326 148.972 100.744 149.555 100.744 150.347V153.724H101.712V150.138C101.712 148.862 100.876 148.092 99.6771 148.092C98.9071 148.092 98.3131 148.4 97.9721 148.884V146.134H97.0041Z" fill="black"/>
<path d="M189.306 316.789H190.505L187.634 312.257L190.307 309.199H189.108L185.577 313.291V309.199H184.576V316.789H185.577V314.633L186.985 313.005L189.306 316.789Z" fill="black"/>
<path d="M191.569 311.289V316.789H192.537V311.289H191.569ZM191.382 309.705C191.382 310.079 191.668 310.354 192.053 310.354C192.438 310.354 192.724 310.079 192.724 309.705C192.724 309.331 192.438 309.056 192.053 309.056C191.668 309.056 191.382 309.331 191.382 309.705Z" fill="black"/>
<path d="M197.227 315.315C197.227 315.843 196.809 316.14 196.039 316.14C195.203 316.14 194.752 315.843 194.631 315.194H193.663C193.806 316.349 194.631 316.943 196.006 316.943C197.381 316.943 198.162 316.305 198.162 315.249C198.162 314.402 197.678 313.896 196.578 313.687L195.83 313.544C195.192 313.423 194.785 313.247 194.785 312.73C194.785 312.224 195.236 311.938 195.951 311.938C196.666 311.938 197.062 312.224 197.15 312.818H198.107C198.008 311.619 197.084 311.135 195.951 311.135C194.686 311.135 193.85 311.751 193.85 312.763C193.85 313.599 194.356 314.127 195.489 314.347L196.336 314.512C197.029 314.644 197.227 314.897 197.227 315.315Z" fill="black"/>
<path d="M199.302 309.199V316.789H200.27V313.577C200.27 312.653 200.886 312.037 201.788 312.037C202.624 312.037 203.042 312.62 203.042 313.412V316.789H204.01V313.203C204.01 311.927 203.174 311.157 201.975 311.157C201.205 311.157 200.611 311.465 200.27 311.949V309.199H199.302Z" fill="black"/>
<path d="M38.3164 97.4771H36.8644L34.5984 103.791L32.3324 97.4771H30.8914V105.067H31.8594V98.6651L34.1694 105.067H35.0274L37.3374 98.6651V105.067H38.3164V97.4771Z" fill="black"/>
<path d="M41.5746 104.385C40.9366 104.385 40.5406 104.044 40.5406 103.505C40.5406 102.867 41.0576 102.526 42.0256 102.526H43.3236V102.768C43.2246 103.758 42.5316 104.385 41.5746 104.385ZM39.5836 103.527C39.5836 104.572 40.2876 105.177 41.4976 105.177C42.2896 105.177 42.9716 104.825 43.3566 104.22V105.067H44.2806V101.536C44.2806 100.139 43.5436 99.4131 42.1026 99.4131C40.7936 99.4131 39.9136 100.051 39.8036 101.096H40.7606C40.8596 100.535 41.3436 100.216 42.1026 100.216C42.9386 100.216 43.3236 100.634 43.3236 101.525V101.778H42.1136C40.4746 101.778 39.5836 102.394 39.5836 103.527Z" fill="black"/>
<path d="M45.7461 97.4771V105.067H46.7141V101.855C46.7141 100.931 47.3301 100.315 48.2321 100.315C49.0681 100.315 49.4861 100.898 49.4861 101.69V105.067H50.4541V101.481C50.4541 100.205 49.6181 99.4351 48.4191 99.4351C47.6491 99.4351 47.0551 99.7431 46.7141 100.227V97.4771H45.7461Z" fill="black"/>
<path d="M53.5951 104.385C52.9571 104.385 52.5611 104.044 52.5611 103.505C52.5611 102.867 53.0781 102.526 54.0461 102.526H55.3441V102.768C55.2451 103.758 54.5521 104.385 53.5951 104.385ZM51.6041 103.527C51.6041 104.572 52.3081 105.177 53.5181 105.177C54.3101 105.177 54.9921 104.825 55.3771 104.22V105.067H56.3011V101.536C56.3011 100.139 55.5641 99.4131 54.1231 99.4131C52.8141 99.4131 51.9341 100.051 51.8241 101.096H52.7811C52.8801 100.535 53.3641 100.216 54.1231 100.216C54.9591 100.216 55.3441 100.634 55.3441 101.525V101.778H54.1341C52.4951 101.778 51.6041 102.394 51.6041 103.527Z" fill="black"/>
<path d="M60.6046 99.4351C59.8126 99.4351 59.1196 99.7651 58.7346 100.359V97.4771H57.7666V105.067H58.7346V104.275C59.1086 104.858 59.8346 105.199 60.6046 105.199C62.1446 105.199 63.2006 104.077 63.2006 102.306C63.2006 100.546 62.1446 99.4351 60.6046 99.4351ZM58.7016 102.339V102.273C58.7016 101.041 59.4496 100.26 60.4616 100.26C61.4956 100.26 62.2216 101.063 62.2216 102.306C62.2216 103.549 61.4956 104.374 60.4616 104.374C59.4496 104.374 58.7016 103.593 58.7016 102.339Z" fill="black"/>
<path d="M66.013 104.385C65.375 104.385 64.979 104.044 64.979 103.505C64.979 102.867 65.496 102.526 66.464 102.526H67.762V102.768C67.663 103.758 66.97 104.385 66.013 104.385ZM64.022 103.527C64.022 104.572 64.726 105.177 65.936 105.177C66.728 105.177 67.41 104.825 67.795 104.22V105.067H68.719V101.536C68.719 100.139 67.982 99.4131 66.541 99.4131C65.232 99.4131 64.352 100.051 64.242 101.096H65.199C65.298 100.535 65.782 100.216 66.541 100.216C67.377 100.216 67.762 100.634 67.762 101.525V101.778H66.552C64.913 101.778 64.022 102.394 64.022 103.527Z" fill="black"/>
<path d="M72.4175 99.4351C70.8775 99.4351 69.8215 100.546 69.8215 102.306C69.8215 104.077 70.8775 105.199 72.4175 105.199C73.1875 105.199 73.9135 104.858 74.2875 104.275V105.067H75.2555V97.4771H74.2875V100.359C73.9025 99.7651 73.2095 99.4351 72.4175 99.4351ZM70.8005 102.306C70.8005 101.063 71.5265 100.26 72.5605 100.26C73.5725 100.26 74.3205 101.041 74.3205 102.273V102.339C74.3205 103.593 73.5725 104.374 72.5605 104.374C71.5265 104.374 70.8005 103.549 70.8005 102.306Z" fill="black"/>
<path d="M276.382 105.41H274.93L272.664 111.724L270.398 105.41H268.957V113H269.925V106.598L272.235 113H273.093L275.403 106.598V113H276.382V105.41Z" fill="black"/>
<path d="M279.64 112.318C279.002 112.318 278.606 111.977 278.606 111.438C278.606 110.8 279.123 110.459 280.091 110.459H281.389V110.701C281.29 111.691 280.597 112.318 279.64 112.318ZM277.649 111.46C277.649 112.505 278.353 113.11 279.563 113.11C280.355 113.11 281.037 112.758 281.422 112.153V113H282.346V109.469C282.346 108.072 281.609 107.346 280.168 107.346C278.859 107.346 277.979 107.984 277.869 109.029H278.826C278.925 108.468 279.409 108.149 280.168 108.149C281.004 108.149 281.389 108.567 281.389 109.458V109.711H280.179C278.54 109.711 277.649 110.327 277.649 111.46Z" fill="black"/>
<path d="M286.957 111.526C286.957 112.054 286.539 112.351 285.769 112.351C284.933 112.351 284.482 112.054 284.361 111.405H283.393C283.536 112.56 284.361 113.154 285.736 113.154C287.111 113.154 287.892 112.516 287.892 111.46C287.892 110.613 287.408 110.107 286.308 109.898L285.56 109.755C284.922 109.634 284.515 109.458 284.515 108.941C284.515 108.435 284.966 108.149 285.681 108.149C286.396 108.149 286.792 108.435 286.88 109.029H287.837C287.738 107.83 286.814 107.346 285.681 107.346C284.416 107.346 283.58 107.962 283.58 108.974C283.58 109.81 284.086 110.338 285.219 110.558L286.066 110.723C286.759 110.855 286.957 111.108 286.957 111.526Z" fill="black"/>
<path d="M289.032 105.41V113H290V109.788C290 108.864 290.616 108.248 291.518 108.248C292.354 108.248 292.772 108.831 292.772 109.623V113H293.74V109.414C293.74 108.138 292.904 107.368 291.705 107.368C290.935 107.368 290.341 107.676 290 108.16V105.41H289.032Z" fill="black"/>
<path d="M296.881 112.318C296.243 112.318 295.847 111.977 295.847 111.438C295.847 110.8 296.364 110.459 297.332 110.459H298.63V110.701C298.531 111.691 297.838 112.318 296.881 112.318ZM294.89 111.46C294.89 112.505 295.594 113.11 296.804 113.11C297.596 113.11 298.278 112.758 298.663 112.153V113H299.587V109.469C299.587 108.072 298.85 107.346 297.409 107.346C296.1 107.346 295.22 107.984 295.11 109.029H296.067C296.166 108.468 296.65 108.149 297.409 108.149C298.245 108.149 298.63 108.567 298.63 109.458V109.711H297.42C295.781 109.711 294.89 110.327 294.89 111.46Z" fill="black"/>
<path d="M303.286 107.368C301.746 107.368 300.69 108.479 300.69 110.239C300.69 112.01 301.746 113.132 303.286 113.132C304.056 113.132 304.782 112.791 305.156 112.208V113H306.124V105.41H305.156V108.292C304.771 107.698 304.078 107.368 303.286 107.368ZM301.669 110.239C301.669 108.996 302.395 108.193 303.429 108.193C304.441 108.193 305.189 108.974 305.189 110.206V110.272C305.189 111.526 304.441 112.307 303.429 112.307C302.395 112.307 301.669 111.482 301.669 110.239Z" fill="black"/>
<path d="M110.22 113.824L110.858 113.175L109.912 112.229C110.352 111.558 110.583 110.711 110.583 109.82C110.583 107.708 109.296 105.904 107.019 105.904C104.742 105.904 103.455 107.708 103.455 109.82C103.455 111.932 104.753 113.736 107.019 113.736C107.954 113.736 108.724 113.428 109.307 112.922L110.22 113.824ZM104.478 109.82C104.478 108.203 105.325 106.817 107.019 106.817C108.713 106.817 109.56 108.203 109.56 109.82C109.56 110.436 109.439 111.019 109.186 111.503L107.833 110.15L107.184 110.81L108.625 112.24C108.229 112.603 107.69 112.823 107.019 112.823C105.325 112.823 104.478 111.437 104.478 109.82Z" fill="black"/>
<path d="M113.587 112.933C112.949 112.933 112.553 112.592 112.553 112.053C112.553 111.415 113.07 111.074 114.038 111.074H115.336V111.316C115.237 112.306 114.544 112.933 113.587 112.933ZM111.596 112.075C111.596 113.12 112.3 113.725 113.51 113.725C114.302 113.725 114.984 113.373 115.369 112.768V113.615H116.293V110.084C116.293 108.687 115.556 107.961 114.115 107.961C112.806 107.961 111.926 108.599 111.816 109.644H112.773C112.872 109.083 113.356 108.764 114.115 108.764C114.951 108.764 115.336 109.182 115.336 110.073V110.326H114.126C112.487 110.326 111.596 110.942 111.596 112.075Z" fill="black"/>
<path d="M118.441 112.768L121.543 108.94V108.115H117.374V108.962H120.465L117.341 112.79V113.615H121.565V112.768H118.441Z" fill="black"/>
<path d="M126.76 108.115L124.945 112.713L123.119 108.115H122.063L124.384 113.615H125.473L127.794 108.115H126.76Z" fill="black"/>
<path d="M128.749 108.115V113.615H129.717V108.115H128.749ZM128.562 106.531C128.562 106.905 128.848 107.18 129.233 107.18C129.618 107.18 129.904 106.905 129.904 106.531C129.904 106.157 129.618 105.882 129.233 105.882C128.848 105.882 128.562 106.157 128.562 106.531Z" fill="black"/>
<path d="M133.935 107.983C133.143 107.983 132.538 108.313 132.197 108.819V108.115H131.262V113.615H132.23V110.403C132.23 109.479 132.846 108.863 133.748 108.863C134.584 108.863 135.002 109.446 135.002 110.238V113.615H135.97V110.029C135.97 108.753 135.134 107.983 133.935 107.983Z" fill="black"/>
<path d="M109.484 95.2042L107.691 92.0142C108.659 91.6952 109.209 90.9472 109.209 89.9022C109.209 88.4722 108.186 87.6142 106.459 87.6142H103.764V95.2042H104.765V92.2012H106.69L108.351 95.2042H109.484ZM104.765 91.2772V88.5492H106.437C107.614 88.5492 108.186 89.0112 108.186 89.9132C108.186 90.8152 107.614 91.2772 106.437 91.2772H104.765Z" fill="black"/>
<path d="M112.105 94.5222C111.467 94.5222 111.071 94.1812 111.071 93.6422C111.071 93.0042 111.588 92.6632 112.556 92.6632H113.854V92.9052C113.755 93.8952 113.062 94.5222 112.105 94.5222ZM110.115 93.6642C110.115 94.7092 110.818 95.3142 112.028 95.3142C112.82 95.3142 113.502 94.9622 113.887 94.3572V95.2042H114.812V91.6732C114.812 90.2762 114.074 89.5502 112.633 89.5502C111.324 89.5502 110.444 90.1882 110.334 91.2332H111.291C111.39 90.6722 111.874 90.3532 112.633 90.3532C113.469 90.3532 113.854 90.7712 113.854 91.6622V91.9152H112.645C111.006 91.9152 110.115 92.5312 110.115 93.6642Z" fill="black"/>
<path d="M119.423 93.7302C119.423 94.2582 119.005 94.5552 118.235 94.5552C117.399 94.5552 116.948 94.2582 116.827 93.6092H115.859C116.002 94.7642 116.827 95.3582 118.202 95.3582C119.577 95.3582 120.358 94.7202 120.358 93.6642C120.358 92.8172 119.874 92.3112 118.774 92.1022L118.026 91.9592C117.388 91.8382 116.981 91.6622 116.981 91.1452C116.981 90.6392 117.432 90.3532 118.147 90.3532C118.862 90.3532 119.258 90.6392 119.346 91.2332H120.303C120.204 90.0342 119.28 89.5502 118.147 89.5502C116.882 89.5502 116.046 90.1662 116.046 91.1782C116.046 92.0142 116.552 92.5422 117.685 92.7622L118.532 92.9272C119.225 93.0592 119.423 93.3122 119.423 93.7302Z" fill="black"/>
<path d="M121.498 87.6142V95.2042H122.466V91.9922C122.466 91.0682 123.082 90.4522 123.984 90.4522C124.82 90.4522 125.238 91.0352 125.238 91.8272V95.2042H126.206V91.6182C126.206 90.3422 125.37 89.5722 124.171 89.5722C123.401 89.5722 122.807 89.8802 122.466 90.3642V87.6142H121.498Z" fill="black"/>
<path d="M130.23 90.5512V89.7042H128.921V88.2632H127.953V89.7042H127.04V90.5512H127.953V93.6752C127.953 94.8082 128.613 95.2262 129.647 95.2262C129.878 95.2262 130.076 95.2152 130.197 95.2042V94.3572H129.845C129.163 94.3572 128.921 94.1702 128.921 93.4772V90.5512H130.23Z" fill="black"/>
<path d="M181.257 106.966C181.257 107.791 180.663 108.253 179.585 108.253C178.408 108.253 177.715 107.78 177.528 106.856H176.516C176.725 108.319 177.836 109.144 179.585 109.144C181.235 109.144 182.236 108.308 182.236 106.922C182.236 105.8 181.576 105.107 180.212 104.821L179.123 104.59C178.133 104.381 177.759 104.062 177.759 103.402C177.759 102.632 178.375 102.181 179.453 102.181C180.421 102.181 181.015 102.621 181.136 103.457H182.137C182.005 102.093 181.004 101.29 179.453 101.29C177.858 101.29 176.758 102.17 176.758 103.446C176.758 104.546 177.451 105.217 178.903 105.514L179.959 105.734C180.905 105.932 181.257 106.273 181.257 106.966Z" fill="black"/>
<path d="M185.178 108.33C184.54 108.33 184.144 107.989 184.144 107.45C184.144 106.812 184.661 106.471 185.629 106.471H186.927V106.713C186.828 107.703 186.135 108.33 185.178 108.33ZM183.187 107.472C183.187 108.517 183.891 109.122 185.101 109.122C185.893 109.122 186.575 108.77 186.96 108.165V109.012H187.884V105.481C187.884 104.084 187.147 103.358 185.706 103.358C184.397 103.358 183.517 103.996 183.407 105.041H184.364C184.463 104.48 184.947 104.161 185.706 104.161C186.542 104.161 186.927 104.579 186.927 105.47V105.723H185.717C184.078 105.723 183.187 106.339 183.187 107.472Z" fill="black"/>
<path d="M191.879 103.435C191.131 103.435 190.581 103.743 190.284 104.271V103.512H189.349V109.012H190.317V105.767C190.317 104.909 190.867 104.37 191.868 104.37H192.11V103.435H191.879Z" fill="black"/>
<path d="M193.303 103.512V109.012H194.271V103.512H193.303ZM193.116 101.928C193.116 102.302 193.402 102.577 193.787 102.577C194.172 102.577 194.458 102.302 194.458 101.928C194.458 101.554 194.172 101.279 193.787 101.279C193.402 101.279 193.116 101.554 193.116 101.928Z" fill="black"/>
<path d="M156.122 253.264C156.122 254.089 155.529 254.551 154.451 254.551C153.274 254.551 152.58 254.078 152.393 253.154H151.382C151.591 254.617 152.702 255.442 154.451 255.442C156.101 255.442 157.102 254.606 157.102 253.22C157.102 252.098 156.441 251.405 155.077 251.119L153.988 250.888C152.998 250.679 152.624 250.36 152.624 249.7C152.624 248.93 153.24 248.479 154.318 248.479C155.286 248.479 155.88 248.919 156.001 249.755H157.003C156.871 248.391 155.869 247.588 154.318 247.588C152.723 247.588 151.624 248.468 151.624 249.744C151.624 250.844 152.316 251.515 153.768 251.812L154.824 252.032C155.77 252.23 156.122 252.571 156.122 253.264Z" fill="black"/>
<path d="M158.382 247.72V255.31H159.35V252.098C159.35 251.174 159.966 250.558 160.868 250.558C161.704 250.558 162.122 251.141 162.122 251.933V255.31H163.09V251.724C163.09 250.448 162.254 249.678 161.055 249.678C160.285 249.678 159.691 249.986 159.35 250.47V247.72H158.382Z" fill="black"/>
<path d="M164.592 249.81V255.31H165.56V249.81H164.592ZM164.405 248.226C164.405 248.6 164.691 248.875 165.076 248.875C165.461 248.875 165.747 248.6 165.747 248.226C165.747 247.852 165.461 247.577 165.076 247.577C164.691 247.577 164.405 247.852 164.405 248.226Z" fill="black"/>
<path d="M169.635 249.733C168.887 249.733 168.337 250.041 168.04 250.569V249.81H167.105V255.31H168.073V252.065C168.073 251.207 168.623 250.668 169.624 250.668H169.866V249.733H169.635Z" fill="black"/>
<path d="M172.343 254.628C171.705 254.628 171.309 254.287 171.309 253.748C171.309 253.11 171.826 252.769 172.794 252.769H174.092V253.011C173.993 254.001 173.3 254.628 172.343 254.628ZM170.352 253.77C170.352 254.815 171.056 255.42 172.266 255.42C173.058 255.42 173.74 255.068 174.125 254.463V255.31H175.049V251.779C175.049 250.382 174.312 249.656 172.871 249.656C171.562 249.656 170.682 250.294 170.572 251.339H171.529C171.628 250.778 172.112 250.459 172.871 250.459C173.707 250.459 174.092 250.877 174.092 251.768V252.021H172.882C171.243 252.021 170.352 252.637 170.352 253.77Z" fill="black"/>
<path d="M177.197 254.463L180.299 250.635V249.81H176.13V250.657H179.221L176.097 254.485V255.31H180.321V254.463H177.197Z" fill="black"/>
<path d="M33.7296 88.1036C35.6876 88.1036 36.7986 86.9266 36.7986 84.9576V80.3816H35.7976V85.0126C35.7976 86.2996 35.0826 87.1686 33.7296 87.1686C32.3766 87.1686 31.6616 86.2996 31.6616 85.0126V80.3816H30.6606V84.9576C30.6606 86.9266 31.7716 88.1036 33.7296 88.1036Z" fill="black"/>
<path d="M40.8702 82.3946C40.1222 82.3946 39.5722 82.7026 39.2752 83.2306V82.4716H38.3402V87.9716H39.3082V84.7266C39.3082 83.8686 39.8582 83.3296 40.8592 83.3296H41.1012V82.3946H40.8702Z" fill="black"/>
<path d="M48.3444 82.3396C47.5854 82.3396 46.9364 82.6586 46.5404 83.2746C46.2214 82.6806 45.6274 82.3396 44.8574 82.3396C44.1314 82.3396 43.5264 82.6696 43.1854 83.1756V82.4716H42.2504V87.9716H43.2184V84.7486C43.2184 83.8466 43.8234 83.2196 44.6704 83.2196C45.4514 83.2196 45.8034 83.7806 45.8034 84.5836V87.9716H46.7824V84.6496C46.8044 83.8466 47.3544 83.2196 48.1354 83.2196C48.9604 83.2196 49.3234 83.7806 49.3234 84.5836V87.9716H50.3024V84.3856C50.3024 83.1096 49.5544 82.3396 48.3444 82.3396Z" fill="black"/>
<path d="M51.812 82.4716V87.9716H52.78V82.4716H51.812ZM51.625 80.8876C51.625 81.2616 51.911 81.5366 52.296 81.5366C52.681 81.5366 52.967 81.2616 52.967 80.8876C52.967 80.5136 52.681 80.2386 52.296 80.2386C51.911 80.2386 51.625 80.5136 51.625 80.8876Z" fill="black"/>
<path d="M56.0076 87.2896C55.3696 87.2896 54.9736 86.9486 54.9736 86.4096C54.9736 85.7716 55.4906 85.4306 56.4586 85.4306H57.7566V85.6726C57.6576 86.6626 56.9646 87.2896 56.0076 87.2896ZM54.0166 86.4316C54.0166 87.4766 54.7206 88.0816 55.9306 88.0816C56.7226 88.0816 57.4046 87.7296 57.7896 87.1246V87.9716H58.7136V84.4406C58.7136 83.0436 57.9766 82.3176 56.5356 82.3176C55.2266 82.3176 54.3466 82.9556 54.2366 84.0006H55.1936C55.2926 83.4396 55.7766 83.1206 56.5356 83.1206C57.3716 83.1206 57.7566 83.5386 57.7566 84.4296V84.6826H56.5466C54.9076 84.6826 54.0166 85.2986 54.0166 86.4316Z" fill="black"/>
<path d="M192.155 201.036L189.999 204.798L187.843 201.036H186.732L189.482 205.678V208.626H190.494V205.678L193.244 201.036H192.155Z" fill="black"/>
<path d="M194.972 207.944C194.334 207.944 193.938 207.603 193.938 207.064C193.938 206.426 194.455 206.085 195.423 206.085H196.721V206.327C196.622 207.317 195.929 207.944 194.972 207.944ZM192.981 207.086C192.981 208.131 193.685 208.736 194.895 208.736C195.687 208.736 196.369 208.384 196.754 207.779V208.626H197.678V205.095C197.678 203.698 196.941 202.972 195.5 202.972C194.191 202.972 193.311 203.61 193.201 204.655H194.158C194.257 204.094 194.741 203.775 195.5 203.775C196.336 203.775 196.721 204.193 196.721 205.084V205.337H195.511C193.872 205.337 192.981 205.953 192.981 207.086Z" fill="black"/>
<path d="M199.826 207.779L202.928 203.951V203.126H198.759V203.973H201.85L198.726 207.801V208.626H202.95V207.779H199.826Z" fill="black"/>
<path d="M206.157 202.994C204.617 202.994 203.561 204.105 203.561 205.865C203.561 207.636 204.617 208.758 206.157 208.758C206.927 208.758 207.653 208.417 208.027 207.834V208.626H208.995V201.036H208.027V203.918C207.642 203.324 206.949 202.994 206.157 202.994ZM204.54 205.865C204.54 204.622 205.266 203.819 206.3 203.819C207.312 203.819 208.06 204.6 208.06 205.832V205.898C208.06 207.152 207.312 207.933 206.3 207.933C205.266 207.933 204.54 207.108 204.54 205.865Z" fill="black"/>
<path d="M298.7 247.72H293.343V248.655H297.512L293.189 254.419V255.31H298.623V254.375H294.377L298.7 248.6V247.72Z" fill="black"/>
<path d="M301.464 254.628C300.826 254.628 300.43 254.287 300.43 253.748C300.43 253.11 300.947 252.769 301.915 252.769H303.213V253.011C303.114 254.001 302.421 254.628 301.464 254.628ZM299.473 253.77C299.473 254.815 300.177 255.42 301.387 255.42C302.179 255.42 302.861 255.068 303.246 254.463V255.31H304.17V251.779C304.17 250.382 303.433 249.656 301.992 249.656C300.683 249.656 299.803 250.294 299.693 251.339H300.65C300.749 250.778 301.233 250.459 301.992 250.459C302.828 250.459 303.213 250.877 303.213 251.768V252.021H302.003C300.364 252.021 299.473 252.637 299.473 253.77Z" fill="black"/>
<path d="M305.635 247.72V255.31H306.603V252.098C306.603 251.174 307.219 250.558 308.121 250.558C308.957 250.558 309.375 251.141 309.375 251.933V255.31H310.343V251.724C310.343 250.448 309.507 249.678 308.308 249.678C307.538 249.678 306.944 249.986 306.603 250.47V247.72H305.635Z" fill="black"/>
<path d="M312.395 252.813H316.619V252.428C316.619 250.767 315.629 249.678 314.111 249.678C312.538 249.678 311.438 250.855 311.438 252.549C311.438 254.287 312.505 255.431 314.111 255.431C315.332 255.431 316.201 254.837 316.509 253.781H315.563C315.299 254.342 314.815 254.617 314.111 254.617C313.132 254.617 312.483 253.946 312.395 252.813ZM312.417 252.043C312.582 251.075 313.231 250.481 314.111 250.481C315.013 250.481 315.574 251.042 315.651 252.043H312.417Z" fill="black"/>
<path d="M320.114 249.678C318.574 249.678 317.518 250.789 317.518 252.549C317.518 254.32 318.574 255.442 320.114 255.442C320.884 255.442 321.61 255.101 321.984 254.518V255.31H322.952V247.72H321.984V250.602C321.599 250.008 320.906 249.678 320.114 249.678ZM318.497 252.549C318.497 251.306 319.223 250.503 320.257 250.503C321.269 250.503 322.017 251.284 322.017 252.516V252.582C322.017 253.836 321.269 254.617 320.257 254.617C319.223 254.617 318.497 253.792 318.497 252.549Z" fill="black"/>
<path d="M326.128 254.628C325.49 254.628 325.094 254.287 325.094 253.748C325.094 253.11 325.611 252.769 326.579 252.769H327.877V253.011C327.778 254.001 327.085 254.628 326.128 254.628ZM324.137 253.77C324.137 254.815 324.841 255.42 326.051 255.42C326.843 255.42 327.525 255.068 327.91 254.463V255.31H328.834V251.779C328.834 250.382 328.097 249.656 326.656 249.656C325.347 249.656 324.467 250.294 324.357 251.339H325.314C325.413 250.778 325.897 250.459 326.656 250.459C327.492 250.459 327.877 250.877 327.877 251.768V252.021H326.667C325.028 252.021 324.137 252.637 324.137 253.77Z" fill="black"/>
<path d="M332.972 249.678C332.18 249.678 331.575 250.008 331.234 250.514V249.81H330.299V255.31H331.267V252.098C331.267 251.174 331.883 250.558 332.785 250.558C333.621 250.558 334.039 251.141 334.039 251.933V255.31H335.007V251.724C335.007 250.448 334.171 249.678 332.972 249.678Z" fill="black"/>
<path d="M130.451 123.41H124.335V124.763H126.656V131H128.141V124.763H130.451V123.41Z" fill="black"/>
<path d="M132.814 129.68V127.777H135.993V126.457H132.814V124.73H136.411V123.41H131.34V131H136.433V129.68H132.814Z" fill="black"/>
<path d="M142.619 123.41V126.446H139.055V123.41H137.581V131H139.055V127.821H142.619V131H144.104V123.41H142.619Z" fill="black"/>
<path d="M146.983 129.68V127.777H150.162V126.457H146.983V124.73H150.58V123.41H145.509V131H150.602V129.68H146.983Z" fill="black"/>
<path d="M157.965 131L156.227 128.074C157.151 127.7 157.679 126.919 157.679 125.863C157.679 124.367 156.546 123.41 154.753 123.41H151.75V131H153.224V128.349H154.764L156.238 131H157.965ZM153.224 127.007V124.763H154.72C155.688 124.763 156.172 125.137 156.172 125.885C156.172 126.633 155.688 127.007 154.72 127.007H153.224Z" fill="black"/>
<path d="M164.196 131H165.78L162.876 123.41H161.182L158.267 131H159.818L160.401 129.361H163.613L164.196 131ZM160.874 128.052L162.018 124.917L163.14 128.052H160.874Z" fill="black"/>
<path d="M171.679 123.41V128.69L168.39 123.41H166.575V131H168.049V125.379L171.547 131H173.153V123.41H171.679Z" fill="black"/>
<path d="M90.0718 218.818H91.1058L88.1468 211.228H87.0248L84.0548 218.818H85.0668L85.7928 216.893H89.3458L90.0718 218.818ZM86.1338 215.991L87.5748 212.163L89.0158 215.991H86.1338Z" fill="black"/>
<path d="M91.9862 211.228V218.818H92.9542V215.606C92.9542 214.682 93.5702 214.066 94.4722 214.066C95.3082 214.066 95.7262 214.649 95.7262 215.441V218.818H96.6942V215.232C96.6942 213.956 95.8582 213.186 94.6592 213.186C93.8892 213.186 93.2952 213.494 92.9542 213.978V211.228H91.9862Z" fill="black"/>
<path d="M101.933 213.318L100.118 217.916L98.2922 213.318H97.2362L99.5572 218.818H100.646L102.967 213.318H101.933Z" fill="black"/>
<path d="M105.228 218.136C104.59 218.136 104.194 217.795 104.194 217.256C104.194 216.618 104.711 216.277 105.679 216.277H106.977V216.519C106.878 217.509 106.185 218.136 105.228 218.136ZM103.237 217.278C103.237 218.323 103.941 218.928 105.151 218.928C105.943 218.928 106.625 218.576 107.01 217.971V218.818H107.934V215.287C107.934 213.89 107.197 213.164 105.756 213.164C104.447 213.164 103.567 213.802 103.457 214.847H104.414C104.513 214.286 104.997 213.967 105.756 213.967C106.592 213.967 106.977 214.385 106.977 215.276V215.529H105.767C104.128 215.529 103.237 216.145 103.237 217.278Z" fill="black"/>
<path d="M110.081 217.971L113.183 214.143V213.318H109.014V214.165H112.105L108.981 217.993V218.818H113.205V217.971H110.081Z" fill="black"/>
</svg>
