<svg width="372" height="369" viewBox="0 0 372 369" fill="none" xmlns="http://www.w3.org/2000/svg">
<path d="M0 0H372V369H0V0Z" fill="#F3F0EF"/>
<path d="M31.4677 40.1987L31.5234 40.2552L31.7454 40.4243L31.801 40.4808L32.1871 40.534L32.5726 40.5301L32.5187 40.6449L32.4642 40.7025L32.8526 40.9841L33.078 41.4957L33.5956 43.6604L33.8204 44.1149L34.1543 44.4541L33.992 44.7413L34.0488 44.912L34.4928 45.2501L34.7682 45.2474L34.8789 45.3033L34.9913 45.5306L35.047 45.5872L35.6574 46.0378L35.7687 46.1509L35.8255 46.3216L36.1605 46.775L36.3268 46.8876L36.4393 47.1148L36.7772 47.8537L36.8896 48.081L37.0572 48.3077L37.1696 48.535L37.3463 49.6752L37.4599 50.0167L37.8988 49.841L39.6674 50.4512L39.7219 50.3936L39.8314 50.3354L39.9961 50.2766L40.1613 50.2749L40.2175 50.3886L40.163 50.4462L40.1647 50.6175L40.3305 50.6729L40.5514 50.7278L40.7734 50.8969L40.8858 51.1241L40.7247 51.5255L40.8371 51.7527L41.1698 51.9778L41.3368 52.1474L41.3936 52.3181L41.5089 52.8309L41.6208 53.0011L41.7871 53.1136L42.1743 53.281L42.2311 53.4517L42.1784 53.6806L42.0717 54.0243L42.1291 54.2522L42.3517 54.4783L42.7395 54.7028L43.1267 54.8702L43.3475 54.9251L43.6235 54.9794L43.9562 55.2044L44.0113 55.2039L44.122 55.2599L44.6176 55.2549L45.6112 55.4732L47.0981 55.4582L47.9827 55.7919L48.3699 55.9593L51.9575 56.7225L53.0641 57.2253L54.0583 57.5008L54.2235 57.4991L55.3783 57.3161L55.6519 57.1421L56.5261 56.448L56.8548 56.2734L57.0745 56.2141L57.7353 56.2074L58.1197 56.0893L58.2849 56.0877L58.5057 56.1426L60.2761 56.9241L60.6076 57.035L60.9381 57.0316L61.3218 56.8565L61.5955 56.6824L61.8685 56.4512L62.0859 56.1635L62.3027 55.8187L62.788 54.786L63.0054 54.4983L63.3329 54.2095L64.319 53.6857L64.5915 53.3974L64.8599 52.7095L65.0768 52.3647L65.1858 52.2494L65.4594 52.0753L65.6774 51.8447L66.1099 51.0409L66.3273 50.7532L66.6003 50.5221L66.8745 50.4051L67.1499 50.4023L67.6478 50.6257L67.9237 50.68L68.1434 50.6207L69.1289 50.0398L69.2385 49.9816L69.4014 49.7515L69.5098 49.5791L69.7765 48.7199L70.3719 47.6861L70.4247 47.4571L70.5882 47.2842L71.4091 46.762L73.1093 46.0596L73.3285 45.9432L73.8212 45.6527L74.3662 45.0762L75.1807 43.926L75.7268 43.4637L76.4387 43.0568L77.6462 42.6449L78.0311 42.5839L78.2497 42.4104L79.121 41.4309L79.4497 41.2563L81.4752 40.0367L82.1831 39.2302L82.4555 38.9419L82.7837 38.7102L83.168 38.5921L84.4346 38.5793L84.6543 38.52L84.8178 38.3471L85.0352 38.0594L85.2561 38.1142L85.5888 38.3393L86.6455 39.3564L89.5449 42.8675L90.7129 43.9977L91.2154 44.6778L91.609 45.4733L91.4444 45.532L91.0055 45.7078L90.1307 46.3447L89.0867 46.5836L88.5389 46.8747L88.0484 47.3935L87.7243 48.0249L87.6773 48.8248L87.904 49.4506L88.3509 50.0742L89.3519 51.0348L90.3472 51.4245L90.6255 51.7072L91.1326 52.8441L91.2456 53.1285L91.2491 53.4711L91.1969 53.7571L91.0896 54.0437L90.9267 54.2737L90.2154 54.7377L87.0822 55.3403L87.0288 55.5122L87.0305 55.6835L86.9772 55.8553L86.1018 56.4351L85.9395 56.7223L86.0038 57.6352L86.3405 58.26L87.4512 59.1624L89.7206 60.2815L89.9426 60.4506L89.9994 60.6213L90.0579 60.9633L90.0075 61.4206L90.0666 61.8197L90.8995 62.4965L91.1789 62.8934L91.5122 63.1756L92.0079 63.1706L92.885 62.762L93.2704 62.7581L93.4959 63.2698L93.6118 63.8396L93.835 64.1228L94.1132 64.4055L94.3932 64.8595L94.672 65.1993L94.9514 65.5962L95.6208 66.446L96.0695 67.2409L96.6259 67.8063L96.7361 67.8051L97.5077 67.8545L97.892 67.7364L98.3303 67.5036L98.7679 67.2136L99.0949 66.8677L99.4781 66.6355L100.029 66.6299L101.133 66.8472L101.208 68.8449L101.049 69.5318L101.164 69.9874L101.231 71.1859L101.57 71.9818L101.818 74.7202L102.56 77.3393L102.454 77.7401L102.459 78.254L102.133 78.7141L102.247 79.0555L102.863 80.0771L102.866 80.3055L102.812 80.4774L102.814 80.6487L102.988 81.5034L103.327 82.3565L104.221 83.6608L105.39 84.9052L106.666 85.806L109.435 87.2627L110.706 87.7066L117.269 88.5541L117.983 88.4326L118.587 88.1982L119.136 88.0784L119.746 88.4149L119.58 88.4165L119.415 88.3611L119.304 88.3622L119.196 88.5346L120.634 89.0911L122.842 89.5827L123.616 89.9175L124.172 90.4258L124.125 91.2257L124.293 91.5095L124.521 92.3066L124.69 92.6476L124.914 93.045L125.312 94.2401L125.816 95.0915L126.428 95.6564L127.649 96.6148L128.486 97.6912L128.763 97.8597L129.095 97.9706L130.98 99.2649L131.311 99.3187L131.533 99.4306L132.034 99.9966L132.312 100.222L135.026 101.737L137.467 103.539L138.906 104.21L143.652 105.133L146.69 106.016L149.835 106.555L152.873 107.438L156.007 106.949L158.805 105.836L161.716 105.065L164.739 104.463L167.652 103.806L170.561 102.863L173.361 101.921L178.965 100.551L179.734 100.429L186.394 99.962L187.603 99.6643L188.421 98.9138L188.375 99.7707L187.442 100.123L186.232 100.306L185.464 100.542L185.244 100.659L185.024 100.604L184.581 100.437L184.307 100.497L183.813 100.673L183.538 100.733L182.545 100.629L181.664 100.638L181.777 100.865L181.998 100.92L182.548 100.914L182.219 101.032L182.109 101.033L182.5 101.6L183.219 101.935L185.865 102.137L186.142 102.306L186.419 102.417L188.56 101.767L188.779 101.594L188.885 101.25L188.862 98.9664L188.748 98.5679L188.471 98.3993L188.14 98.2885L188.191 97.9454L188.569 97.1992L188.177 96.5751L187.894 95.7785L187.489 93.8983L186.979 92.4759L186.921 92.1339L186.737 90.2514L191.367 90.6044L191.697 90.6011L192.026 90.4835L192.353 90.1376L192.681 89.9059L193.067 89.902L193.453 89.9552L193.838 89.9513L194.442 89.7169L197.288 87.9751L197.673 87.9141L198.722 88.1319L199.107 88.128L199.161 88.0133L199.597 87.5521L199.926 87.4346L200.144 87.204L200.965 86.6247L201.347 86.2782L201.4 86.1064L201.452 85.7633L201.666 85.1901L201.718 84.847L201.711 84.1618L201.654 83.9911L201.432 83.822L201.376 83.7084L201.371 83.2516L201.64 82.5637L201.69 82.1064L201.797 81.7627L202.014 81.4179L202.504 80.842L205.018 78.9893L205.78 78.068L205.888 77.8386L205.995 77.552L206.214 77.4356L206.434 77.3762L206.599 77.3175L206.707 77.1451L206.868 76.7437L207.032 76.5708L207.361 76.4533L208.351 76.272L208.57 76.2127L208.732 75.8684L209.115 75.6362L209.883 75.3429L210.104 75.3407L210.431 75.0519L210.76 74.8772L212.016 73.8368L212.4 73.6616L213.501 73.5934L216.853 72.8172L217.348 72.8122L218.397 73.0301L219.062 73.4231L219.338 73.5345L220.219 73.5256L220.496 73.637L220.939 73.8609L221.16 73.9158L221.435 73.913L223.853 73.4318L224.515 73.5393L224.571 73.5959L225.124 73.8187L225.4 73.873L226.83 73.6302L227.103 73.399L227.264 73.0548L227.315 72.6546L227.256 72.2555L226.81 71.689L226.917 71.4024L227.953 70.3641L228.5 69.9589L229.103 69.7244L230.645 69.6517L230.921 69.706L231.365 70.0442L231.586 70.1561L231.861 70.0963L233.231 69.4543L234.056 69.2747L234.221 69.3301L234.888 69.8944L235.497 70.2309L235.774 70.3423L238.312 70.8306L238.976 71.1094L239.307 71.1632L239.636 70.9885L239.854 70.7579L240.4 70.3527L240.618 70.1221L240.942 69.4907L241.16 69.2601L241.434 69.0861L241.764 69.0827L242.151 69.193L242.317 69.3056L242.374 69.4763L242.376 69.6476L242.433 69.8183L242.825 70.4995L243.164 71.2956L243.387 71.5788L243.944 72.2013L244.171 72.8842L244.726 73.2783L244.84 73.6769L244.789 74.0771L244.471 75.2794L244.917 75.8459L247.35 76.8492L248.175 76.6696L248.451 76.7239L249.335 77.0005L250.161 76.9922L250.435 76.9323L250.711 76.9295L251.377 77.4367L251.542 77.435L251.817 77.3752L251.983 77.4306L252.094 77.5437L252.263 77.8846L252.374 77.9977L252.65 78.1091L252.926 78.1063L253.201 78.0464L253.476 78.0436L254.083 78.2088L256.74 79.4953L257.844 79.7697L258.396 79.8212L258.672 79.8755L258.949 80.044L259.06 80.2142L259.062 80.3855L259.009 80.5574L259.011 80.7286L259.291 81.2397L259.348 81.4104L259.407 81.8096L259.41 82.095L259.467 82.3229L259.745 82.5485L260.021 82.6599L261.345 82.8749L261.567 82.9869L262.011 83.325L262.232 83.3799L263.772 83.193L264.046 83.019L264.262 82.6742L264.424 82.2729L264.641 81.9851L264.915 81.8111L265.245 81.8078L265.522 81.9763L266.356 82.7673L267.075 83.0455L267.461 83.0987L267.846 83.0377L268.01 82.9219L268.228 82.6913L268.448 82.689L268.834 82.7423L269 82.7406L269.164 82.6818L269.382 82.3941L269.433 82.051L269.542 81.8786L270.539 82.4396L271.864 82.7688L272.528 83.1047L272.75 83.2738L272.971 83.3286L273.467 83.3807L273.634 83.4932L274.19 84.0586L276.465 85.7487L276.851 85.8019L277.783 85.3357L278.17 85.446L278.503 85.7853L278.839 86.2387L278.896 86.5236L278.847 87.038L278.959 87.2653L279.016 87.436L278.962 87.6079L278.855 87.8373L278.802 88.0663L278.862 88.5225L279.208 90.0607L279.431 90.344L280.486 91.2469L280.82 91.5862L280.932 91.7564L280.933 91.8705L280.879 91.9282L280.881 92.1566L280.828 92.3284L280.884 92.4992L281.16 92.5535L281.383 92.7796L281.549 92.8351L281.714 92.8334L282.262 92.5994L282.538 92.6538L282.817 92.9936L282.931 93.335L282.99 93.7341L283.103 94.0756L283.325 94.2447L283.49 94.1859L283.599 94.0706L283.816 93.7258L283.98 93.6099L284.145 93.6083L286.576 94.3832L287.687 95.3427L288.297 95.7362L289.677 96.0078L290.341 96.2866L290.843 96.9668L291.518 98.3875L292.302 99.6358L294.142 101.901L294.534 102.525L295.044 103.891L295.38 104.515L295.935 104.852L298.633 104.768L301 104.687L304.634 104.593L306.671 104.516L308.433 104.441L309.261 104.604L309.978 104.711L310.15 105.451L310.319 105.792L310.376 106.02L310.434 106.305L310.437 106.59L310.384 106.819L310.277 107.049L310.168 107.221L310.115 107.45L310.173 107.735L310.287 108.077L309.919 109.85L309.82 110.936L310.047 111.562L309.993 111.677L309.993 111.734L309.94 111.906L310.106 111.961L310.328 112.187L310.385 112.301L310.499 112.757L310.505 113.271L310.562 113.498L310.786 113.896L311.076 115.263L311.137 115.948L311.194 116.062L311.14 116.176L310.977 116.406L310.868 116.579L310.815 116.751L310.762 116.98L310.764 117.151L310.711 117.38L310.547 117.496L310.383 117.554L310.274 117.67L310.221 117.956L310.281 118.412L310.283 118.64L310.065 118.871L309.738 119.16L309.52 119.447L309.742 119.559L310.183 119.612L310.515 119.78L310.793 120.063L311.072 120.402L311.24 120.686L311.409 121.027L311.523 121.426L311.586 122.225L311.645 122.567L311.648 122.909L311.543 123.424L311.655 123.594L311.658 123.823L311.553 124.338L311.558 124.851L311.504 125.023L311.286 125.254L311.233 125.369L311.293 125.939L311.519 126.451L311.911 127.132L312.024 127.359L312.198 128.271L312.258 128.727L312.152 129.185L311.936 129.587L311.556 130.105L311.395 130.506L311.236 131.193L311.128 131.422L310.803 131.94L310.695 132.169L310.645 132.626L310.711 133.711L310.605 134.111L310.276 134.286L309.891 134.347L309.506 134.351L309.288 134.582L309.182 135.039L309.189 135.725L309.3 135.838L309.358 136.065L309.36 136.294L309.196 136.41L309.087 136.525L309.199 136.752L309.814 137.603L309.87 137.716L309.817 137.945L309.764 138.117L309.766 138.288L309.933 138.458L309.553 139.09L309.446 139.376L309.345 140.291L309.133 141.093L309.082 141.493L309.029 141.722L308.813 142.124L308.761 142.41L308.763 142.638L308.822 143.037L308.824 143.208L308.776 143.951L308.673 144.638L308.179 144.814L308.073 145.157L307.748 145.789L307.202 146.251L306.876 146.654L306.881 147.168L306.942 147.738L306.892 148.253L306.729 148.483L306.509 148.542L306.289 148.544L306.069 148.604L305.85 148.72L305.741 148.835L305.633 149.008L304.871 149.929L304.543 150.161L304.104 150.28L303.169 150.403L302.73 150.636L302.46 151.096L302.625 151.094L302.791 151.149L302.902 151.319L303.073 151.832L303.24 152.001L303.682 152.168L303.904 152.337L304.072 152.564L304.353 153.132L305.637 154.832L305.861 155.23L304.595 155.299L302.889 155.431L301.678 155.5L301.793 155.956L301.52 156.244L300.699 156.709L300.099 157.343L299.556 158.091L299.071 159.124L298.97 160.096L299.028 160.38L299.212 162.206L299.741 165.455L299.634 165.799L299.096 167.061L298.993 167.747L299.449 169.284L300.506 170.358L301.889 170.915L303.211 171.016L304.477 170.946L305.139 170.997L305.691 171.162L305.968 171.331L306.247 171.614L306.415 171.897L306.415 171.955L306.307 172.184L306.033 172.301L305.208 172.366L304.935 172.598L304.883 172.884L305 173.568L304.893 173.968L304.73 174.199L304.183 174.547L303.692 175.008L302.226 177.079L301.303 178.401L300.489 179.552L300.381 179.838L300.398 181.494L300.632 182.862L301.145 184.57L301.717 186.62L302.344 188.726L302.972 190.947L303.712 193.338L304.512 196.242L305.085 198.463L305.048 200.176L304.953 201.719L304.846 202.063L304.412 202.638L304.305 202.982L304.361 203.095L304.528 203.208L304.639 203.321L304.478 203.779L304.536 204.007L304.648 204.234L304.705 204.462L304.765 204.919L304.668 206.176L304.733 207.203L304.973 209.142L304.768 210.686L304.828 211.142L305.113 212.11L305.353 214.049L305.906 214.272L307.616 214.54L313.353 215.396L316.662 215.876L318.647 216.142L319.585 216.246L320.027 216.413L320.36 216.695L320.974 217.488L321.088 217.887L320.987 218.745L320.991 219.144L321.16 219.542L321.609 220.337L321.779 220.792L321.84 221.42L321.897 221.648L322.179 222.273L322.406 222.956L322.465 223.355L322.469 223.755L322.364 224.212L322.04 224.901L322.098 225.129L322.167 226.556L322.058 226.614L322.004 226.786L322.008 227.128L322.064 227.242L321.792 227.587L320.433 229.371L318.312 232.076L316.41 234.551L315.05 236.277L313.256 238.58L312.332 239.788L310.972 241.515L308.362 244.796L307.111 246.35L306.132 247.559L307.526 249.258L308.418 250.334L309.533 251.693L310.816 253.279L312.154 254.922L313.548 256.621L313.881 256.903L314.214 257.071L314.491 257.296L314.662 257.808L314.611 258.209L314.397 258.896L314.401 259.296L314.571 259.694L315.128 260.316L315.351 260.656L315.409 260.884L315.469 261.398L315.581 261.625L315.749 261.852L315.915 261.907L316.08 261.905L316.246 262.018L316.414 262.302L316.528 262.643L316.641 262.928L316.917 263.039L317.084 263.151L317.141 263.322L317.087 263.494L316.815 263.782L316.761 263.897L316.817 264.011L316.928 264.124L317.15 264.236L317.317 264.405L317.484 264.632L318.218 266.338L318.332 266.736L318.39 267.078L318.503 267.363L319.005 267.929L319.511 269.008L320.013 269.631L321.792 271.269L322.518 272.233L323.63 273.249L324.187 273.872L324.519 274.04L325.513 274.315L326.344 274.821L326.842 274.987L327.944 275.09L328.496 275.199L329.935 275.87L332.197 276.303L332.695 276.527L332.918 276.753L333.086 277.037L333.253 277.264L333.53 277.432L333.807 277.543L333.973 277.656L334.086 277.883L334.199 278.225L334.424 278.679L335.483 279.868L335.815 280.093L338.563 279.494L338.951 279.719L339.013 280.403L338.758 282.461L338.506 284.748L338.85 286.115L339.31 288.052L339.433 289.25L339.614 290.847L339.734 291.816L339.918 293.641L340.038 294.668L339.936 295.468L339.076 297.59L339.411 297.986L339.523 298.213L339.472 298.557L339.419 298.843L339.311 299.072L339.147 299.188L338.872 299.191L339.595 299.869L339.872 300.037L339.982 300.036L340.201 299.92L340.311 299.919L340.422 299.975L340.81 300.199L341.362 300.308L341.802 300.303L342.791 300.065L343.231 300.003L344.11 299.709L344.55 299.704L344.826 299.759L345.046 299.757L345.98 299.462L346.145 299.46L346.366 299.515L346.81 299.91L347.032 300.022L347.474 300.189L347.64 300.301L347.808 300.528L348.032 300.926L348.596 302.233L348.32 302.122L347.934 302.126L347.605 302.3L347.276 302.361L347.222 302.533L347.06 302.82L347.007 302.992L347.009 303.22L347.142 305.446L347.31 305.786L347.534 306.127L347.703 306.468L347.651 306.811L347.378 307.042L346.663 307.163L346.39 307.337L346.282 307.624L346.201 310.48L346.044 311.281L345.662 311.684L345.497 311.686L345.386 311.63L345.275 311.517L345.109 311.462L344.944 311.463L344.45 311.583L343.789 311.589L343.127 311.482L341.584 311.44L340.262 311.396L339.105 311.351L338.94 311.41L338.832 311.582L338.67 311.926L338.561 312.042L338.452 312.1L338.287 312.159L337.737 312.278L337.572 312.28L337.406 312.167L337.24 312.112L337.076 312.228L336.968 312.4L336.803 312.516L336.474 312.634L333.613 312.948L333.449 313.007L333.34 313.122L333.177 313.352L333.068 313.467L332.903 313.526L332.353 313.532L332.188 313.591L331.969 313.764L331.475 313.94L331.311 314.056L331.203 314.229L331.15 314.4L331.262 314.628L331.263 314.742L331.102 315.086L330.557 315.663L330.449 315.892L330.563 316.348L330.732 316.689L330.735 316.974L330.352 317.206L329.69 317.099L328.916 316.821L328.254 316.714L327.983 317.173L327.933 317.631L327.77 317.861L327.055 317.982L326.726 318.1L326.397 318.274L325.795 318.68L323.764 319.329L323.382 319.675L323.167 320.191L323.008 320.821L322.855 322.021L322.755 323.05L322.602 324.251L322.399 325.909L322.247 327.281L322.14 327.625L321.869 327.97L321.594 328.03L321.263 328.033L320.879 328.151L320.499 328.669L320.616 329.41L320.79 330.208L320.741 330.893L320.633 331.066L320.361 331.354L320.252 331.526L320.2 331.813L320.156 332.955L320.063 334.612L319.972 336.554L319.879 338.211L319.344 339.815L319.231 339.531L319.173 339.189L318.895 338.963L318.839 338.85L318.783 338.793L318.619 338.909L318.565 339.024L318.568 339.309L318.514 339.424L318.626 339.537L318.793 339.764L318.904 339.877L318.518 339.824L318.242 339.712L317.966 339.715L317.584 340.004L317.97 340.115L318.137 340.227L318.304 340.397L318.195 340.569L317.924 340.915L317.871 341.144L317.872 341.315L317.763 341.43L317.544 341.546L316.611 341.841L316.833 342.01L316.453 342.585L313.579 341.586L312.586 341.368L312.582 341.026L312.302 340.572L309.926 339.739L307.112 339.311L304.739 338.764L303.139 338.551L302.862 338.383L303.135 338.152L302.743 337.527L302.685 337.243L302.674 336.158L302.618 335.987L302.006 335.365L301.729 335.197L301.453 335.142L301.123 335.203L299.97 335.614L299.697 335.788L299.534 336.075L299.262 336.421L299.155 336.65L299.156 336.764L299.212 336.878L299.271 337.277L299.382 337.333L299.492 337.332L299.658 337.444L299.824 337.443L299.879 337.499L299.935 337.613L300.102 337.783L299.937 337.784L299.938 337.841L300.436 338.122L300.383 338.351L300.163 338.296L299.61 338.073L298.891 337.795L298.558 337.57L297.842 337.577L297.342 337.182L297.505 336.895L297.559 336.837L297.338 336.725L297.007 336.672L296.402 336.735L295.907 336.854L295.798 336.912L295.634 337.085L295.635 337.199L295.691 337.313L296.024 337.538L295.918 337.882L295.477 337.886L295.144 337.661L294.978 337.606L294.372 337.498L294.26 337.385L294.093 337.158L293.816 336.989L293.21 337.053L292.33 337.176L291.395 337.242L290.794 337.762L290.075 337.484L289.353 336.806L288.579 336.585L286.598 336.72L285.827 336.727L284.557 336.455L283.723 335.607L283.114 335.27L282.179 335.451L280.2 335.814L279.705 335.876L278.77 336.056L277.784 336.523L277.399 336.584L277.233 336.529L277.122 336.416L277.011 336.36L276.517 336.536L276.132 336.54L275.801 336.486L275.524 336.375L275.302 336.206L274.518 334.9L274.072 334.391L273.408 334.055L272.802 334.061L272.636 334.005L272.524 333.835L272.468 333.665L272.356 333.494L272.135 333.439L270.703 333.454L267.613 332.914L266.569 333.096L265.632 333.048L265.3 332.88L265.407 332.594L264.912 332.656L264.362 332.776L264.143 332.892L263.761 333.238L263.487 333.298L263.376 333.242L263.32 333.186L263.21 333.187L262.991 333.36L262.883 333.476L262.718 333.535L262.553 333.536L262.496 333.423L262.387 333.481L261.786 333.944L261.181 334.064L260.629 333.955L260.077 333.79L259.525 333.681L259.082 333.457L258.691 332.947L258.184 331.81L257.627 331.131L256.964 330.966L256.25 331.144L255.592 331.494L254.992 332.014L254.609 332.246L254.333 332.249L254.38 331.392L254.433 331.163L254.486 331.048L254.484 330.82L254.314 330.365L254.037 330.139L253.705 330.028L253.264 330.033L252.88 330.094L251.946 330.331L251.725 330.276L251.393 330.109L251.172 330.054L250.952 330.056L250.622 330.173L250.457 330.175L250.016 330.122L248.855 329.734L248.964 329.619L246.705 329.471L246.428 329.359L246.315 329.075L246.195 328.105L245.8 327.139L245.572 326.341L245.402 325.943L245.18 325.717L244.79 325.264L244.735 325.265L244.515 325.324L244.46 325.325L244.404 325.268L244.347 325.041L244.12 324.358L244.061 324.016L243.892 323.618L243.835 323.39L243.941 322.989L244.485 322.355L244.646 321.954L244.42 321.328L243.305 320.026L243.41 319.511L243.299 319.398L243.179 318.486L243.064 318.03L242.896 317.689L242.562 317.35L242.448 317.008L242.389 316.552L242.387 316.381L242.637 313.923L242.573 313.01L241.426 308.454L241.202 308.113L240.646 307.605L240.423 307.322L240.419 306.979L239.92 306.642L239.917 306.299L240.137 306.297L240.302 306.238L240.466 306.122L240.685 306.006L240.519 305.893L240.517 305.722L240.57 305.55L240.679 305.378L240.185 305.611L240.021 305.67L239.855 305.614L239.744 305.501L239.687 305.388L239.466 305.276L239.355 305.163L239.244 305.107L238.915 305.281L238.805 305.225L238.748 305.055L238.745 304.826L238.526 304.885L238.414 304.772L238.413 304.601L238.577 304.542L238.687 304.484L238.959 304.139L239.123 304.023L239.121 303.852L238.625 303.8L238.237 303.518L237.957 303.121L237.842 302.665L237.624 302.896L237.405 302.955L236.964 302.96L236.688 302.848L236.521 302.679L236.409 302.509L236.243 302.453L234.481 302.471L234.094 302.361L233.986 302.533L233.598 302.309L233.101 302.199L232.054 302.153L231.557 302.044L230.673 301.71L230.122 301.658L229.076 301.726L228.527 301.903L228.144 302.192L227.761 302.367L226.66 302.436L226.22 302.554L226.056 302.67L225.784 302.958L225.73 303.073L225.677 303.302L225.458 303.419L225.294 303.534L225.021 303.823L223.872 304.577L223.49 304.923L223.491 304.98L223.381 305.038L223.054 305.327L222.889 305.386L222.119 305.508L221.405 305.686L220.689 305.694L220.525 305.752L220.251 305.926L220.086 305.985L219.426 305.992L218.874 305.883L218.708 305.885L218.38 306.059L217.835 306.636L217.616 306.752L217.452 306.925L216.527 308.02L216.747 307.96L216.856 307.902L216.965 307.787L217.025 308.243L216.921 308.815L216.706 309.388L216.49 309.79L215.944 310.31L215.287 310.659L214.573 310.837L213.801 310.788L212.419 310.288L211.647 310.182L210.99 310.531L210.773 310.933L210.667 311.276L210.504 311.564L210.12 311.682L209.79 311.742L209.021 311.978L208.747 312.095L207.656 313.134L207.492 313.25L205.854 314.637L204.048 315.797L203.721 316.143L203.556 316.202L203.336 316.147L203.059 315.978L202.838 315.923L201.407 316.052L200.635 315.946L200.355 315.492L200.129 314.923L199.628 314.414L198.855 314.251L197.314 314.323L196.705 314.044L196.37 313.533L196.088 312.908L195.751 312.283L195.252 311.889L194.865 311.836L194.536 311.896L194.206 312.013L192.941 312.14L192.61 312.087L191.45 311.756L191.174 311.701L191.008 311.646L190.675 311.364L190.509 311.308L190.344 311.31L190.014 311.371L188.918 311.953L188.149 312.075L187.435 312.31L187.049 312.314L186.276 312.094L185.835 312.041L185.452 312.273L185.231 312.218L184.342 311.428L183.067 310.641L181.402 309.345L181.179 309.061L181.064 308.663L181 307.75L180.886 307.351L180.607 307.012L180.053 306.675L174.25 304.677L173.864 304.624L173.477 304.514L173.254 304.231L173.085 303.89L172.862 303.607L171.868 303.331L171.701 303.161L171.531 302.706L171.198 302.481L170.425 302.261L169.036 301.019L168.426 300.625L167.541 300.234L166.213 299.619L165.878 299.223L165.819 298.824L165.982 298.594L166.256 298.477L166.586 298.417L166.917 298.413L167.301 298.352L167.52 298.179L167.35 297.724L167.073 297.498L166.354 297.22L166.076 296.994L165.964 296.767L165.682 296.142L165.57 295.914L164.289 294.557L163.734 294.106L163.125 293.826L160.089 293.172L159.425 292.836L157.423 290.915L156.813 290.464L156.094 290.186L155.267 290.08L154.112 290.263L153.835 290.151L153.503 289.926L152.897 289.99L152.238 290.168L151.194 290.406L150.532 290.299L149.042 289.971L148.821 289.917L148.71 289.803L148.708 289.632L148.651 289.461L148.54 289.348L147.989 289.297L147.27 289.076L146.881 288.68L146.488 287.999L146.1 287.717L145.996 288.289L145.666 288.349L145.323 287.154L144.988 286.643L144.705 285.904L144.033 284.826L143.755 284.543L143.42 284.147L143.306 283.748L143.681 282.659L143.676 282.146L143.339 281.578L142.728 281.013L142.505 280.73L141.889 279.765L141.332 279.143L141.22 278.916L140.146 276.243L139.975 275.616L139.949 273.047L139.72 272.193L139.327 271.454L138.881 270.945L138.327 270.608L137.609 270.444L136.948 270.394L136.616 270.283L136.449 270.056L136.335 269.657L135.498 268.638L135.329 268.24L135.213 267.67L135.263 267.156L135.591 266.924L135.923 267.035L136.256 267.317L136.535 267.657L136.703 267.998L136.867 267.825L136.865 267.654L136.808 267.483L136.806 267.254L136.914 267.082L137.241 266.736L137.349 266.507L137.4 266.049L137.34 265.593L137.172 265.309L136.842 265.37L136.671 264.8L136.559 264.573L136.337 264.404L136.227 264.405L135.897 264.523L135.841 264.409L135.838 264.067L135.781 263.896L135.725 263.782L135.338 263.729L134.017 263.799L133.688 263.86L133.25 264.15L132.754 264.098L132.365 263.759L132.194 263.19L132.133 262.676L132.186 262.447L132.349 262.217L132.456 261.931L132.563 261.587L132.727 261.414L133.005 261.697L133.052 260.897L133.106 260.782L132.94 260.727L132.829 260.614L132.604 260.216L132.709 259.701L132.701 258.902L132.583 258.104L132.467 257.534L132.243 257.136L131.908 256.683L131.631 256.572L131.638 257.2L131.525 256.972L131.022 256.235L130.133 255.502L129.965 255.218L129.852 254.877L129.572 254.48L129.016 253.914L128.021 253.525L127.853 253.298L127.739 252.899L127.515 252.502L127.069 251.992L126.621 251.312L125.835 249.835L125.444 249.211L125.11 248.929L124.39 248.479L123.722 247.801L123.666 247.687L123.608 247.459L123.604 247.06L123.547 246.832L123.822 246.772L123.876 246.657L123.764 246.487L123.542 246.375L123.701 245.688L123.304 244.55L123.409 244.035L123.187 243.866L122.908 243.526L122.683 243.129L122.57 242.788L122.457 242.56L122.235 242.391L122.07 242.336L121.627 242.169L121.021 242.118L120.416 242.238L119.813 242.473L114.507 246.067L113.904 246.358L113.352 246.249L112.849 245.512L112.79 245.17L112.781 244.257L112.668 243.915L112.556 243.745L112.443 243.518L112.277 243.405L111.945 243.294L111.395 243.3L111.01 243.418L110.79 243.42L110.624 243.365L110.402 243.196L110.236 243.14L109.907 243.201L109.249 243.493L108.919 243.553L108.478 243.501L108.311 243.331L108.302 242.475L108.246 242.418L108.024 242.249L107.968 242.135L107.962 241.564L108.016 241.45L108.015 241.336L107.794 241.224L107.687 241.567L107.525 241.911L107.307 242.142L107.032 242.202L106.7 242.034L106.532 241.75L106.365 241.523L106.089 241.526L105.702 241.359L104.594 240.685L104.371 240.459L104.254 239.775L103.975 239.378L103.532 239.154L102.979 238.988L103.141 238.644L103.416 238.584L104.133 238.691L104.519 238.687L105.068 238.51L105.397 238.45L105.729 238.561L106.449 238.953L106.67 239.065L107.056 239.118L107.333 239.23L107.556 239.456L107.779 239.796L107.887 239.51L108.211 238.935L108.7 238.245L108.808 238.016L108.804 237.673L108.474 237.734L108.197 237.565L108.029 237.224L107.911 236.483L107.692 236.599L107.419 236.888L107.146 237.119L107.143 236.776L107.197 236.662L107.029 236.435L106.865 236.494L106.701 236.609L106.481 236.669L106.37 236.613L106.202 236.329L106.091 236.273L105.981 236.274L105.817 236.39L105.707 236.391L105.376 236.337L105.045 236.226L104.769 236.229L104.496 236.403L103.889 236.295L103.396 236.643L103.729 236.868L104.172 237.092L104.724 237.2L105.167 237.481L105.281 237.823L104.954 238.169L104.679 238.172L103.741 238.067L103.522 238.126L102.595 239.049L102.541 239.164L102.378 239.394L102.27 239.623L102.492 239.792L102.439 239.964L102.33 240.137L102.276 240.251L102.391 240.707L102.669 240.99L103.003 241.272L103.281 241.612L103.45 241.953L103.565 242.408L103.684 243.321L103.631 243.55L103.47 243.951L103.417 244.18L103.42 244.408L103.534 244.807L103.536 245.035L103.43 245.436L103.213 245.781L102.886 246.07L102.556 246.187L101.399 246.085L101.125 246.202L100.792 246.034L99.5809 246.046L98.8609 245.653L98.585 245.599L98.5334 245.942L98.6459 246.169L98.8702 246.567L98.9281 246.852L98.8754 247.081L98.7669 247.253L98.6035 247.426L98.4394 247.542L98.0551 247.66L96.7873 247.559L96.7861 247.444L96.6771 247.56L96.6777 247.617L96.567 247.561L96.0146 247.395L95.7375 247.227L95.5155 247.058L95.4042 246.944L95.348 246.831L95.1787 246.433L95.1208 246.148L94.78 245.124L94.7243 245.067L94.6119 244.84L94.2774 244.443L93.9963 243.875L94.0491 243.646L94.1575 243.474L94.321 243.301L94.4294 243.129L94.4822 242.9L94.4248 242.672L94.3123 242.445L94.2005 242.274L93.5333 241.653L92.9762 241.03L92.6401 240.463L92.4737 240.35L92.2528 240.295L92.0325 240.298L91.4279 240.418L91.2076 240.42L90.9868 240.365L90.8204 240.253L90.7085 240.083L90.6517 239.912L90.4773 239L90.3075 238.545L90.0832 238.147L89.8044 237.808L89.638 237.695L89.4722 237.64L87.652 237.373L87.6457 236.745L87.6011 226.867L87.5432 226.582L87.3768 226.469L81.8147 226.525L81.8196 221.557L81.839 218.017L84.3535 210.683L84.4591 210.225L84.3994 209.769L84.1757 209.428L83.5096 208.921L83.2308 208.581L83.0604 208.069L82.9486 207.899L82.8373 207.786L82.5045 207.561L82.3927 207.391L81.7754 206.255L81.7168 205.913L81.5482 205.572L80.9395 205.292L80.6613 205.01L80.2666 204.1L79.9872 203.703L79.9315 203.647L79.6 203.536L79.324 203.482L79.1571 203.312L79.0447 203.085L78.8226 202.916L78.5467 202.861L78.4354 202.748L78.4337 202.577L78.4859 202.291L78.5387 202.062L78.6471 201.89L78.7549 201.66L78.752 201.375L78.639 201.09L78.3057 200.808L78.1927 200.524L78.0269 200.468L77.9156 200.355L77.6356 199.901L77.5232 199.674L77.0224 199.165L76.9661 199.051L76.8531 198.767L76.852 198.653L76.9065 198.595L77.0676 198.194L77.1766 198.079L77.2306 197.964L77.2282 197.735L77.1164 197.565L76.6724 197.227L76.393 196.83L76.2243 196.489L76.0011 196.206L75.6139 196.039L74.6743 195.706L74.454 195.708L73.6876 196.172L73.4134 196.289L72.8082 196.353L72.2563 196.244L71.7578 195.963L71.2031 195.569L66.0349 190.996L65.3103 190.147L64.202 189.473L63.4247 188.853L63.369 188.796L61.7622 187.842L61.2614 187.333L59.5455 186.494L57.7225 185.941L55.7422 186.189L54.7498 186.085L54.3557 185.233L54.5736 185.002L54.8467 184.771L55.1192 184.483L55.2258 184.139L55.1128 183.855L54.8902 183.628L54.5587 183.518L53.7865 183.411L53.5639 183.185L53.5616 182.957L53.8903 182.782L54.2752 182.721L54.5506 182.718L54.8254 182.658L55.1529 182.37L55.5889 181.908L55.8063 181.621L55.9135 181.334L55.9118 181.163L55.6904 181.051L55.6336 180.88L55.6318 180.709L55.738 180.308L55.7357 180.08L55.567 179.739L55.3444 179.513L54.7891 179.061L54.1184 178.097L53.562 177.532L53.449 177.248L53.4455 176.905L53.3858 176.449L53.2717 176.05L53.0479 175.71L52.4897 174.973L52.3228 174.804L52.1025 174.806L51.9929 174.864L51.8857 175.151L51.3906 175.213L50.8938 175.104L50.6156 174.821L50.8875 174.476L51.7084 173.953L51.9252 173.609L51.8104 173.153L51.4221 172.871L51.1433 172.532L51.192 171.903L50.8076 172.021L49.9816 172.029L49.6523 172.147L49.1619 172.666L48.8882 172.84L48.6135 172.9L48.5016 172.73L48.4941 171.987L48.3805 171.646L47.5487 171.083L47.2705 170.801L47.0467 170.46L46.8781 170.119L46.7639 169.721L46.7042 169.265L46.5906 168.923L46.368 168.697L46.0904 168.471L45.8672 168.188L44.3515 165.348L44.2958 165.292L44.1857 165.293L43.6906 165.355L43.2495 165.302L42.8617 165.078L42.5261 164.567L42.9099 164.392L43.0739 164.276L43.2374 164.103L43.507 163.53L43.667 163.014L43.8276 162.556L44.2642 162.152L44.5366 161.863L45.1917 161.286L45.3546 161.056L45.3523 160.827L45.1286 160.487L45.0712 160.259L45.1246 160.087L45.3408 159.685L45.4492 159.513L45.6591 158.483L45.709 157.969L45.5943 157.513L45.3149 157.116L44.9822 156.891L44.5967 156.895L44.2691 157.184L43.9364 156.959L43.7115 156.504L43.1429 154.74L43.3053 154.453L44.1841 154.215L44.4021 153.985L44.5105 153.812L44.5638 153.64L44.5575 153.012L44.3836 152.158L44.4329 151.586L45.0961 151.808L45.7053 152.144L46.2572 152.253L47.4148 152.355L47.8015 152.466L47.9116 152.465L47.9655 152.35L48.0183 152.121L48.016 151.893L47.9598 151.779L47.7917 151.495L47.7331 151.153L47.7291 150.753L47.67 150.354L47.6132 150.184L47.3906 149.957L47.3332 149.73L47.2764 149.559L47.1646 149.389L46.9982 149.276L46.8324 149.221L46.5542 148.938L46.6609 148.594L47.1508 148.018L47.2035 147.79L47.1438 147.333L47.196 147.047L47.3589 146.817L47.5781 146.701L48.0731 146.639L48.5653 146.291L48.6703 145.776L48.6094 145.206L48.7155 144.805L49.101 144.801L49.6546 145.081L50.0969 145.248L50.3688 144.903L50.4738 144.388L50.6349 143.986L50.686 143.586L50.515 143.017L50.4571 142.732L50.4542 142.446L50.5069 142.217L50.6704 142.044L50.78 141.986L51.0003 141.984L51.1098 141.926L51.1638 141.811L51.1058 141.526L51.1047 141.412L51.3209 141.01L51.4305 140.952L51.707 141.063L52.0948 141.288L52.2606 141.343L52.4808 141.341L52.9788 141.564L53.2536 141.504L53.5266 141.273L53.9643 140.983L54.1295 140.982L54.4605 141.035L54.8993 140.86L55.119 140.8L55.2831 140.685L55.3904 140.398L55.0559 140.002L55.2699 139.371L55.649 138.739L55.6983 138.168L55.4207 137.942L54.7598 137.949L54.5378 137.78L54.4793 137.438L54.6416 137.151L54.859 136.863L55.0208 136.519L54.9043 135.892L54.5136 135.382L53.5688 134.535L52.4489 132.719L52.2223 132.093L52.22 131.865L52.2733 131.693L52.4913 131.462L52.5452 131.348L52.5429 131.119L52.4867 131.006L52.3175 130.608L52.1477 130.153L52.2578 130.151L52.7552 130.318L52.8073 130.032L52.6335 129.177L52.63 128.834L52.6811 128.434L52.7878 128.09L53.0057 127.86L53.335 127.742L54.5471 127.787L54.877 127.727L55.6984 127.262L56.3599 127.312L56.6897 127.252L56.9622 126.963L57.179 126.619L57.6712 126.271L57.9442 126.04L58.1611 125.695L58.2127 125.352L58.0996 125.068L57.822 124.842L57.4359 124.789L57.1072 124.963L56.8342 125.195L56.5049 125.312L55.7907 125.491L55.4052 125.494L55.0731 125.327L54.9067 125.214L54.7954 125.101L54.7386 124.93L54.6239 124.475L54.5682 124.418L54.4581 124.419L53.9601 124.196L53.6848 124.199L53.4106 124.315L53.0819 124.49L52.7526 124.608L51.6506 124.562L51.1017 124.738L50.9364 124.74L50.7707 124.685L50.6054 124.686L50.2234 125.033L49.8947 125.207L49.5643 125.211L49.2872 125.042L49.1214 124.987L48.4629 125.222L48.1313 125.111L47.9081 124.828L47.4561 123.69L46.6735 122.556L46.1733 122.104L45.7316 121.995L45.5096 121.826L44.8975 121.204L44.2343 120.982L43.8471 120.815L43.4065 120.819L42.8587 121.11L42.5845 121.227L42.2564 121.459L41.872 121.577L41.486 121.524L41.2072 121.184L40.875 121.016L40.9805 120.558L41.1962 120.099L41.413 119.754L41.4635 119.297L41.2386 118.842L40.681 118.163L40.5662 117.707L40.611 116.679L40.5518 116.28L40.3293 116.054L39.996 115.771L39.8829 115.487L40.2656 115.198L39.9311 114.801L39.8169 114.403L39.7526 113.49L39.6924 112.977L39.5214 112.407L39.242 112.01L38.8009 111.958L37.8687 112.367L37.3737 112.429L36.9308 112.205L36.7082 111.979L36.6514 111.808L36.594 111.58L36.5361 111.295L36.4236 111.068L36.2567 110.899L36.1448 110.728L36.1419 110.443L35.9194 110.217L35.6417 109.991L35.5861 109.935L35.3623 109.594L35.4139 109.251L35.4684 109.193L35.6876 109.077L35.7421 109.019L35.7374 108.563L35.8952 107.819L36.2175 107.016L36.2135 106.616L36.0437 106.161L35.6501 105.366L35.3713 105.026L35.0942 104.858L34.8739 104.86L34.6531 104.805L34.4867 104.692L34.3198 104.523L34.0978 104.354L33.8769 104.299L33.3268 104.361L32.8851 104.252L32.5523 104.027L32.4382 103.628L32.5976 103.055L33.1959 102.307L33.4122 101.905L33.5171 101.39L33.4569 100.877L33.2882 100.536L33.174 100.138L33.2784 99.5655L33.4413 99.3354L33.4941 99.1065L33.3822 98.9363L32.9944 98.7118L32.7718 98.4856L32.6611 98.4297L32.4959 98.4313L32.1666 98.5489L32.0008 98.4934L31.9446 98.3798L31.7742 97.8676L31.6629 97.7545L31.4415 97.6426L31.3296 97.4724L31.2154 97.0738L31.2131 96.8454L31.4271 96.2152L31.5332 95.8144L31.419 95.4158L31.2498 95.0178L31.1901 94.5616L31.2423 94.2756L31.4608 94.1021L31.68 93.9857L31.8974 93.698L31.9449 92.9552L31.5548 92.5023L30.5572 91.8843L30.3891 91.6005L30.2761 91.3161L30.1086 91.0894L29.504 91.2097L29.337 91.0401L29.1104 90.4142L28.8328 90.1886L28.2264 90.1377L28.005 90.0257L27.8902 89.57L28.1036 88.8827L28.0445 88.4836L27.9298 88.0279L27.9791 87.4564L28.0834 86.8843L28.244 86.4259L28.1849 86.0268L27.7966 85.7452L27.4621 85.3489L27.5103 84.6632L27.6738 84.4902L28.2743 83.9703L28.4367 83.6831L28.3793 83.4553L27.7655 82.6621L26.7696 82.2153L26.3296 82.2769L26.1105 82.3933L25.8363 82.5102L25.616 82.5125L25.5035 82.2852L25.5024 82.171L25.554 81.8279L25.5528 81.7137L25.4416 81.6006L25.3314 81.6017L25.2218 81.6599L25.0555 81.5474L24.888 81.3207L24.7749 81.0363L24.717 80.7514L24.6046 80.5241L24.4382 80.4116L23.8295 80.1322L23.6087 80.0774L22.5084 80.2027L21.9015 80.0946L21.621 79.5835L21.6743 79.4117L21.6737 79.3546L21.9995 78.8945L21.9967 78.609L21.8831 78.2675L21.9352 77.9815L22.0425 77.6949L22.2048 77.4078L22.3666 77.0635L22.7481 76.66L22.9098 76.3158L23.0704 75.8573L23.2327 75.5702L23.4513 75.3967L23.78 75.2221L23.889 75.1068L23.7197 74.7087L23.718 74.5375L23.8821 74.4216L24.1563 74.3046L24.2647 74.1322L24.3714 73.7886L24.4207 73.2171L24.4711 72.7597L24.4057 71.7326L24.8956 71.1566L25.4962 70.6367L25.8759 70.0618L25.8724 69.7192L25.7588 69.3778L25.5357 69.0945L25.3131 68.8684L25.0366 68.757L24.8169 68.8163L24.2696 69.1644L23.4418 69.0015L23.1653 68.89L22.999 68.7775L22.9422 68.6068L22.9938 68.2637L22.9915 68.0353L22.9307 67.4649L22.9278 67.1794L23.1388 66.2637L23.1348 65.864L22.9581 64.7238L23.0039 63.8097L22.9993 63.3529L22.8852 62.9544L22.7733 62.7842L22.6631 62.7853L22.3316 62.6744L22.1101 62.5625L22.2185 62.3901L22.382 62.2171L22.4354 62.0453L22.3212 61.6467L22.2082 61.3624L22.1502 61.0774L22.2563 60.6767L22.6802 59.0165L22.6188 58.389L21.733 57.9411L21.4548 57.6584L21.2311 57.3181L21.0607 56.8059L20.9488 56.6357L20.892 56.465L20.888 56.0653L20.7767 55.9522L20.6103 55.8397L20.4985 55.6695L20.4399 55.3275L20.3831 55.1568L20.2713 54.9866L20.4875 54.5847L20.7606 54.3535L20.9229 54.0664L20.7485 53.1545L20.8551 52.8109L21.1787 52.1224L21.0077 51.5531L20.3422 51.103L19.5672 50.7111L19.1232 50.373L19.1215 50.2017L19.2276 49.8009L19.2253 49.5726L19.0004 49.118L18.9436 48.9473L18.9413 48.7189L18.9946 48.5471L18.9929 48.3758L18.768 47.9212L18.6532 47.4656L18.6509 47.2372L18.2046 46.6707L18.0916 46.3863L18.2539 46.0992L18.6371 45.8669L18.9113 45.75L19.1867 45.7472L19.5727 45.8004L19.9577 45.7394L20.8365 45.5021L21.2225 45.5553L22.3854 46.1717L22.8265 46.2244L23.2108 46.1063L24.0879 45.6977L24.4161 45.466L24.6868 45.0065L24.6828 44.6068L24.6225 44.0935L24.7275 43.5785L24.8898 43.2914L24.8869 43.0059L24.829 42.721L24.7704 42.379L24.8215 41.9788L24.8737 41.6927L25.4123 40.4882L25.5195 40.2016L25.5184 40.0874L25.5706 39.8014L25.453 39.0602L25.5051 38.7742L27.3631 37.3279L27.7475 37.2099L28.0246 37.3784L28.4726 38.1161L28.6958 38.3994L29.6922 38.9033L30.0255 39.1854L31.4677 40.1987ZM199.348 319.385L199.569 319.497L199.682 319.724L199.359 320.47L199.249 320.471L199.028 320.416L198.806 320.304L198.695 320.191L198.692 319.905L198.635 319.735L198.634 319.563L198.686 319.334L198.795 319.162L198.959 319.103L199.125 319.159L199.348 319.385ZM190.997 315.986L189.73 315.941L189.62 315.943L189.066 315.663L188.73 315.095L188.892 314.808L189.166 314.634L189.495 314.516L189.825 314.513L190.102 314.624L190.708 314.675L190.93 314.787L190.986 314.901L190.989 315.244L191.1 315.3L191.211 315.413L191.214 315.641L191.106 315.871L190.997 315.986ZM178.709 309.943L178.38 310.118L178.05 310.121L177.057 309.96L176.78 309.848L176.725 309.849L176.503 309.68L175.948 309.228L175.781 309.059L175.836 309.001L176.055 308.885L176.22 308.883L177.656 309.325L178.924 309.427L179.311 309.594L179.534 309.82L179.7 309.933L179.481 309.992L178.819 309.942L178.709 309.943ZM229.697 308.743L229.747 308.229L229.964 307.884L230.402 307.651L231.063 307.587L231.179 308.214L230.688 308.676L230.03 308.911L229.697 308.743ZM227.847 305.45L228.178 305.504L228.62 305.671L228.898 305.896L229.008 305.952L229.122 306.294L228.575 306.642L227.531 306.938L227.149 307.284L226.772 308.145L226.556 308.489L225.847 309.239L225.74 309.525L225.576 309.698L224.919 310.048L224.755 310.221L224.591 310.336L223.774 311.201L223.281 311.492L222.894 311.324L222.505 310.929L222.06 310.59L220.91 311.23L220.583 311.519L220.254 311.694L219.869 311.697L219.096 311.591L218.767 311.651L218.383 311.827L217.454 312.521L216.521 312.93L215.975 313.393L215.702 313.567L214.657 313.691L213.888 313.928L213.56 314.159L213.395 314.218L213.23 314.22L213.064 314.164L212.899 314.166L212.846 314.338L212.792 314.453L212.628 314.568L212.408 314.628L212.243 314.629L212.131 314.516L212.019 314.289L211.959 313.776L212.065 313.432L212.118 313.203L212.007 313.09L211.835 312.464L211.998 312.234L212.827 312.511L212.991 312.395L213.102 312.451L213.157 312.45L214.033 311.928L216.283 311.163L216.613 311.102L216.832 310.986L216.887 310.985L217.653 310.464L217.981 310.175L219.077 309.707L219.243 309.705L219.574 309.759L219.739 309.757L219.848 309.699L220.012 309.526L220.177 309.467L220.064 309.24L220.337 308.952L220.388 308.609L220.324 307.753L220.211 307.411L219.933 307.129L219.655 306.903L219.543 306.733L219.981 306.443L222.358 307.333L223.017 307.155L224.822 305.937L227.075 305.401L227.847 305.45ZM232.232 303.35L232.398 303.463L232.619 303.518L232.785 303.63L232.786 303.687L232.843 303.915L232.79 304.144L232.627 304.317L232.408 304.433L232.133 304.493L231.58 304.27L231.63 303.756L231.956 303.296L232.232 303.35ZM127.106 261.185L127.439 261.353L127.605 261.466L127.553 261.809L127.612 262.151L127.505 262.438L127.339 262.439L127.118 262.327L126.948 261.872L126.834 261.474L126.722 261.246L126.941 261.13L127.106 261.185ZM199.754 326.918L199.866 327.088L199.925 327.43L199.761 327.546L199.54 327.491L199.263 327.38L199.206 327.152L199.425 327.035L199.754 326.918ZM222.514 311.899L222.627 312.126L222.686 312.583L222.47 312.985L222.142 313.216L221.865 313.048L221.915 312.59L222.131 312.131L222.404 311.9L222.514 311.899ZM184.184 312.115L184.405 312.227L184.518 312.511L184.3 312.742L184.024 312.687L183.747 312.519L183.579 312.292L183.687 312.062L184.018 312.059L184.184 312.115ZM208.298 327.631L208.3 327.802L208.357 328.03L208.248 328.146L208.083 328.147L207.974 328.205L207.807 328.036L207.752 328.093L207.751 327.979L207.695 327.866L207.638 327.695L207.857 327.579L208.132 327.519L208.298 327.631Z" fill="white"/>
<path d="M159.004 124.56H159.756L157.604 119.04H156.788L154.628 124.56H155.364L155.892 123.16H158.476L159.004 124.56ZM156.14 122.504L157.188 119.72L158.236 122.504H156.14Z" fill="black"/>
<path d="M164.828 120.464C164.276 120.464 163.804 120.696 163.516 121.144C163.284 120.712 162.852 120.464 162.292 120.464C161.764 120.464 161.324 120.704 161.076 121.072V120.56H160.396V124.56H161.1V122.216C161.1 121.56 161.54 121.104 162.156 121.104C162.724 121.104 162.98 121.512 162.98 122.096V124.56H163.692V122.144C163.708 121.56 164.108 121.104 164.676 121.104C165.276 121.104 165.54 121.512 165.54 122.096V124.56H166.252V121.952C166.252 121.024 165.708 120.464 164.828 120.464Z" fill="black"/>
<path d="M169.022 124.648C170.182 124.648 170.982 123.792 170.982 122.552C170.982 121.312 170.182 120.464 169.022 120.464C167.862 120.464 167.054 121.312 167.054 122.552C167.054 123.792 167.862 124.648 169.022 124.648ZM167.742 122.552C167.742 121.656 168.254 121.064 169.022 121.064C169.79 121.064 170.294 121.656 170.294 122.552C170.294 123.456 169.79 124.048 169.022 124.048C168.254 124.048 167.742 123.456 167.742 122.552Z" fill="black"/>
<path d="M171.818 119.04V124.56H172.522V119.04H171.818Z" fill="black"/>
<path d="M109.573 169.271H110.325L108.173 163.751H107.357L105.197 169.271H105.933L106.461 167.871H109.045L109.573 169.271ZM106.709 167.215L107.757 164.431L108.805 167.215H106.709Z" fill="black"/>
<path d="M112.805 165.215C112.261 165.215 111.861 165.439 111.645 165.823V165.271H110.965V169.271H111.669V166.911C111.669 166.287 112.069 165.895 112.797 165.895H112.973V165.215H112.805Z" fill="black"/>
<path d="M114.775 168.775C114.311 168.775 114.023 168.527 114.023 168.135C114.023 167.671 114.399 167.423 115.103 167.423H116.047V167.599C115.975 168.319 115.471 168.775 114.775 168.775ZM113.327 168.151C113.327 168.911 113.839 169.351 114.719 169.351C115.295 169.351 115.791 169.095 116.071 168.655V169.271H116.743V166.703C116.743 165.687 116.207 165.159 115.159 165.159C114.207 165.159 113.567 165.623 113.487 166.383H114.183C114.255 165.975 114.607 165.743 115.159 165.743C115.767 165.743 116.047 166.047 116.047 166.695V166.879H115.167C113.975 166.879 113.327 167.327 113.327 168.151Z" fill="black"/>
<path d="M120.513 169.271H121.329L119.665 166.887L121.241 165.271H120.417L118.513 167.223V163.751H117.809V169.271H118.513V168.071L119.201 167.367L120.513 169.271Z" fill="black"/>
<path d="M120.532 273.158C121.044 272.95 121.268 272.478 121.268 272.03C121.268 271.206 120.62 270.598 119.596 270.598H117.42V276.118H119.652C120.796 276.118 121.556 275.494 121.556 274.502C121.556 273.91 121.212 273.342 120.532 273.158ZM118.156 275.454V273.574H119.636C120.396 273.574 120.788 273.878 120.788 274.502C120.788 275.118 120.364 275.47 119.58 275.462L118.156 275.454ZM118.156 272.934V271.262L119.524 271.254C120.196 271.254 120.524 271.558 120.524 272.07C120.524 272.574 120.228 272.934 119.532 272.934H118.156Z" fill="black"/>
<path d="M125.044 272.118V274.438C125.044 275.134 124.62 275.59 123.988 275.59C123.372 275.59 123.02 275.222 123.02 274.574V272.118H122.316V274.686C122.316 275.614 122.916 276.214 123.82 276.214C124.396 276.214 124.828 275.974 125.068 275.59V276.118H125.748V272.118H125.044Z" fill="black"/>
<path d="M129.12 275.046C129.12 275.43 128.816 275.646 128.256 275.646C127.648 275.646 127.32 275.43 127.232 274.958H126.528C126.632 275.798 127.232 276.23 128.232 276.23C129.232 276.23 129.8 275.766 129.8 274.998C129.8 274.382 129.448 274.014 128.648 273.862L128.104 273.758C127.64 273.67 127.344 273.542 127.344 273.166C127.344 272.798 127.672 272.59 128.192 272.59C128.712 272.59 129 272.798 129.064 273.23H129.76C129.688 272.358 129.016 272.006 128.192 272.006C127.272 272.006 126.664 272.454 126.664 273.19C126.664 273.798 127.032 274.182 127.856 274.342L128.472 274.462C128.976 274.558 129.12 274.742 129.12 275.046Z" fill="black"/>
<path d="M130.629 270.598V276.118H131.333V273.782C131.333 273.11 131.781 272.662 132.437 272.662C133.045 272.662 133.349 273.086 133.349 273.662V276.118H134.053V273.51C134.053 272.582 133.445 272.022 132.573 272.022C132.013 272.022 131.581 272.246 131.333 272.598V270.598H130.629Z" fill="black"/>
<path d="M135.546 274.302H138.618V274.022C138.618 272.814 137.898 272.022 136.794 272.022C135.65 272.022 134.85 272.878 134.85 274.11C134.85 275.374 135.626 276.206 136.794 276.206C137.682 276.206 138.314 275.774 138.538 275.006H137.85C137.658 275.414 137.306 275.614 136.794 275.614C136.082 275.614 135.61 275.126 135.546 274.302ZM135.562 273.742C135.682 273.038 136.154 272.606 136.794 272.606C137.45 272.606 137.858 273.014 137.914 273.742H135.562Z" fill="black"/>
<path d="M139.473 270.598V276.118H140.177V273.782C140.177 273.11 140.625 272.662 141.281 272.662C141.889 272.662 142.193 273.086 142.193 273.662V276.118H142.897V273.51C142.897 272.582 142.289 272.022 141.417 272.022C140.857 272.022 140.425 272.246 140.177 272.598V270.598H139.473Z" fill="black"/>
<path d="M145.797 272.062C145.253 272.062 144.853 272.286 144.637 272.67V272.118H143.957V276.118H144.661V273.758C144.661 273.134 145.061 272.742 145.789 272.742H145.965V272.062H145.797Z" fill="black"/>
<path d="M143.616 185.778V191.298H144.344V185.778H143.616Z" fill="black"/>
<path d="M147.816 190.226C147.816 190.61 147.512 190.826 146.952 190.826C146.344 190.826 146.016 190.61 145.928 190.138H145.224C145.328 190.978 145.928 191.41 146.928 191.41C147.928 191.41 148.496 190.946 148.496 190.178C148.496 189.562 148.144 189.194 147.344 189.042L146.8 188.938C146.336 188.85 146.04 188.722 146.04 188.346C146.04 187.978 146.368 187.77 146.888 187.77C147.408 187.77 147.696 187.978 147.76 188.41H148.456C148.384 187.538 147.712 187.186 146.888 187.186C145.968 187.186 145.36 187.634 145.36 188.37C145.36 188.978 145.728 189.362 146.552 189.522L147.168 189.642C147.672 189.738 147.816 189.922 147.816 190.226Z" fill="black"/>
<path d="M151.206 187.298H150.278V186.97C150.278 186.474 150.454 186.346 150.966 186.346H151.206V185.738C151.086 185.722 150.966 185.714 150.846 185.714C150.062 185.714 149.574 186.058 149.574 186.882V187.298H148.91V187.914H149.574V191.298H150.278V187.914H151.206V187.298Z" fill="black"/>
<path d="M153.041 190.802C152.577 190.802 152.289 190.554 152.289 190.162C152.289 189.698 152.665 189.45 153.369 189.45H154.313V189.626C154.241 190.346 153.737 190.802 153.041 190.802ZM151.593 190.178C151.593 190.938 152.105 191.378 152.985 191.378C153.561 191.378 154.057 191.122 154.337 190.682V191.298H155.009V188.73C155.009 187.714 154.473 187.186 153.425 187.186C152.473 187.186 151.833 187.65 151.753 188.41H152.449C152.521 188.002 152.873 187.77 153.425 187.77C154.033 187.77 154.313 188.074 154.313 188.722V188.906H153.433C152.241 188.906 151.593 189.354 151.593 190.178Z" fill="black"/>
<path d="M156.075 185.778V191.298H156.779V188.962C156.779 188.29 157.227 187.842 157.883 187.842C158.491 187.842 158.795 188.266 158.795 188.842V191.298H159.499V188.69C159.499 187.762 158.891 187.202 158.019 187.202C157.459 187.202 157.027 187.426 156.779 187.778V185.778H156.075Z" fill="black"/>
<path d="M161.783 190.802C161.319 190.802 161.031 190.554 161.031 190.162C161.031 189.698 161.407 189.45 162.111 189.45H163.055V189.626C162.983 190.346 162.479 190.802 161.783 190.802ZM160.335 190.178C160.335 190.938 160.847 191.378 161.727 191.378C162.303 191.378 162.799 191.122 163.079 190.682V191.298H163.751V188.73C163.751 187.714 163.215 187.186 162.167 187.186C161.215 187.186 160.575 187.65 160.495 188.41H161.191C161.263 188.002 161.615 187.77 162.167 187.77C162.775 187.77 163.055 188.074 163.055 188.722V188.906H162.175C160.983 188.906 160.335 189.354 160.335 190.178Z" fill="black"/>
<path d="M166.761 187.202C166.185 187.202 165.745 187.442 165.497 187.81V187.298H164.817V191.298H165.521V188.962C165.521 188.29 165.969 187.842 166.625 187.842C167.233 187.842 167.537 188.266 167.537 188.842V191.298H168.241V188.69C168.241 187.762 167.633 187.202 166.761 187.202Z" fill="black"/>
<path d="M115.973 213.394V218.914H116.701V213.394H115.973Z" fill="black"/>
<path d="M118.381 218.298L120.637 215.514V214.914H117.605V215.53H119.853L117.581 218.314V218.914H120.653V218.298H118.381Z" fill="black"/>
<path d="M121.794 217.098H124.866V216.818C124.866 215.61 124.146 214.818 123.042 214.818C121.898 214.818 121.098 215.674 121.098 216.906C121.098 218.17 121.874 219.002 123.042 219.002C123.93 219.002 124.562 218.57 124.786 217.802H124.098C123.906 218.21 123.554 218.41 123.042 218.41C122.33 218.41 121.858 217.922 121.794 217.098ZM121.81 216.538C121.93 215.834 122.402 215.402 123.042 215.402C123.698 215.402 124.106 215.81 124.162 216.538H121.81Z" fill="black"/>
<path d="M125.721 213.394V218.914H126.425V216.578C126.425 215.906 126.873 215.458 127.529 215.458C128.137 215.458 128.441 215.882 128.441 216.458V218.914H129.145V216.306C129.145 215.378 128.537 214.818 127.665 214.818C127.105 214.818 126.673 215.042 126.425 215.394V213.394H125.721Z" fill="black"/>
<path d="M53.5635 147.244H54.4355L52.3475 143.948L54.2915 141.724H53.4195L50.8515 144.7V141.724H50.1235V147.244H50.8515V145.676L51.8755 144.492L53.5635 147.244Z" fill="black"/>
<path d="M56.2915 146.748C55.8275 146.748 55.5395 146.5 55.5395 146.108C55.5395 145.644 55.9155 145.396 56.6195 145.396H57.5635V145.572C57.4915 146.292 56.9875 146.748 56.2915 146.748ZM54.8435 146.124C54.8435 146.884 55.3555 147.324 56.2355 147.324C56.8115 147.324 57.3075 147.068 57.5875 146.628V147.244H58.2595V144.676C58.2595 143.66 57.7235 143.132 56.6755 143.132C55.7235 143.132 55.0835 143.596 55.0035 144.356H55.6995C55.7715 143.948 56.1235 143.716 56.6755 143.716C57.2835 143.716 57.5635 144.02 57.5635 144.668V144.852H56.6835C55.4915 144.852 54.8435 145.3 54.8435 146.124Z" fill="black"/>
<path d="M63.7574 143.148C63.2054 143.148 62.7334 143.38 62.4454 143.828C62.2134 143.396 61.7814 143.148 61.2214 143.148C60.6934 143.148 60.2534 143.388 60.0054 143.756V143.244H59.3254V147.244H60.0294V144.9C60.0294 144.244 60.4693 143.788 61.0854 143.788C61.6534 143.788 61.9094 144.196 61.9094 144.78V147.244H62.6214V144.828C62.6374 144.244 63.0374 143.788 63.6054 143.788C64.2054 143.788 64.4694 144.196 64.4694 144.78V147.244H65.1814V144.636C65.1814 143.708 64.6374 143.148 63.7574 143.148Z" fill="black"/>
<path d="M68.8285 143.244L67.6045 146.364L66.3645 143.244H65.5645L67.2765 147.212L67.1565 147.516C66.9725 147.988 66.7565 148.172 66.2925 148.172H66.0765V148.788H66.2525C67.1165 148.788 67.4365 148.54 67.7805 147.692L69.5885 143.244H68.8285Z" fill="black"/>
<path d="M71.19 146.748C70.726 146.748 70.438 146.5 70.438 146.108C70.438 145.644 70.814 145.396 71.518 145.396H72.462V145.572C72.39 146.292 71.886 146.748 71.19 146.748ZM69.742 146.124C69.742 146.884 70.254 147.324 71.134 147.324C71.71 147.324 72.206 147.068 72.486 146.628V147.244H73.158V144.676C73.158 143.66 72.622 143.132 71.574 143.132C70.622 143.132 69.982 143.596 69.902 144.356H70.598C70.67 143.948 71.022 143.716 71.574 143.716C72.182 143.716 72.462 144.02 72.462 144.668V144.852H71.582C70.39 144.852 69.742 145.3 69.742 146.124Z" fill="black"/>
<path d="M76.0638 143.188C75.5198 143.188 75.1198 143.412 74.9038 143.796V143.244H74.2238V147.244H74.9278V144.884C74.9278 144.26 75.3278 143.868 76.0558 143.868H76.2318V143.188H76.0638Z" fill="black"/>
<path d="M78.0337 146.748C77.5697 146.748 77.2817 146.5 77.2817 146.108C77.2817 145.644 77.6577 145.396 78.3617 145.396H79.3057V145.572C79.2337 146.292 78.7297 146.748 78.0337 146.748ZM76.5857 146.124C76.5857 146.884 77.0977 147.324 77.9777 147.324C78.5537 147.324 79.0497 147.068 79.3297 146.628V147.244H80.0017V144.676C80.0017 143.66 79.4657 143.132 78.4177 143.132C77.4657 143.132 76.8257 143.596 76.7457 144.356H77.4417C77.5137 143.948 77.8657 143.716 78.4177 143.716C79.0257 143.716 79.3057 144.02 79.3057 144.668V144.852H78.4257C77.2337 144.852 76.5857 145.3 76.5857 146.124Z" fill="black"/>
<path d="M83.0115 143.148C82.4355 143.148 81.9955 143.388 81.7475 143.756V143.244H81.0675V147.244H81.7715V144.908C81.7715 144.236 82.2195 143.788 82.8755 143.788C83.4835 143.788 83.7875 144.212 83.7875 144.788V147.244H84.4915V144.636C84.4915 143.708 83.8835 143.148 83.0115 143.148Z" fill="black"/>
<path d="M231.979 248.502H232.851L230.763 245.206L232.707 242.982H231.835L229.267 245.958V242.982H228.539V248.502H229.267V246.934L230.291 245.75L231.979 248.502Z" fill="black"/>
<path d="M233.845 246.686H236.917V246.406C236.917 245.198 236.197 244.406 235.093 244.406C233.949 244.406 233.149 245.262 233.149 246.494C233.149 247.758 233.925 248.59 235.093 248.59C235.981 248.59 236.613 248.158 236.837 247.39H236.149C235.957 247.798 235.605 247.998 235.093 247.998C234.381 247.998 233.909 247.51 233.845 246.686ZM233.861 246.126C233.981 245.422 234.453 244.99 235.093 244.99C235.749 244.99 236.157 245.398 236.213 246.126H233.861Z" fill="black"/>
<path d="M239.612 244.446C239.068 244.446 238.668 244.67 238.452 245.054V244.502H237.772V248.502H238.476V246.142C238.476 245.518 238.876 245.126 239.604 245.126H239.78V244.446H239.612Z" fill="black"/>
<path d="M245.048 244.406C244.496 244.406 244.024 244.638 243.736 245.086C243.504 244.654 243.072 244.406 242.512 244.406C241.984 244.406 241.544 244.646 241.296 245.014V244.502H240.616V248.502H241.32V246.158C241.32 245.502 241.76 245.046 242.376 245.046C242.944 245.046 243.2 245.454 243.2 246.038V248.502H243.912V246.086C243.928 245.502 244.328 245.046 244.896 245.046C245.496 245.046 245.76 245.454 245.76 246.038V248.502H246.472V245.894C246.472 244.966 245.928 244.406 245.048 244.406Z" fill="black"/>
<path d="M248.762 248.006C248.298 248.006 248.01 247.758 248.01 247.366C248.01 246.902 248.386 246.654 249.09 246.654H250.034V246.83C249.962 247.55 249.458 248.006 248.762 248.006ZM247.314 247.382C247.314 248.142 247.826 248.582 248.706 248.582C249.282 248.582 249.778 248.326 250.058 247.886V248.502H250.73V245.934C250.73 244.918 250.194 244.39 249.146 244.39C248.194 244.39 247.554 244.854 247.474 245.614H248.17C248.242 245.206 248.594 244.974 249.146 244.974C249.754 244.974 250.034 245.278 250.034 245.926V246.11H249.154C247.962 246.11 247.314 246.558 247.314 247.382Z" fill="black"/>
<path d="M253.739 244.406C253.163 244.406 252.723 244.646 252.475 245.014V244.502H251.795V248.502H252.499V246.166C252.499 245.494 252.947 245.046 253.603 245.046C254.211 245.046 254.515 245.47 254.515 246.046V248.502H255.219V245.894C255.219 244.966 254.611 244.406 253.739 244.406Z" fill="black"/>
<path d="M48.238 160.724H49.11L47.022 157.428L48.966 155.204H48.094L45.526 158.18V155.204H44.798V160.724H45.526V159.156L46.55 157.972L48.238 160.724Z" fill="black"/>
<path d="M50.1037 158.908H53.1757V158.628C53.1757 157.42 52.4557 156.628 51.3517 156.628C50.2077 156.628 49.4077 157.484 49.4077 158.716C49.4077 159.98 50.1837 160.812 51.3517 160.812C52.2397 160.812 52.8717 160.38 53.0957 159.612H52.4077C52.2157 160.02 51.8637 160.22 51.3517 160.22C50.6397 160.22 50.1677 159.732 50.1037 158.908ZM50.1197 158.348C50.2397 157.644 50.7117 157.212 51.3517 157.212C52.0077 157.212 52.4157 157.62 52.4717 158.348H50.1197Z" fill="black"/>
<path d="M55.8711 156.668C55.3271 156.668 54.9271 156.892 54.7111 157.276V156.724H54.0311V160.724H54.7351V158.364C54.7351 157.74 55.1351 157.348 55.8631 157.348H56.0391V156.668H55.8711Z" fill="black"/>
<path d="M61.3068 156.628C60.7548 156.628 60.2828 156.86 59.9948 157.308C59.7628 156.876 59.3308 156.628 58.7708 156.628C58.2428 156.628 57.8028 156.868 57.5548 157.236V156.724H56.8748V160.724H57.5788V158.38C57.5788 157.724 58.0188 157.268 58.6348 157.268C59.2028 157.268 59.4588 157.676 59.4588 158.26V160.724H60.1708V158.308C60.1868 157.724 60.5868 157.268 61.1548 157.268C61.7548 157.268 62.0188 157.676 62.0188 158.26V160.724H62.7308V158.116C62.7308 157.188 62.1868 156.628 61.3068 156.628Z" fill="black"/>
<path d="M65.0207 160.228C64.5567 160.228 64.2687 159.98 64.2687 159.588C64.2687 159.124 64.6447 158.876 65.3487 158.876H66.2927V159.052C66.2207 159.772 65.7167 160.228 65.0207 160.228ZM63.5727 159.604C63.5727 160.364 64.0847 160.804 64.9647 160.804C65.5407 160.804 66.0367 160.548 66.3167 160.108V160.724H66.9887V158.156C66.9887 157.14 66.4527 156.612 65.4047 156.612C64.4527 156.612 63.8127 157.076 63.7327 157.836H64.4287C64.5007 157.428 64.8527 157.196 65.4047 157.196C66.0127 157.196 66.2927 157.5 66.2927 158.148V158.332H65.4127C64.2207 158.332 63.5727 158.78 63.5727 159.604Z" fill="black"/>
<path d="M69.9985 156.628C69.4225 156.628 68.9825 156.868 68.7345 157.236V156.724H68.0545V160.724H68.7585V158.388C68.7585 157.716 69.2065 157.268 69.8625 157.268C70.4705 157.268 70.7745 157.692 70.7745 158.268V160.724H71.4785V158.116C71.4785 157.188 70.8705 156.628 69.9985 156.628Z" fill="black"/>
<path d="M74.8269 159.652C74.8269 160.036 74.5229 160.252 73.9629 160.252C73.3549 160.252 73.0269 160.036 72.9389 159.564H72.2349C72.3389 160.404 72.9389 160.836 73.9389 160.836C74.9389 160.836 75.5069 160.372 75.5069 159.604C75.5069 158.988 75.1549 158.62 74.3549 158.468L73.8109 158.364C73.3469 158.276 73.0509 158.148 73.0509 157.772C73.0509 157.404 73.3789 157.196 73.8989 157.196C74.4189 157.196 74.7069 157.404 74.7709 157.836H75.4669C75.3949 156.964 74.7229 156.612 73.8989 156.612C72.9789 156.612 72.3709 157.06 72.3709 157.796C72.3709 158.404 72.7389 158.788 73.5629 158.948L74.1789 159.068C74.6829 159.164 74.8269 159.348 74.8269 159.652Z" fill="black"/>
<path d="M76.3357 155.204V160.724H77.0397V158.388C77.0397 157.716 77.4877 157.268 78.1437 157.268C78.7517 157.268 79.0557 157.692 79.0557 158.268V160.724H79.7598V158.116C79.7598 157.188 79.1517 156.628 78.2797 156.628C77.7197 156.628 77.2877 156.852 77.0397 157.204V155.204H76.3357Z" fill="black"/>
<path d="M82.0441 160.228C81.5801 160.228 81.2921 159.98 81.2921 159.588C81.2921 159.124 81.6681 158.876 82.3721 158.876H83.3161V159.052C83.2441 159.772 82.7401 160.228 82.0441 160.228ZM80.5961 159.604C80.5961 160.364 81.1081 160.804 81.9881 160.804C82.5641 160.804 83.0601 160.548 83.3401 160.108V160.724H84.0121V158.156C84.0121 157.14 83.4761 156.612 82.4281 156.612C81.4761 156.612 80.8361 157.076 80.7561 157.836H81.4521C81.5241 157.428 81.8761 157.196 82.4281 157.196C83.0361 157.196 83.3161 157.5 83.3161 158.148V158.332H82.4361C81.2441 158.332 80.5961 158.78 80.5961 159.604Z" fill="black"/>
<path d="M85.0779 155.204V160.724H85.7819V158.388C85.7819 157.716 86.2299 157.268 86.8859 157.268C87.4939 157.268 87.7979 157.692 87.7979 158.268V160.724H88.5019V158.116C88.5019 157.188 87.8939 156.628 87.0219 156.628C86.4619 156.628 86.0299 156.852 85.7819 157.204V155.204H85.0779Z" fill="black"/>
<path d="M185.651 323.789H186.523L184.435 320.493L186.379 318.269H185.507L182.939 321.245V318.269H182.211V323.789H182.939V322.221L183.963 321.037L185.651 323.789Z" fill="black"/>
<path d="M187.296 319.789V323.789H188V319.789H187.296ZM187.16 318.637C187.16 318.909 187.368 319.109 187.648 319.109C187.928 319.109 188.136 318.909 188.136 318.637C188.136 318.365 187.928 318.165 187.648 318.165C187.368 318.165 187.16 318.365 187.16 318.637Z" fill="black"/>
<path d="M191.411 322.717C191.411 323.101 191.107 323.317 190.547 323.317C189.939 323.317 189.611 323.101 189.523 322.629H188.819C188.923 323.469 189.523 323.901 190.523 323.901C191.523 323.901 192.091 323.437 192.091 322.669C192.091 322.053 191.739 321.685 190.939 321.533L190.395 321.429C189.931 321.341 189.635 321.213 189.635 320.837C189.635 320.469 189.963 320.261 190.483 320.261C191.003 320.261 191.291 320.469 191.355 320.901H192.051C191.979 320.029 191.307 319.677 190.483 319.677C189.563 319.677 188.955 320.125 188.955 320.861C188.955 321.469 189.323 321.853 190.147 322.013L190.763 322.133C191.267 322.229 191.411 322.413 191.411 322.717Z" fill="black"/>
<path d="M192.92 318.269V323.789H193.624V321.453C193.624 320.781 194.072 320.333 194.728 320.333C195.336 320.333 195.64 320.757 195.64 321.333V323.789H196.344V321.181C196.344 320.253 195.736 319.693 194.864 319.693C194.304 319.693 193.872 319.917 193.624 320.269V318.269H192.92Z" fill="black"/>
<path d="M37.3301 106.547H36.2741L34.6261 111.139L32.9781 106.547H31.9301V112.067H32.6341V107.411L34.3141 112.067H34.9381L36.6181 107.411V112.067H37.3301V106.547Z" fill="black"/>
<path d="M39.6996 111.571C39.2356 111.571 38.9476 111.323 38.9476 110.931C38.9476 110.467 39.3236 110.219 40.0276 110.219H40.9716V110.395C40.8996 111.115 40.3956 111.571 39.6996 111.571ZM38.2516 110.947C38.2516 111.707 38.7636 112.147 39.6437 112.147C40.2197 112.147 40.7156 111.891 40.9956 111.451V112.067H41.6676V109.499C41.6676 108.483 41.1316 107.955 40.0836 107.955C39.1316 107.955 38.4916 108.419 38.4116 109.179H39.1076C39.1796 108.771 39.5316 108.539 40.0836 108.539C40.6916 108.539 40.9716 108.843 40.9716 109.491V109.675H40.0916C38.8996 109.675 38.2516 110.123 38.2516 110.947Z" fill="black"/>
<path d="M42.7335 106.547V112.067H43.4375V109.731C43.4375 109.059 43.8855 108.611 44.5415 108.611C45.1495 108.611 45.4535 109.035 45.4535 109.611V112.067H46.1575V109.459C46.1575 108.531 45.5495 107.971 44.6775 107.971C44.1175 107.971 43.6855 108.195 43.4375 108.547V106.547H42.7335Z" fill="black"/>
<path d="M48.4418 111.571C47.9778 111.571 47.6898 111.323 47.6898 110.931C47.6898 110.467 48.0658 110.219 48.7698 110.219H49.7138V110.395C49.6418 111.115 49.1378 111.571 48.4418 111.571ZM46.9938 110.947C46.9938 111.707 47.5058 112.147 48.3858 112.147C48.9618 112.147 49.4578 111.891 49.7378 111.451V112.067H50.4098V109.499C50.4098 108.483 49.8738 107.955 48.8258 107.955C47.8738 107.955 47.2338 108.419 47.1538 109.179H47.8498C47.9218 108.771 48.2738 108.539 48.8258 108.539C49.4338 108.539 49.7138 108.843 49.7138 109.491V109.675H48.8338C47.6418 109.675 46.9938 110.123 46.9938 110.947Z" fill="black"/>
<path d="M53.5396 107.971C52.9636 107.971 52.4596 108.211 52.1796 108.643V106.547H51.4756V112.067H52.1796V111.491C52.4516 111.915 52.9797 112.163 53.5396 112.163C54.6597 112.163 55.4277 111.347 55.4277 110.059C55.4277 108.779 54.6597 107.971 53.5396 107.971ZM52.1556 110.083V110.035C52.1556 109.139 52.6996 108.571 53.4356 108.571C54.1876 108.571 54.7156 109.155 54.7156 110.059C54.7156 110.963 54.1876 111.563 53.4356 111.563C52.6996 111.563 52.1556 110.995 52.1556 110.083Z" fill="black"/>
<path d="M57.4731 111.571C57.0091 111.571 56.7211 111.323 56.7211 110.931C56.7211 110.467 57.0971 110.219 57.8011 110.219H58.7451V110.395C58.6731 111.115 58.1691 111.571 57.4731 111.571ZM56.0251 110.947C56.0251 111.707 56.5371 112.147 57.4171 112.147C57.9931 112.147 58.4891 111.891 58.7691 111.451V112.067H59.4411V109.499C59.4411 108.483 58.9051 107.955 57.8571 107.955C56.9051 107.955 56.2651 108.419 56.1851 109.179H56.8811C56.9531 108.771 57.3051 108.539 57.8571 108.539C58.4651 108.539 58.7451 108.843 58.7451 109.491V109.675H57.8651C56.6731 109.675 56.0251 110.123 56.0251 110.947Z" fill="black"/>
<path d="M62.1309 107.971C61.0109 107.971 60.2429 108.779 60.2429 110.059C60.2429 111.347 61.0109 112.163 62.1309 112.163C62.6909 112.163 63.2189 111.915 63.4909 111.491V112.067H64.1949V106.547H63.4909V108.643C63.2109 108.211 62.7069 107.971 62.1309 107.971ZM60.9549 110.059C60.9549 109.155 61.4829 108.571 62.2349 108.571C62.9709 108.571 63.5149 109.139 63.5149 110.035V110.083C63.5149 110.995 62.9709 111.563 62.2349 111.563C61.4829 111.563 60.9549 110.963 60.9549 110.059Z" fill="black"/>
<path d="M274.237 114.109H273.181L271.533 118.701L269.885 114.109H268.837V119.629H269.541V114.973L271.221 119.629H271.845L273.525 114.973V119.629H274.237V114.109Z" fill="black"/>
<path d="M276.607 119.133C276.143 119.133 275.855 118.885 275.855 118.493C275.855 118.029 276.231 117.781 276.935 117.781H277.879V117.957C277.807 118.677 277.303 119.133 276.607 119.133ZM275.159 118.509C275.159 119.269 275.671 119.709 276.551 119.709C277.127 119.709 277.623 119.453 277.903 119.013V119.629H278.575V117.061C278.575 116.045 278.039 115.517 276.991 115.517C276.039 115.517 275.399 115.981 275.319 116.741H276.015C276.087 116.333 276.439 116.101 276.991 116.101C277.599 116.101 277.879 116.405 277.879 117.053V117.237H276.999C275.807 117.237 275.159 117.685 275.159 118.509Z" fill="black"/>
<path d="M281.929 118.557C281.929 118.941 281.625 119.157 281.065 119.157C280.457 119.157 280.129 118.941 280.041 118.469H279.337C279.441 119.309 280.041 119.741 281.041 119.741C282.041 119.741 282.609 119.277 282.609 118.509C282.609 117.893 282.257 117.525 281.457 117.373L280.913 117.269C280.449 117.181 280.153 117.053 280.153 116.677C280.153 116.309 280.481 116.101 281.001 116.101C281.521 116.101 281.809 116.309 281.873 116.741H282.569C282.497 115.869 281.825 115.517 281.001 115.517C280.081 115.517 279.473 115.965 279.473 116.701C279.473 117.309 279.841 117.693 280.665 117.853L281.281 117.973C281.785 118.069 281.929 118.253 281.929 118.557Z" fill="black"/>
<path d="M283.437 114.109V119.629H284.141V117.293C284.141 116.621 284.589 116.173 285.245 116.173C285.853 116.173 286.157 116.597 286.157 117.173V119.629H286.861V117.021C286.861 116.093 286.253 115.533 285.381 115.533C284.821 115.533 284.389 115.757 284.141 116.109V114.109H283.437Z" fill="black"/>
<path d="M289.146 119.133C288.682 119.133 288.394 118.885 288.394 118.493C288.394 118.029 288.77 117.781 289.474 117.781H290.418V117.957C290.346 118.677 289.842 119.133 289.146 119.133ZM287.698 118.509C287.698 119.269 288.21 119.709 289.09 119.709C289.666 119.709 290.162 119.453 290.442 119.013V119.629H291.114V117.061C291.114 116.045 290.578 115.517 289.53 115.517C288.578 115.517 287.938 115.981 287.858 116.741H288.554C288.626 116.333 288.978 116.101 289.53 116.101C290.138 116.101 290.418 116.405 290.418 117.053V117.237H289.538C288.346 117.237 287.698 117.685 287.698 118.509Z" fill="black"/>
<path d="M293.804 115.533C292.684 115.533 291.916 116.341 291.916 117.621C291.916 118.909 292.684 119.725 293.804 119.725C294.364 119.725 294.892 119.477 295.164 119.053V119.629H295.868V114.109H295.164V116.205C294.884 115.773 294.38 115.533 293.804 115.533ZM292.628 117.621C292.628 116.717 293.156 116.133 293.908 116.133C294.644 116.133 295.188 116.701 295.188 117.597V117.645C295.188 118.557 294.644 119.125 293.908 119.125C293.156 119.125 292.628 118.525 292.628 117.621Z" fill="black"/>
<path d="M107.838 120.767L108.302 120.295L107.614 119.607C107.934 119.119 108.102 118.503 108.102 117.855C108.102 116.319 107.166 115.007 105.51 115.007C103.854 115.007 102.918 116.319 102.918 117.855C102.918 119.391 103.862 120.703 105.51 120.703C106.19 120.703 106.75 120.479 107.174 120.111L107.838 120.767ZM103.662 117.855C103.662 116.679 104.278 115.671 105.51 115.671C106.742 115.671 107.358 116.679 107.358 117.855C107.358 118.303 107.27 118.727 107.086 119.079L106.102 118.095L105.63 118.575L106.678 119.615C106.39 119.879 105.998 120.039 105.51 120.039C104.278 120.039 103.662 119.031 103.662 117.855Z" fill="black"/>
<path d="M110.287 120.119C109.823 120.119 109.535 119.871 109.535 119.479C109.535 119.015 109.911 118.767 110.615 118.767H111.559V118.943C111.487 119.663 110.983 120.119 110.287 120.119ZM108.839 119.495C108.839 120.255 109.351 120.695 110.231 120.695C110.807 120.695 111.303 120.439 111.583 119.999V120.615H112.255V118.047C112.255 117.031 111.719 116.503 110.671 116.503C109.719 116.503 109.079 116.967 108.999 117.727H109.695C109.767 117.319 110.119 117.087 110.671 117.087C111.279 117.087 111.559 117.391 111.559 118.039V118.223H110.679C109.487 118.223 108.839 118.671 108.839 119.495Z" fill="black"/>
<path d="M113.817 119.999L116.073 117.215V116.615H113.041V117.231H115.289L113.017 120.015V120.615H116.089V119.999H113.817Z" fill="black"/>
<path d="M119.868 116.615L118.548 119.959L117.22 116.615H116.452L118.14 120.615H118.932L120.62 116.615H119.868Z" fill="black"/>
<path d="M121.314 116.615V120.615H122.018V116.615H121.314ZM121.178 115.463C121.178 115.735 121.386 115.935 121.666 115.935C121.946 115.935 122.154 115.735 122.154 115.463C122.154 115.191 121.946 114.991 121.666 114.991C121.386 114.991 121.178 115.191 121.178 115.463Z" fill="black"/>
<path d="M125.085 116.519C124.509 116.519 124.069 116.759 123.821 117.127V116.615H123.141V120.615H123.845V118.279C123.845 117.607 124.293 117.159 124.949 117.159C125.557 117.159 125.861 117.583 125.861 118.159V120.615H126.565V118.007C126.565 117.079 125.957 116.519 125.085 116.519Z" fill="black"/>
<path d="M106.496 102.204L105.192 99.8842C105.896 99.6522 106.296 99.1082 106.296 98.3482C106.296 97.3082 105.552 96.6842 104.296 96.6842H102.336V102.204H103.064V100.02H104.464L105.672 102.204H106.496ZM103.064 99.3482V97.3642H104.28C105.136 97.3642 105.552 97.7002 105.552 98.3562C105.552 99.0122 105.136 99.3482 104.28 99.3482H103.064Z" fill="black"/>
<path d="M108.402 101.708C107.938 101.708 107.65 101.46 107.65 101.068C107.65 100.604 108.026 100.356 108.73 100.356H109.674V100.532C109.602 101.252 109.098 101.708 108.402 101.708ZM106.954 101.084C106.954 101.844 107.466 102.284 108.346 102.284C108.922 102.284 109.418 102.028 109.698 101.588V102.204H110.37V99.6362C110.37 98.6202 109.834 98.0922 108.786 98.0922C107.834 98.0922 107.194 98.5562 107.114 99.3162H107.81C107.882 98.9082 108.234 98.6762 108.786 98.6762C109.394 98.6762 109.674 98.9802 109.674 99.6282V99.8122H108.794C107.602 99.8122 106.954 100.26 106.954 101.084Z" fill="black"/>
<path d="M113.724 101.132C113.724 101.516 113.42 101.732 112.86 101.732C112.252 101.732 111.924 101.516 111.836 101.044H111.132C111.236 101.884 111.836 102.316 112.836 102.316C113.836 102.316 114.404 101.852 114.404 101.084C114.404 100.468 114.052 100.1 113.252 99.9482L112.708 99.8442C112.244 99.7562 111.948 99.6282 111.948 99.2522C111.948 98.8842 112.276 98.6762 112.796 98.6762C113.316 98.6762 113.604 98.8842 113.668 99.3162H114.364C114.292 98.4442 113.62 98.0922 112.796 98.0922C111.876 98.0922 111.268 98.5402 111.268 99.2762C111.268 99.8842 111.636 100.268 112.46 100.428L113.076 100.548C113.58 100.644 113.724 100.828 113.724 101.132Z" fill="black"/>
<path d="M115.233 96.6842V102.204H115.937V99.8682C115.937 99.1962 116.385 98.7482 117.041 98.7482C117.649 98.7482 117.953 99.1722 117.953 99.7482V102.204H118.657V99.5962C118.657 98.6682 118.049 98.1082 117.177 98.1082C116.617 98.1082 116.185 98.3322 115.937 98.6842V96.6842H115.233Z" fill="black"/>
<path d="M121.584 98.8202V98.2042H120.632V97.1562H119.928V98.2042H119.264V98.8202H119.928V101.092C119.928 101.916 120.408 102.22 121.16 102.22C121.328 102.22 121.472 102.212 121.56 102.204V101.588H121.304C120.808 101.588 120.632 101.452 120.632 100.948V98.8202H121.584Z" fill="black"/>
<path d="M177.434 114.524C177.434 115.124 177.002 115.46 176.218 115.46C175.362 115.46 174.858 115.116 174.722 114.444H173.986C174.138 115.508 174.946 116.108 176.218 116.108C177.418 116.108 178.146 115.5 178.146 114.492C178.146 113.676 177.666 113.172 176.674 112.964L175.882 112.796C175.162 112.644 174.89 112.412 174.89 111.932C174.89 111.372 175.338 111.044 176.122 111.044C176.826 111.044 177.258 111.364 177.346 111.972H178.074C177.978 110.98 177.25 110.396 176.122 110.396C174.962 110.396 174.162 111.036 174.162 111.964C174.162 112.764 174.666 113.252 175.722 113.468L176.49 113.628C177.178 113.772 177.434 114.02 177.434 114.524Z" fill="black"/>
<path d="M180.285 115.516C179.821 115.516 179.533 115.268 179.533 114.876C179.533 114.412 179.909 114.164 180.613 114.164H181.557V114.34C181.485 115.06 180.981 115.516 180.285 115.516ZM178.837 114.892C178.837 115.652 179.349 116.092 180.229 116.092C180.805 116.092 181.301 115.836 181.581 115.396V116.012H182.253V113.444C182.253 112.428 181.717 111.9 180.669 111.9C179.717 111.9 179.077 112.364 178.997 113.124H179.693C179.765 112.716 180.117 112.484 180.669 112.484C181.277 112.484 181.557 112.788 181.557 113.436V113.62H180.677C179.485 113.62 178.837 114.068 178.837 114.892Z" fill="black"/>
<path d="M185.159 111.956C184.615 111.956 184.215 112.18 183.999 112.564V112.012H183.319V116.012H184.023V113.652C184.023 113.028 184.423 112.636 185.151 112.636H185.327V111.956H185.159Z" fill="black"/>
<path d="M186.195 112.012V116.012H186.899V112.012H186.195ZM186.059 110.86C186.059 111.132 186.267 111.332 186.547 111.332C186.827 111.332 187.035 111.132 187.035 110.86C187.035 110.588 186.827 110.388 186.547 110.388C186.267 110.388 186.059 110.588 186.059 110.86Z" fill="black"/>
<path d="M153.761 260.822C153.761 261.422 153.329 261.758 152.545 261.758C151.689 261.758 151.185 261.414 151.049 260.742H150.313C150.465 261.806 151.273 262.406 152.545 262.406C153.745 262.406 154.473 261.798 154.473 260.79C154.473 259.974 153.993 259.47 153.001 259.262L152.209 259.094C151.489 258.942 151.217 258.71 151.217 258.23C151.217 257.67 151.665 257.342 152.449 257.342C153.153 257.342 153.585 257.662 153.673 258.27H154.401C154.305 257.278 153.577 256.694 152.449 256.694C151.289 256.694 150.489 257.334 150.489 258.262C150.489 259.062 150.993 259.55 152.049 259.766L152.817 259.926C153.505 260.07 153.761 260.318 153.761 260.822Z" fill="black"/>
<path d="M155.404 256.79V262.31H156.108V259.974C156.108 259.302 156.556 258.854 157.212 258.854C157.82 258.854 158.124 259.278 158.124 259.854V262.31H158.828V259.702C158.828 258.774 158.22 258.214 157.348 258.214C156.788 258.214 156.356 258.438 156.108 258.79V256.79H155.404Z" fill="black"/>
<path d="M159.921 258.31V262.31H160.625V258.31H159.921ZM159.785 257.158C159.785 257.43 159.993 257.63 160.273 257.63C160.553 257.63 160.761 257.43 160.761 257.158C160.761 256.886 160.553 256.686 160.273 256.686C159.993 256.686 159.785 256.886 159.785 257.158Z" fill="black"/>
<path d="M163.588 258.254C163.044 258.254 162.644 258.478 162.428 258.862V258.31H161.748V262.31H162.452V259.951C162.452 259.327 162.852 258.934 163.58 258.934H163.756V258.254H163.588Z" fill="black"/>
<path d="M165.558 261.814C165.094 261.814 164.806 261.566 164.806 261.174C164.806 260.71 165.182 260.462 165.886 260.462H166.83V260.638C166.758 261.358 166.254 261.814 165.558 261.814ZM164.11 261.19C164.11 261.95 164.622 262.39 165.502 262.39C166.078 262.39 166.574 262.134 166.854 261.694V262.31H167.526V259.742C167.526 258.726 166.99 258.198 165.942 258.198C164.99 258.198 164.35 258.662 164.27 259.422H164.966C165.038 259.014 165.39 258.782 165.942 258.782C166.55 258.782 166.83 259.086 166.83 259.734V259.918H165.95C164.758 259.918 164.11 260.366 164.11 261.19Z" fill="black"/>
<path d="M169.088 261.694L171.344 258.91V258.31H168.312V258.926H170.56L168.288 261.71V262.31H171.36V261.694H169.088Z" fill="black"/>
<path d="M31.7078 95.0676C33.1318 95.0676 33.9398 94.2116 33.9398 92.7796V89.4516H33.2118V92.8196C33.2118 93.7556 32.6918 94.3876 31.7078 94.3876C30.7238 94.3876 30.2038 93.7556 30.2038 92.8196V89.4516H29.4758V92.7796C29.4758 94.2116 30.2838 95.0676 31.7078 95.0676Z" fill="black"/>
<path d="M36.901 90.9156C36.357 90.9156 35.957 91.1396 35.741 91.5236V90.9716H35.061V94.9716H35.765V92.6116C35.765 91.9876 36.165 91.5956 36.893 91.5956H37.069V90.9156H36.901Z" fill="black"/>
<path d="M42.3368 90.8756C41.7848 90.8756 41.3128 91.1076 41.0248 91.5556C40.7928 91.1236 40.3608 90.8756 39.8008 90.8756C39.2728 90.8756 38.8328 91.1156 38.5848 91.4836V90.9716H37.9048V94.9716H38.6088V92.6276C38.6088 91.9716 39.0488 91.5156 39.6648 91.5156C40.2328 91.5156 40.4888 91.9236 40.4888 92.5076V94.9716H41.2008V92.5556C41.2168 91.9716 41.6168 91.5156 42.1848 91.5156C42.7848 91.5156 43.0488 91.9236 43.0488 92.5076V94.9716H43.7608V92.3636C43.7608 91.4356 43.2168 90.8756 42.3368 90.8756Z" fill="black"/>
<path d="M44.8587 90.9716V94.9716H45.5627V90.9716H44.8587ZM44.7227 89.8195C44.7227 90.0915 44.9307 90.2915 45.2107 90.2915C45.4907 90.2915 45.6987 90.0915 45.6987 89.8195C45.6987 89.5475 45.4907 89.3476 45.2107 89.3476C44.9307 89.3476 44.7227 89.5475 44.7227 89.8195Z" fill="black"/>
<path d="M47.91 94.4756C47.446 94.4756 47.158 94.2276 47.158 93.8356C47.158 93.3716 47.534 93.1236 48.238 93.1236H49.182V93.2996C49.11 94.0196 48.606 94.4756 47.91 94.4756ZM46.462 93.8516C46.462 94.6116 46.974 95.0516 47.854 95.0516C48.43 95.0516 48.926 94.7956 49.206 94.3556V94.9716H49.878V92.4036C49.878 91.3876 49.342 90.8596 48.294 90.8596C47.342 90.8596 46.702 91.3236 46.622 92.0836H47.318C47.39 91.6756 47.742 91.4436 48.294 91.4436C48.902 91.4436 49.182 91.7476 49.182 92.3956V92.5796H48.302C47.11 92.5796 46.462 93.0276 46.462 93.8516Z" fill="black"/>
<path d="M188.799 210.106L187.231 212.842L185.663 210.106H184.855L186.855 213.482V215.626H187.591V213.482L189.591 210.106H188.799Z" fill="black"/>
<path d="M190.847 215.13C190.383 215.13 190.095 214.882 190.095 214.49C190.095 214.026 190.471 213.778 191.175 213.778H192.119V213.954C192.047 214.674 191.543 215.13 190.847 215.13ZM189.399 214.506C189.399 215.266 189.911 215.706 190.791 215.706C191.367 215.706 191.863 215.45 192.143 215.01V215.626H192.815V213.058C192.815 212.042 192.279 211.514 191.231 211.514C190.279 211.514 189.639 211.978 189.559 212.738H190.255C190.327 212.33 190.679 212.098 191.231 212.098C191.839 212.098 192.119 212.402 192.119 213.05V213.234H191.239C190.047 213.234 189.399 213.682 189.399 214.506Z" fill="black"/>
<path d="M194.377 215.01L196.633 212.226V211.626H193.601V212.242H195.849L193.577 215.026V215.626H196.649V215.01H194.377Z" fill="black"/>
<path d="M198.982 211.53C197.862 211.53 197.094 212.338 197.094 213.618C197.094 214.906 197.862 215.722 198.982 215.722C199.542 215.722 200.07 215.474 200.342 215.05V215.626H201.046V210.106H200.342V212.202C200.062 211.77 199.558 211.53 198.982 211.53ZM197.806 213.618C197.806 212.714 198.334 212.13 199.086 212.13C199.822 212.13 200.366 212.698 200.366 213.594V213.642C200.366 214.554 199.822 215.122 199.086 215.122C198.334 215.122 197.806 214.522 197.806 213.618Z" fill="black"/>
<path d="M297.936 256.79H294.04V257.47H297.072L293.928 261.662V262.31H297.88V261.63H294.792L297.936 257.43V256.79Z" fill="black"/>
<path d="M299.946 261.814C299.482 261.814 299.194 261.566 299.194 261.174C299.194 260.71 299.57 260.462 300.274 260.462H301.218V260.638C301.146 261.358 300.642 261.814 299.946 261.814ZM298.498 261.19C298.498 261.95 299.01 262.39 299.89 262.39C300.466 262.39 300.962 262.134 301.242 261.694V262.31H301.914V259.742C301.914 258.726 301.378 258.198 300.33 258.198C299.378 258.198 298.738 258.662 298.658 259.422H299.354C299.426 259.014 299.778 258.782 300.33 258.782C300.938 258.782 301.218 259.086 301.218 259.734V259.918H300.338C299.146 259.918 298.498 260.366 298.498 261.19Z" fill="black"/>
<path d="M302.98 256.79V262.31H303.684V259.974C303.684 259.302 304.132 258.854 304.788 258.854C305.396 258.854 305.7 259.278 305.7 259.854V262.31H306.404V259.702C306.404 258.774 305.796 258.214 304.924 258.214C304.364 258.214 303.932 258.438 303.684 258.79V256.79H302.98Z" fill="black"/>
<path d="M307.897 260.494H310.969V260.214C310.969 259.006 310.249 258.214 309.145 258.214C308.001 258.214 307.201 259.07 307.201 260.302C307.201 261.566 307.977 262.398 309.145 262.398C310.033 262.398 310.665 261.966 310.889 261.198H310.201C310.009 261.606 309.657 261.806 309.145 261.806C308.433 261.806 307.961 261.318 307.897 260.494ZM307.913 259.934C308.033 259.23 308.505 258.798 309.145 258.798C309.801 258.798 310.209 259.206 310.265 259.934H307.913Z" fill="black"/>
<path d="M313.51 258.214C312.39 258.214 311.622 259.022 311.622 260.302C311.622 261.59 312.39 262.406 313.51 262.406C314.07 262.406 314.598 262.158 314.87 261.734V262.31H315.574V256.79H314.87V258.886C314.59 258.454 314.086 258.214 313.51 258.214ZM312.334 260.302C312.334 259.398 312.862 258.814 313.614 258.814C314.35 258.814 314.894 259.382 314.894 260.278V260.326C314.894 261.238 314.35 261.806 313.614 261.806C312.862 261.806 312.334 261.206 312.334 260.302Z" fill="black"/>
<path d="M317.884 261.814C317.42 261.814 317.132 261.566 317.132 261.174C317.132 260.71 317.508 260.462 318.212 260.462H319.156V260.638C319.084 261.358 318.58 261.814 317.884 261.814ZM316.436 261.19C316.436 261.95 316.948 262.39 317.828 262.39C318.404 262.39 318.9 262.134 319.18 261.694V262.31H319.852V259.742C319.852 258.726 319.316 258.198 318.268 258.198C317.316 258.198 316.676 258.662 316.596 259.422H317.292C317.364 259.014 317.716 258.782 318.268 258.782C318.876 258.782 319.156 259.086 319.156 259.734V259.918H318.276C317.084 259.918 316.436 260.366 316.436 261.19Z" fill="black"/>
<path d="M322.862 258.214C322.286 258.214 321.846 258.454 321.598 258.822V258.31H320.918V262.31H321.622V259.974C321.622 259.302 322.07 258.854 322.726 258.854C323.334 258.854 323.638 259.278 323.638 259.854V262.31H324.342V259.702C324.342 258.774 323.734 258.214 322.862 258.214Z" fill="black"/>
<path d="M130.377 130.875H125.929V131.859H127.617V136.395H128.697V131.859H130.377V130.875Z" fill="black"/>
<path d="M132.095 135.435V134.051H134.407V133.091H132.095V131.835H134.711V130.875H131.023V136.395H134.727V135.435H132.095Z" fill="black"/>
<path d="M139.226 130.875V133.083H136.634V130.875H135.562V136.395H136.634V134.083H139.226V136.395H140.306V130.875H139.226Z" fill="black"/>
<path d="M142.4 135.435V134.051H144.712V133.091H142.4V131.835H145.016V130.875H141.328V136.395H145.032V135.435H142.4Z" fill="black"/>
<path d="M150.387 136.395L149.123 134.267C149.795 133.995 150.179 133.427 150.179 132.659C150.179 131.571 149.355 130.875 148.051 130.875H145.867V136.395H146.939V134.467H148.059L149.131 136.395H150.387ZM146.939 133.491V131.859H148.027C148.731 131.859 149.083 132.131 149.083 132.675C149.083 133.219 148.731 133.491 148.027 133.491H146.939Z" fill="black"/>
<path d="M154.919 136.395H156.071L153.959 130.875H152.727L150.607 136.395H151.735L152.159 135.203H154.495L154.919 136.395ZM152.503 134.251L153.335 131.971L154.151 134.251H152.503Z" fill="black"/>
<path d="M160.36 130.875V134.715L157.968 130.875H156.648V136.395H157.72V132.307L160.264 136.395H161.432V130.875H160.36Z" fill="black"/>
<path d="M87.4334 225.818H88.1854L86.0334 220.298H85.2174L83.0574 225.818H83.7934L84.3214 224.418H86.9054L87.4334 225.818ZM84.5694 223.762L85.6174 220.978L86.6654 223.762H84.5694Z" fill="black"/>
<path d="M88.8257 220.298V225.818H89.5297V223.482C89.5297 222.81 89.9777 222.362 90.6337 222.362C91.2417 222.362 91.5457 222.786 91.5457 223.362V225.818H92.2497V223.21C92.2497 222.282 91.6417 221.722 90.7697 221.722C90.2097 221.722 89.7777 221.946 89.5297 222.298V220.298H88.8257Z" fill="black"/>
<path d="M96.0599 221.818L94.7399 225.162L93.4119 221.818H92.6439L94.3319 225.818H95.1239L96.8119 221.818H96.0599Z" fill="black"/>
<path d="M98.4559 225.322C97.9919 225.322 97.7039 225.074 97.7039 224.682C97.7039 224.218 98.0799 223.97 98.7839 223.97H99.7279V224.146C99.6559 224.866 99.1519 225.322 98.4559 225.322ZM97.0079 224.698C97.0079 225.458 97.5199 225.898 98.3999 225.898C98.9759 225.898 99.4719 225.642 99.7519 225.202V225.818H100.424V223.25C100.424 222.234 99.8879 221.706 98.8399 221.706C97.8879 221.706 97.2479 222.17 97.1679 222.93H97.8639C97.9359 222.522 98.2879 222.29 98.8399 222.29C99.4479 222.29 99.7279 222.594 99.7279 223.242V223.426H98.8479C97.6559 223.426 97.0079 223.874 97.0079 224.698Z" fill="black"/>
<path d="M101.986 225.202L104.242 222.418V221.818H101.21V222.434H103.458L101.186 225.218V225.818H104.258V225.202H101.986Z" fill="black"/>
</svg>
