<svg width="372" height="369" viewBox="0 0 372 369" fill="none" xmlns="http://www.w3.org/2000/svg">
<path d="M0 0H372V369H0V0Z" fill="#F3F0EF"/>
<path d="M33.4677 35.1986L33.5234 35.2551L33.7454 35.4242L33.801 35.4807L34.1871 35.5339L34.5726 35.53L34.5187 35.6448L34.4642 35.7024L34.8526 35.984L35.078 36.4957L35.5956 38.6603L35.8204 39.1148L36.1543 39.454L35.992 39.7412L36.0488 39.9119L36.4928 40.25L36.603 40.2489L36.7682 40.2473L36.8789 40.3033L36.9351 40.4169L36.9913 40.5305L37.047 40.5871L37.6574 41.0377L37.7687 41.1508L37.8255 41.3215L37.993 41.5482L38.1605 41.7749L38.3268 41.8875L38.4393 42.1147L38.7772 42.8536L38.8896 43.0809L39.0572 43.3076L39.1696 43.5349L39.3463 44.6751L39.4599 45.0166L39.8988 44.8409L41.6674 45.4511L41.7219 45.3935L41.8314 45.3353L41.9961 45.2765L42.1613 45.2748L42.2175 45.3885L42.163 45.4461L42.1647 45.6174L42.3305 45.6728L42.5514 45.7277L42.7734 45.8968L42.8858 46.124L42.7247 46.5254L42.8371 46.7527L43.0035 46.8652L43.1698 46.9777L43.3368 47.1473L43.3936 47.318L43.5089 47.8308L43.6208 48.001L43.7871 48.1135L44.1743 48.2809L44.2311 48.4516L44.1784 48.6806L44.125 48.8524L44.0717 49.0242L44.1291 49.2521L44.3517 49.4782L44.7395 49.7027L45.1267 49.8701L45.3475 49.925L45.6235 49.9793L45.9562 50.2043L46.0113 50.2038L46.122 50.2598L46.6176 50.2548L47.6112 50.4731L49.0981 50.4581L49.9827 50.7918L50.3699 50.9592L53.9575 51.7224L55.0641 52.2252L56.0583 52.5007L56.2235 52.499L57.3782 52.316L57.6519 52.142L58.5261 51.4479L58.8548 51.2733L59.0745 51.214L59.7353 51.2073L60.1197 51.0893L60.2849 51.0876L60.5057 51.1425L62.2761 51.924L62.6076 52.0349L62.9381 52.0315L63.3218 51.8564L63.5955 51.6823L63.8685 51.4511L64.0859 51.1634L64.3027 50.8186L64.788 49.7859L65.0054 49.4982L65.3329 49.2094L66.319 48.6856L66.5915 48.3973L66.8599 47.7094L67.0768 47.3646L67.1858 47.2493L67.4594 47.0752L67.5684 46.9599L67.6774 46.8446L68.1099 46.0409L68.3273 45.7532L68.6003 45.522L68.8745 45.405L69.1499 45.4022L69.6478 45.6256L69.9237 45.6799L70.1434 45.6206L71.1289 45.0397L71.2385 44.9815L71.4014 44.7514L71.5098 44.579L71.7765 43.7198L72.3719 42.686L72.4247 42.4571L72.5882 42.2841L73.4091 41.7619L75.1093 41.0595L75.3285 40.9431L75.8212 40.6527L76.3662 40.0761L77.1807 38.9259L77.7268 38.4636L78.4387 38.0567L79.6462 37.6448L80.0311 37.5838L80.2497 37.4103L81.121 36.4308L81.4497 36.2562L83.4752 35.0366L84.1831 34.2301L84.4555 33.9418L84.7837 33.7101L85.168 33.592L86.4346 33.5792L86.6543 33.5199L86.8178 33.347L87.0352 33.0593L87.2561 33.1142L87.5888 33.3392L88.6455 34.3564L91.5449 37.8674L92.7129 38.9976L93.2154 39.6777L93.609 40.4732L93.4444 40.5319L93.0055 40.7077L92.1307 41.3446L91.0867 41.5836L90.5389 41.8746L90.0484 42.3934L89.7243 43.0248L89.6773 43.8247L89.9039 44.4505L90.3509 45.0741L91.3519 46.0348L92.3472 46.4244L92.6255 46.7071L93.1326 47.844L93.2456 48.1284L93.2491 48.471L93.1969 48.757L93.0896 49.0436L92.9267 49.2736L92.2154 49.7376L89.0822 50.3402L89.0288 50.5121L89.0305 50.6834L88.9772 50.8552L88.1018 51.435L87.9395 51.7222L88.0038 52.6352L88.3405 53.2599L89.4512 54.1623L91.7206 55.2814L91.9426 55.4505L91.9994 55.6212L92.0579 55.9632L92.0075 56.4205L92.0666 56.8196L92.8995 57.4964L93.1789 57.8933L93.5122 58.1755L94.0079 58.1705L94.885 57.7619L95.2704 57.758L95.4959 58.2697L95.6118 58.8395L95.835 59.1228L96.1132 59.4055L96.3932 59.8594L96.672 60.1992L96.9514 60.5961L97.3977 61.1626L97.6208 61.4459L98.0695 62.2408L98.626 62.8062L98.7361 62.8051L99.5077 62.8544L99.892 62.7363L100.33 62.5035L100.768 62.2135L101.095 61.8676L101.478 61.6354L102.029 61.6298L103.133 61.8471L103.208 63.8449L103.049 64.5317L103.164 64.9873L103.231 66.1858L103.57 66.9818L103.818 69.7201L104.56 72.3393L104.454 72.74L104.459 73.2539L104.133 73.714L104.247 74.0555L104.863 75.0771L104.866 75.3054L104.812 75.4773L104.814 75.6486L104.988 76.5033L105.327 77.3564L106.221 78.6607L107.39 79.9051L108.666 80.8059L111.435 82.2626L112.706 82.7066L119.269 83.554L119.983 83.4326L120.587 83.1981L121.136 83.0783L121.746 83.4148L121.58 83.4164L121.415 83.361L121.304 83.3621L121.196 83.5345L122.634 84.091L124.842 84.5827L125.616 84.9174L126.172 85.4257L126.125 86.2256L126.293 86.5094L126.521 87.3066L126.69 87.6475L126.914 88.0449L127.312 89.24L127.816 90.0914L128.428 90.6563L129.649 91.6147L130.486 92.6911L130.763 92.8597L131.095 92.9705L132.98 94.2648L133.311 94.3186L133.533 94.4305L134.034 94.9965L134.312 95.2221L137.026 96.7364L139.467 98.539L140.906 99.2097L145.652 100.133L148.69 101.016L151.835 101.555L154.873 102.438L158.007 101.949L160.805 100.836L163.716 100.065L166.739 99.463L169.652 98.8055L172.561 97.8625L175.361 96.9207L180.965 95.5508L181.735 95.4288L188.394 94.9619L189.603 94.6642L190.421 93.9137L190.375 94.7707L189.442 95.1227L188.232 95.3062L187.464 95.5423L187.244 95.6587L187.024 95.6039L186.581 95.437L186.306 95.4969L185.813 95.6732L185.538 95.7331L184.545 95.6289L183.664 95.6378L183.777 95.865L183.998 95.9199L184.548 95.9144L184.219 96.0319L184.109 96.033L184.5 96.6001L185.219 96.9354L187.865 97.1371L188.142 97.3056L188.419 97.417L190.56 96.7673L190.779 96.5938L190.885 96.2501L190.862 93.9663L190.748 93.5678L190.471 93.3993L190.14 93.2884L190.191 92.9453L190.569 92.1991L190.177 91.575L189.894 90.7784L189.489 88.8982L188.979 87.4758L188.921 87.1338L188.737 85.2513L193.367 85.6043L193.697 85.601L194.026 85.4834L194.353 85.1375L194.681 84.9058L195.067 84.9019L195.453 84.9551L195.838 84.9513L196.442 84.7168L199.288 82.975L199.673 82.914L200.722 83.1318L201.107 83.128L201.161 83.0132L201.597 82.552L201.926 82.4345L202.144 82.2039L202.965 81.6246L203.347 81.2781L203.4 81.1063L203.452 80.7632L203.666 80.19L203.718 79.8469L203.713 79.333L203.711 79.1617L203.654 78.991L203.432 78.8219L203.376 78.7083L203.371 78.2515L203.64 77.5636L203.69 77.1063L203.797 76.7626L204.014 76.4178L204.504 75.8419L207.018 73.9893L207.78 73.068L207.888 72.8385L207.995 72.5519L208.214 72.4355L208.434 72.3761L208.599 72.3174L208.707 72.145L208.868 71.7437L209.032 71.5707L209.361 71.4532L210.351 71.2719L210.57 71.2126L210.732 70.8683L211.115 70.6361L211.883 70.3428L212.104 70.3406L212.431 70.0518L212.76 69.8772L214.016 68.8367L214.4 68.6615L215.501 68.5933L218.853 67.8171L219.348 67.8121L220.397 68.03L221.062 68.423L221.338 68.5344L222.219 68.5255L222.496 68.6369L222.939 68.8608L223.16 68.9157L223.435 68.9129L225.853 68.4317L226.515 68.5392L226.571 68.5958L227.124 68.8186L227.4 68.8729L228.83 68.6301L229.103 68.3989L229.264 68.0547L229.315 67.6545L229.256 67.2554L228.81 66.6889L228.917 66.4023L229.953 65.364L230.5 64.9588L231.103 64.7243L232.645 64.6516L232.921 64.706L233.143 64.875L233.365 65.0441L233.586 65.156L233.861 65.0962L235.231 64.4542L236.056 64.2746L236.221 64.33L236.888 64.8943L237.497 65.2308L237.774 65.3422L240.312 65.8305L240.976 66.1093L241.307 66.1631L241.636 65.9885L241.854 65.7578L242.4 65.3526L242.618 65.122L242.942 64.4906L242.997 64.433L243.16 64.26L243.434 64.086L243.599 64.0843L243.764 64.0826L244.151 64.1929L244.317 64.3055L244.374 64.4762L244.376 64.6475L244.433 64.8182L244.825 65.4995L245.164 66.2955L245.387 66.5787L245.944 67.2012L246.171 67.8841L246.726 68.2782L246.84 68.6768L246.789 69.077L246.471 70.2793L246.917 70.8459L249.35 71.8491L249.625 71.7892L249.9 71.7294L250.175 71.6695L250.451 71.7238L251.335 72.0004L252.161 71.9921L252.435 71.9322L252.711 71.9294L252.933 72.0985L253.155 72.2675L253.377 72.4366L253.487 72.4355L253.542 72.4349L253.817 72.3751L253.983 72.4305L254.094 72.5436L254.263 72.8845L254.374 72.9976L254.65 73.109L254.926 73.1062L255.201 73.0463L255.476 73.0435L256.083 73.2087L258.74 74.4952L259.844 74.7696L260.396 74.8211L260.672 74.8755L260.949 75.044L261.06 75.2141L261.062 75.3854L261.009 75.5573L261.011 75.7285L261.291 76.2396L261.348 76.4104L261.407 76.8095L261.41 77.0949L261.467 77.3228L261.745 77.5484L262.021 77.6598L263.345 77.8748L263.567 77.9868L264.011 78.3249L264.232 78.3798L265.772 78.1929L266.046 78.0189L266.262 77.6741L266.424 77.2728L266.641 76.9851L266.915 76.811L267.245 76.8077L267.522 76.9762L268.356 77.7672L269.075 78.0454L269.461 78.0986L269.846 78.0376L270.01 77.9218L270.119 77.8065L270.228 77.6912L270.448 77.689L270.834 77.7422L271 77.7405L271.164 77.6817L271.382 77.394L271.433 77.0509L271.542 76.8785L272.539 77.4395L273.864 77.7687L274.528 78.1046L274.75 78.2737L274.971 78.3285L275.467 78.3806L275.634 78.4932L276.19 79.0586L278.465 80.7486L278.851 80.8018L279.783 80.3356L280.17 80.4459L280.503 80.7852L280.839 81.2386L280.896 81.5235L280.847 82.0379L280.959 82.2652L281.016 82.4359L280.962 82.6078L280.855 82.8373L280.802 83.0662L280.862 83.5224L281.207 85.0606L281.431 85.3439L282.486 86.2469L282.82 86.5861L282.932 86.7563L282.933 86.8705L282.879 86.9281L282.879 86.9852L282.881 87.1565L282.828 87.3283L282.884 87.4991L283.16 87.5534L283.272 87.6665L283.383 87.7795L283.549 87.835L283.714 87.8333L284.262 87.5994L284.538 87.6537L284.817 87.9935L284.931 88.3349L284.99 88.734L285.103 89.0755L285.325 89.2446L285.49 89.1858L285.599 89.0705L285.816 88.7257L285.98 88.6099L286.145 88.6082L288.576 89.3831L289.687 90.3426L290.297 90.7361L291.677 91.0077L292.341 91.2865L292.843 91.9667L293.518 93.3874L294.302 94.6357L296.142 96.9012L296.534 97.5253L297.044 98.8906L297.38 99.5153L297.935 99.8523L300.633 99.768L303 99.687L306.634 99.5933L308.671 99.5156L310.433 99.4407L311.261 99.6037L311.978 99.7106L312.15 100.451L312.319 100.792L312.376 101.02L312.434 101.305L312.437 101.59L312.384 101.819L312.277 102.049L312.168 102.221L312.115 102.45L312.173 102.735L312.287 103.076L311.919 104.85L311.82 105.936L312.047 106.562L311.993 106.677L311.993 106.734L311.94 106.906L312.106 106.961L312.217 107.074L312.328 107.187L312.385 107.301L312.442 107.529L312.499 107.757L312.505 108.27L312.562 108.498L312.786 108.896L313.075 110.263L313.137 110.948L313.194 111.061L313.14 111.176L312.977 111.406L312.868 111.579L312.815 111.751L312.762 111.979L312.764 112.151L312.711 112.38L312.547 112.496L312.383 112.554L312.274 112.67L312.221 112.956L312.281 113.412L312.283 113.64L312.065 113.871L311.738 114.16L311.52 114.447L311.742 114.559L312.183 114.612L312.515 114.78L312.793 115.063L313.072 115.402L313.24 115.686L313.409 116.027L313.523 116.426L313.586 117.224L313.645 117.566L313.648 117.909L313.543 118.424L313.655 118.594L313.658 118.823L313.553 119.338L313.554 119.452L313.558 119.851L313.504 120.023L313.286 120.254L313.233 120.369L313.293 120.939L313.519 121.451L313.911 122.132L314.024 122.359L314.198 123.271L314.258 123.727L314.152 124.185L313.936 124.587L313.556 125.105L313.395 125.506L313.236 126.193L313.128 126.422L312.803 126.939L312.695 127.169L312.645 127.626L312.711 128.711L312.605 129.111L312.276 129.286L311.891 129.347L311.506 129.351L311.288 129.581L311.182 130.039L311.187 130.496L311.189 130.724L311.3 130.838L311.358 131.065L311.36 131.294L311.196 131.41L311.087 131.525L311.199 131.752L311.814 132.602L311.87 132.716L311.817 132.945L311.764 133.117L311.766 133.288L311.933 133.458L311.553 134.09L311.446 134.376L311.345 135.291L311.133 136.093L311.082 136.493L311.029 136.722L310.813 137.124L310.761 137.41L310.763 137.638L310.822 138.037L310.824 138.208L310.776 138.951L310.673 139.637L310.179 139.814L310.073 140.157L309.748 140.789L309.202 141.251L308.876 141.654L308.881 142.168L308.942 142.738L308.892 143.253L308.729 143.483L308.509 143.542L308.289 143.544L308.069 143.604L307.85 143.72L307.741 143.835L307.633 144.008L306.871 144.929L306.543 145.161L306.104 145.279L305.169 145.403L304.73 145.636L304.46 146.095L304.625 146.094L304.791 146.149L304.902 146.319L305.073 146.832L305.24 147.001L305.682 147.168L305.904 147.337L306.072 147.564L306.353 148.132L307.637 149.832L307.861 150.229L306.595 150.299L304.889 150.431L303.678 150.5L303.793 150.956L303.52 151.244L302.699 151.709L302.099 152.343L301.556 153.091L301.071 154.124L300.97 155.095L301.028 155.38L301.212 157.206L301.741 160.455L301.634 160.799L301.096 162.061L300.993 162.747L301.449 164.284L302.506 165.358L303.888 165.915L305.211 166.016L306.477 165.946L307.139 165.997L307.691 166.162L307.968 166.331L308.247 166.614L308.415 166.897L308.415 166.954L308.307 167.184L308.033 167.301L307.208 167.366L306.935 167.598L306.883 167.884L306.941 168.226L307 168.568L306.893 168.968L306.731 169.198L306.183 169.547L305.692 170.008L305.041 170.929L304.226 172.079L303.303 173.401L302.489 174.552L302.381 174.838L302.398 176.494L302.632 177.862L303.145 179.57L303.717 181.62L304.344 183.726L304.972 185.947L305.712 188.338L306.512 191.242L307.085 193.463L307.048 195.176L306.953 196.719L306.846 197.063L306.412 197.638L306.305 197.982L306.361 198.095L306.528 198.208L306.639 198.321L306.478 198.779L306.536 199.007L306.648 199.234L306.705 199.462L306.765 199.918L306.668 201.176L306.733 202.203L306.973 204.142L306.768 205.686L306.828 206.142L307.113 207.11L307.353 209.049L307.906 209.271L309.616 209.54L312.484 209.968L315.353 210.395L318.662 210.876L320.647 211.141L321.585 211.246L322.027 211.413L322.36 211.695L322.974 212.488L323.088 212.887L322.987 213.745L322.991 214.144L323.16 214.542L323.609 215.337L323.779 215.792L323.84 216.42L323.897 216.647L324.179 217.273L324.406 217.956L324.465 218.355L324.469 218.754L324.364 219.212L324.04 219.901L324.098 220.129L324.167 221.555L324.058 221.614L324.004 221.785L324.008 222.128L324.064 222.242L323.792 222.587L322.433 224.371L320.312 227.076L318.41 229.551L317.05 231.277L315.256 233.579L314.332 234.788L312.972 236.515L310.362 239.796L309.111 241.35L308.132 242.559L309.526 244.258L310.418 245.334L311.533 246.693L312.816 248.279L314.154 249.921L315.548 251.62L315.881 251.903L316.214 252.071L316.491 252.296L316.662 252.808L316.611 253.209L316.397 253.896L316.401 254.296L316.571 254.694L317.128 255.316L317.351 255.656L317.409 255.884L317.469 256.398L317.581 256.625L317.749 256.852L317.915 256.907L318.08 256.905L318.246 257.018L318.414 257.302L318.528 257.643L318.641 257.927L318.917 258.039L319.084 258.151L319.141 258.322L319.087 258.494L318.924 258.667L318.815 258.782L318.761 258.897L318.817 259.011L318.928 259.124L319.15 259.236L319.317 259.405L319.484 259.632L320.218 261.338L320.332 261.736L320.39 262.078L320.503 262.363L321.005 262.928L321.511 264.008L322.013 264.631L323.792 266.269L324.518 267.233L325.63 268.249L326.187 268.872L326.519 269.04L327.513 269.315L328.344 269.821L328.842 269.987L329.944 270.09L330.496 270.199L331.935 270.869L334.197 271.303L334.695 271.527L334.918 271.753L335.086 272.037L335.253 272.263L335.53 272.432L335.807 272.543L335.973 272.656L336.086 272.883L336.199 273.225L336.424 273.679L337.483 274.868L337.815 275.093L340.563 274.494L340.951 274.718L341.013 275.403L340.758 277.461L340.506 279.748L340.85 281.115L341.31 283.052L341.433 284.249L341.614 285.846L341.734 286.816L341.918 288.641L342.038 289.668L341.936 290.468L341.076 292.59L341.411 292.986L341.523 293.213L341.472 293.557L341.419 293.843L341.311 294.072L341.147 294.188L340.872 294.191L341.595 294.869L341.872 295.037L341.982 295.036L342.201 294.92L342.311 294.918L342.422 294.974L342.81 295.199L343.362 295.308L343.802 295.303L344.791 295.065L345.231 295.003L346.11 294.709L346.55 294.704L346.826 294.759L347.046 294.756L347.98 294.462L348.145 294.46L348.366 294.515L348.81 294.91L349.032 295.022L349.474 295.189L349.64 295.301L349.808 295.528L350.032 295.925L350.596 297.233L350.32 297.122L349.934 297.126L349.605 297.3L349.276 297.361L349.222 297.532L349.06 297.82L349.007 297.991L349.009 298.22L349.142 300.445L349.31 300.786L349.534 301.127L349.703 301.468L349.651 301.811L349.378 302.042L348.663 302.163L348.39 302.337L348.282 302.624L348.201 305.48L348.044 306.281L347.662 306.684L347.497 306.686L347.386 306.63L347.275 306.517L347.109 306.462L346.944 306.463L346.45 306.582L345.789 306.589L345.127 306.482L343.584 306.44L342.262 306.396L341.105 306.351L340.94 306.41L340.832 306.582L340.67 306.926L340.561 307.042L340.452 307.1L340.287 307.159L339.737 307.278L339.572 307.28L339.406 307.167L339.24 307.112L339.076 307.228L338.968 307.4L338.803 307.516L338.474 307.634L335.613 307.948L335.449 308.007L335.34 308.122L335.177 308.352L335.068 308.467L334.903 308.526L334.518 308.53L334.353 308.532L334.188 308.59L333.969 308.764L333.805 308.823L333.475 308.94L333.311 309.056L333.203 309.229L333.15 309.4L333.206 309.514L333.262 309.628L333.263 309.742L333.102 310.086L332.557 310.663L332.449 310.892L332.563 311.348L332.732 311.689L332.735 311.974L332.352 312.206L331.69 312.099L330.916 311.821L330.254 311.714L329.983 312.173L329.933 312.63L329.77 312.861L329.055 312.982L328.726 313.099L328.397 313.274L327.795 313.68L325.764 314.328L325.382 314.675L325.167 315.191L325.008 315.821L324.855 317.021L324.755 318.05L324.602 319.251L324.399 320.909L324.247 322.281L324.14 322.624L323.869 322.97L323.594 323.03L323.263 323.033L322.879 323.151L322.499 323.669L322.616 324.41L322.79 325.208L322.741 325.893L322.633 326.066L322.361 326.354L322.252 326.526L322.2 326.812L322.156 327.955L322.063 329.612L321.972 331.554L321.879 333.211L321.344 334.815L321.231 334.531L321.173 334.189L320.895 333.963L320.839 333.85L320.783 333.793L320.619 333.909L320.565 334.024L320.568 334.309L320.514 334.424L320.626 334.537L320.793 334.764L320.904 334.877L320.518 334.824L320.242 334.712L319.966 334.715L319.584 335.004L319.971 335.115L320.137 335.227L320.304 335.397L320.195 335.569L319.923 335.914L319.871 336.143L319.872 336.258L319.872 336.315L319.763 336.43L319.544 336.546L318.611 336.841L318.833 337.01L318.453 337.585L315.579 336.586L314.586 336.368L314.582 336.025L314.302 335.571L311.926 334.739L309.112 334.311L306.739 333.763L305.139 333.551L304.862 333.383L305.135 333.152L304.743 332.527L304.685 332.242L304.675 331.158L304.618 330.987L304.006 330.365L303.729 330.196L303.453 330.142L303.123 330.203L301.97 330.614L301.697 330.788L301.534 331.075L301.262 331.42L301.155 331.65L301.156 331.764L301.212 331.878L301.271 332.277L301.382 332.333L301.492 332.332L301.658 332.444L301.824 332.443L301.879 332.499L301.935 332.613L302.102 332.782L301.937 332.784L301.938 332.841L302.436 333.122L302.383 333.351L302.163 333.296L301.61 333.073L300.891 332.795L300.558 332.57L299.842 332.577L299.342 332.182L299.505 331.895L299.559 331.837L299.338 331.725L299.007 331.672L298.402 331.735L297.907 331.854L297.798 331.912L297.634 332.085L297.635 332.199L297.692 332.313L298.024 332.538L297.918 332.882L297.477 332.886L297.144 332.661L296.978 332.606L296.372 332.498L296.26 332.385L296.093 332.158L295.816 331.989L295.21 332.053L294.33 332.176L293.395 332.242L292.794 332.762L292.075 332.484L291.353 331.806L290.579 331.585L288.598 331.72L287.827 331.727L286.557 331.455L285.723 330.607L285.114 330.27L284.179 330.451L282.2 330.813L281.705 330.875L280.77 331.056L279.784 331.523L279.399 331.584L279.233 331.529L279.122 331.415L279.011 331.359L278.846 331.418L278.682 331.477L278.517 331.536L278.132 331.54L277.801 331.486L277.524 331.374L277.302 331.205L276.518 329.9L276.072 329.391L275.408 329.055L274.802 329.061L274.636 329.005L274.524 328.835L274.468 328.664L274.356 328.494L274.135 328.439L272.703 328.454L269.613 327.914L268.569 328.096L267.632 328.048L267.3 327.88L267.407 327.594L266.912 327.656L266.362 327.776L266.143 327.892L265.761 328.238L265.487 328.298L265.376 328.242L265.32 328.186L265.21 328.187L264.991 328.36L264.882 328.476L264.718 328.534L264.553 328.536L264.496 328.422L264.387 328.481L263.786 328.944L263.181 329.064L262.629 328.955L262.077 328.789L261.525 328.681L261.082 328.457L260.691 327.947L260.184 326.81L259.627 326.13L258.964 325.966L258.25 326.144L257.592 326.494L256.992 327.014L256.609 327.246L256.333 327.249L256.38 326.392L256.433 326.163L256.486 326.048L256.486 325.991L256.484 325.82L256.314 325.364L256.037 325.139L255.705 325.028L255.265 325.032L254.88 325.093L253.946 325.331L253.725 325.276L253.393 325.108L253.172 325.054L252.952 325.056L252.622 325.173L252.457 325.175L252.016 325.122L250.855 324.734L250.964 324.619L248.705 324.471L248.428 324.359L248.315 324.075L248.195 323.105L247.8 322.139L247.572 321.341L247.402 320.943L247.235 320.774L247.18 320.717L246.79 320.264L246.735 320.265L246.515 320.324L246.46 320.325L246.404 320.268L246.347 320.04L246.12 319.358L246.061 319.016L245.892 318.617L245.835 318.39L245.941 317.989L246.485 317.355L246.646 316.954L246.42 316.328L245.305 315.026L245.41 314.511L245.299 314.398L245.179 313.486L245.064 313.03L244.896 312.689L244.562 312.35L244.505 312.179L244.448 312.008L244.389 311.552L244.387 311.381L244.638 308.923L244.573 308.01L243.426 303.454L243.202 303.113L242.646 302.605L242.423 302.322L242.419 301.979L241.92 301.641L241.917 301.299L242.137 301.297L242.302 301.238L242.466 301.122L242.685 301.006L242.519 300.893L242.517 300.722L242.57 300.55L242.679 300.378L242.185 300.611L242.021 300.67L241.855 300.614L241.744 300.501L241.687 300.388L241.577 300.332L241.466 300.276L241.355 300.163L241.244 300.107L240.915 300.281L240.805 300.225L240.748 300.054L240.745 299.826L240.526 299.885L240.414 299.772L240.413 299.601L240.577 299.542L240.687 299.484L240.959 299.139L241.123 299.023L241.121 298.852L240.625 298.799L240.237 298.518L239.957 298.121L239.842 297.665L239.624 297.896L239.405 297.955L238.964 297.96L238.688 297.848L238.521 297.679L238.409 297.509L238.243 297.453L236.481 297.471L236.094 297.361L235.986 297.533L235.598 297.308L235.101 297.199L234.054 297.153L233.557 297.044L232.673 296.71L232.122 296.658L231.076 296.726L230.527 296.903L230.144 297.192L229.761 297.367L228.66 297.436L228.22 297.554L228.056 297.67L227.784 297.958L227.73 298.073L227.677 298.302L227.567 298.36L227.458 298.418L227.294 298.534L227.021 298.823L225.872 299.576L225.49 299.923L225.491 299.98L225.381 300.038L225.054 300.327L224.889 300.386L224.119 300.508L223.405 300.686L223.24 300.688L222.689 300.693L222.525 300.752L222.251 300.926L222.086 300.985L221.426 300.992L220.874 300.883L220.708 300.885L220.38 301.059L219.835 301.636L219.616 301.752L219.452 301.925L218.527 303.02L218.747 302.96L218.856 302.902L218.965 302.787L219.025 303.243L218.921 303.815L218.706 304.388L218.49 304.79L217.944 305.309L217.287 305.659L216.573 305.837L215.801 305.788L214.419 305.288L213.647 305.181L212.99 305.531L212.773 305.933L212.667 306.276L212.504 306.563L212.12 306.682L211.79 306.742L211.021 306.978L210.747 307.095L209.656 308.134L209.492 308.25L207.854 309.637L206.048 310.797L205.939 310.912L205.83 311.028L205.721 311.143L205.556 311.202L205.336 311.147L205.059 310.978L204.838 310.923L203.407 311.052L202.635 310.946L202.355 310.492L202.129 309.923L201.628 309.414L200.855 309.251L199.314 309.323L198.705 309.044L198.37 308.533L198.088 307.908L197.751 307.283L197.252 306.889L196.865 306.835L196.536 306.896L196.206 307.013L194.941 307.14L194.61 307.087L193.45 306.756L193.174 306.701L193.008 306.646L192.675 306.364L192.509 306.308L192.344 306.31L192.014 306.37L190.918 306.953L190.149 307.075L189.435 307.31L189.049 307.314L188.276 307.093L187.835 307.041L187.452 307.273L187.231 307.218L186.342 306.428L185.067 305.641L183.402 304.345L183.179 304.061L183.064 303.663L183 302.75L182.886 302.351L182.607 302.012L182.053 301.675L176.25 299.677L175.864 299.624L175.477 299.514L175.254 299.231L175.085 298.89L174.862 298.606L173.868 298.331L173.701 298.161L173.531 297.706L173.198 297.481L172.425 297.261L171.036 296.018L170.426 295.625L169.541 295.234L168.213 294.619L167.878 294.223L167.819 293.824L167.982 293.594L168.256 293.477L168.586 293.417L168.917 293.413L169.302 293.352L169.52 293.179L169.35 292.724L169.073 292.498L168.354 292.22L168.076 291.994L167.964 291.767L167.682 291.142L167.57 290.914L166.289 289.557L165.734 289.106L165.125 288.826L162.089 288.172L161.425 287.836L159.423 285.915L158.813 285.464L158.094 285.186L157.267 285.08L156.112 285.263L155.835 285.151L155.503 284.926L154.897 284.989L154.238 285.167L153.194 285.406L152.532 285.299L151.042 284.971L150.821 284.916L150.71 284.803L150.708 284.632L150.651 284.461L150.54 284.348L149.989 284.297L149.27 284.076L148.881 283.68L148.488 282.998L148.1 282.717L147.996 283.289L147.666 283.349L147.323 282.154L146.988 281.643L146.705 280.904L146.033 279.826L145.755 279.543L145.42 279.147L145.306 278.748L145.681 277.659L145.676 277.145L145.339 276.578L144.728 276.013L144.505 275.73L143.889 274.765L143.332 274.143L143.22 273.915L142.146 271.243L141.975 270.616L141.949 268.047L141.72 267.193L141.327 266.454L140.881 265.945L140.327 265.608L139.609 265.444L138.948 265.393L138.616 265.283L138.449 265.056L138.335 264.657L137.498 263.638L137.329 263.24L137.213 262.67L137.263 262.156L137.591 261.924L137.923 262.035L138.256 262.317L138.535 262.657L138.703 262.998L138.867 262.825L138.865 262.653L138.808 262.483L138.806 262.254L138.914 262.082L139.241 261.736L139.349 261.507L139.4 261.049L139.34 260.593L139.172 260.309L138.842 260.37L138.671 259.8L138.559 259.573L138.337 259.404L138.227 259.405L138.062 259.464L137.897 259.523L137.841 259.409L137.838 259.066L137.781 258.896L137.725 258.782L137.338 258.729L136.017 258.799L135.688 258.86L135.25 259.15L134.754 259.098L134.365 258.759L134.194 258.19L134.133 257.676L134.186 257.447L134.349 257.217L134.456 256.931L134.563 256.587L134.727 256.414L135.005 256.697L135.052 255.897L135.106 255.782L134.94 255.727L134.829 255.614L134.604 255.216L134.709 254.701L134.701 253.902L134.583 253.104L134.467 252.534L134.243 252.136L133.908 251.683L133.631 251.572L133.638 252.2L133.525 251.972L133.022 251.235L132.133 250.502L131.965 250.218L131.852 249.876L131.572 249.48L131.016 248.914L130.021 248.525L129.853 248.298L129.739 247.899L129.515 247.502L129.069 246.992L128.621 246.312L127.835 244.835L127.444 244.211L127.11 243.929L126.39 243.479L125.722 242.801L125.666 242.687L125.608 242.459L125.604 242.06L125.547 241.832L125.822 241.772L125.876 241.657L125.764 241.487L125.542 241.375L125.701 240.688L125.304 239.55L125.409 239.035L125.187 238.866L124.908 238.526L124.683 238.129L124.57 237.787L124.457 237.56L124.235 237.391L124.07 237.336L123.627 237.169L123.021 237.118L122.416 237.238L121.813 237.473L116.507 241.066L115.904 241.358L115.352 241.249L114.849 240.512L114.79 240.17L114.781 239.257L114.668 238.915L114.556 238.745L114.499 238.631L114.443 238.518L114.277 238.405L114.111 238.35L113.945 238.294L113.56 238.298L113.395 238.3L113.01 238.418L112.79 238.42L112.624 238.365L112.402 238.196L112.236 238.14L111.907 238.201L111.249 238.493L110.919 238.553L110.478 238.501L110.311 238.331L110.302 237.475L110.246 237.418L110.024 237.249L109.968 237.135L109.967 237.021L109.964 236.736L109.962 236.564L110.016 236.45L110.015 236.335L109.794 236.223L109.687 236.567L109.525 236.911L109.307 237.142L109.032 237.202L108.7 237.034L108.532 236.75L108.365 236.523L108.089 236.526L107.702 236.359L106.594 235.685L106.371 235.459L106.254 234.775L105.975 234.378L105.532 234.154L104.979 233.988L105.141 233.644L105.416 233.584L106.133 233.691L106.519 233.687L107.068 233.51L107.397 233.45L107.729 233.561L108.449 233.953L108.67 234.065L109.056 234.118L109.333 234.23L109.556 234.456L109.779 234.796L109.887 234.51L110.211 233.935L110.7 233.245L110.808 233.016L110.804 232.673L110.474 232.733L110.197 232.565L110.029 232.224L109.911 231.483L109.692 231.599L109.419 231.888L109.146 232.119L109.144 231.833L109.143 231.776L109.197 231.661L109.029 231.435L108.865 231.493L108.701 231.609L108.481 231.669L108.37 231.613L108.202 231.329L108.091 231.273L107.981 231.274L107.817 231.39L107.707 231.391L107.376 231.337L107.045 231.226L106.769 231.229L106.496 231.403L105.889 231.295L105.396 231.643L105.729 231.868L106.172 232.092L106.724 232.2L107.167 232.481L107.281 232.823L106.954 233.169L106.679 233.171L105.741 233.067L105.522 233.126L104.595 234.049L104.541 234.164L104.378 234.394L104.27 234.623L104.492 234.792L104.439 234.964L104.33 235.137L104.276 235.251L104.391 235.707L104.669 235.99L105.003 236.272L105.281 236.612L105.45 236.953L105.565 237.408L105.684 238.321L105.631 238.55L105.47 238.951L105.417 239.18L105.42 239.408L105.534 239.807L105.536 240.035L105.43 240.436L105.213 240.781L104.886 241.069L104.556 241.187L103.399 241.084L103.125 241.201L102.792 241.033L101.581 241.046L100.861 240.653L100.585 240.599L100.533 240.942L100.646 241.169L100.87 241.567L100.928 241.852L100.875 242.081L100.767 242.253L100.603 242.426L100.439 242.542L100.055 242.66L98.7873 242.559L98.7861 242.444L98.6771 242.56L98.6777 242.617L98.567 242.561L98.0146 242.395L97.7375 242.227L97.5155 242.057L97.4042 241.944L97.348 241.831L97.1787 241.433L97.1208 241.148L96.78 240.123L96.7243 240.067L96.6119 239.84L96.2774 239.443L96.0525 238.989L95.9963 238.875L96.0491 238.646L96.1575 238.474L96.321 238.301L96.4294 238.128L96.4822 237.899L96.4248 237.672L96.3123 237.444L96.2005 237.274L95.5333 236.653L94.9762 236.03L94.6401 235.463L94.4737 235.35L94.2528 235.295L94.0325 235.298L93.4279 235.418L93.2076 235.42L92.9868 235.365L92.8204 235.253L92.7086 235.083L92.6518 234.912L92.4773 234L92.3075 233.545L92.0832 233.147L91.8044 232.808L91.638 232.695L91.4722 232.64L89.652 232.373L89.6457 231.744L89.6011 221.866L89.5432 221.582L89.3768 221.469L83.8147 221.525L83.8196 216.557L83.839 213.017L86.3535 205.683L86.4591 205.225L86.3994 204.768L86.1757 204.428L85.5096 203.921L85.2308 203.581L85.174 203.41L85.0604 203.069L84.9486 202.899L84.8373 202.786L84.5045 202.561L84.3927 202.39L83.7754 201.255L83.7168 200.913L83.5482 200.572L82.9395 200.292L82.6613 200.01L82.2666 199.1L81.9872 198.703L81.9315 198.647L81.6 198.536L81.324 198.481L81.1571 198.312L81.0447 198.085L80.8226 197.915L80.5467 197.861L80.4354 197.748L80.4337 197.577L80.4859 197.291L80.5387 197.062L80.6471 196.889L80.7549 196.66L80.752 196.374L80.639 196.09L80.3057 195.808L80.1927 195.524L80.0269 195.468L79.9156 195.355L79.6356 194.901L79.5794 194.787L79.5232 194.674L79.0224 194.165L78.9661 194.051L78.8531 193.767L78.852 193.653L78.9065 193.595L79.0676 193.194L79.1766 193.079L79.2306 192.964L79.2282 192.735L79.1164 192.565L78.6724 192.227L78.393 191.83L78.2243 191.489L78.0011 191.206L77.6139 191.039L76.6743 190.706L76.454 190.708L75.6876 191.172L75.4134 191.289L74.8082 191.352L74.2564 191.244L73.7578 190.963L73.2031 190.569L68.0349 185.996L67.3103 185.147L66.202 184.473L65.4247 183.853L65.369 183.796L63.7622 182.842L63.2614 182.333L61.5455 181.494L59.7225 180.941L57.7422 181.189L56.7498 181.085L56.3557 180.233L56.5736 180.002L56.8467 179.771L57.1192 179.483L57.2258 179.139L57.1128 178.855L56.8902 178.628L56.5587 178.518L55.7865 178.411L55.5639 178.185L55.5616 177.957L55.8903 177.782L56.2753 177.721L56.5506 177.718L56.8254 177.658L57.1529 177.37L57.5889 176.908L57.8063 176.621L57.9135 176.334L57.9118 176.163L57.6904 176.051L57.6336 175.88L57.6318 175.709L57.738 175.308L57.7357 175.08L57.567 174.739L57.3444 174.513L56.7891 174.061L56.1184 173.097L55.562 172.532L55.449 172.248L55.4455 171.905L55.3858 171.449L55.2717 171.05L55.0479 170.71L54.4897 169.973L54.4341 169.917L54.3784 169.86L54.3228 169.804L54.2126 169.805L54.1025 169.806L53.9929 169.864L53.8857 170.151L53.3906 170.213L52.8938 170.104L52.6156 169.821L52.8875 169.476L53.7084 168.953L53.9252 168.609L53.8104 168.153L53.4221 167.871L53.1433 167.532L53.192 166.903L52.8076 167.021L51.9816 167.029L51.6523 167.147L51.1619 167.666L50.8882 167.84L50.6135 167.9L50.5016 167.729L50.4941 166.987L50.4373 166.817L50.3805 166.646L49.5487 166.083L49.2705 165.8L49.0467 165.46L48.8781 165.119L48.7639 164.721L48.7042 164.264L48.5906 163.923L48.368 163.697L48.0904 163.471L47.8672 163.188L46.3515 160.348L46.2958 160.292L46.2408 160.292L46.1857 160.293L45.6906 160.355L45.2495 160.302L44.8617 160.078L44.5261 159.567L44.9099 159.392L45.0739 159.276L45.2374 159.103L45.507 158.53L45.667 158.014L45.8276 157.556L46.2642 157.151L46.5366 156.863L47.1917 156.286L47.3546 156.056L47.3523 155.827L47.2405 155.657L47.1286 155.487L47.0712 155.259L47.1246 155.087L47.3408 154.685L47.4492 154.513L47.6591 153.483L47.709 152.968L47.5943 152.513L47.3149 152.116L46.9822 151.891L46.5967 151.895L46.2691 152.184L45.9364 151.959L45.7115 151.504L45.1429 149.74L45.3053 149.452L46.1841 149.215L46.2931 149.1L46.4021 148.985L46.5105 148.812L46.5638 148.64L46.5575 148.012L46.3836 147.158L46.4329 146.586L47.0961 146.808L47.7053 147.144L48.2572 147.253L49.4148 147.355L49.8015 147.466L49.9116 147.465L49.9655 147.35L50.0183 147.121L50.016 146.892L49.9598 146.779L49.7917 146.495L49.7331 146.153L49.7291 145.753L49.67 145.354L49.6132 145.184L49.5019 145.07L49.3906 144.957L49.3332 144.73L49.2764 144.559L49.1646 144.389L48.9982 144.276L48.8324 144.221L48.5542 143.938L48.6609 143.594L49.1508 143.018L49.2035 142.789L49.1438 142.333L49.196 142.047L49.3589 141.817L49.5781 141.701L50.0731 141.639L50.5653 141.291L50.6703 140.776L50.6094 140.206L50.7155 139.805L51.101 139.801L51.4332 139.969L51.6546 140.081L52.0969 140.248L52.3688 139.902L52.4738 139.387L52.6349 138.986L52.686 138.586L52.515 138.017L52.4571 137.732L52.4542 137.446L52.5069 137.217L52.6704 137.044L52.78 136.986L53.0003 136.984L53.1098 136.926L53.1638 136.811L53.1058 136.526L53.1047 136.412L53.3209 136.01L53.4305 135.952L53.707 136.063L54.0948 136.288L54.2606 136.343L54.4808 136.341L54.9788 136.564L55.2536 136.504L55.5266 136.273L55.9643 135.983L56.1295 135.982L56.4605 136.035L56.8993 135.86L57.119 135.8L57.2831 135.684L57.3904 135.398L57.0559 135.002L57.2699 134.371L57.649 133.739L57.6983 133.168L57.4207 132.942L56.7598 132.949L56.5378 132.78L56.4793 132.438L56.6416 132.151L56.859 131.863L56.9668 131.634L57.0208 131.519L56.9043 130.892L56.5136 130.382L55.5688 129.535L54.4489 127.719L54.2223 127.093L54.22 126.865L54.2733 126.693L54.3823 126.578L54.4913 126.462L54.5452 126.348L54.5441 126.233L54.5429 126.119L54.4867 126.006L54.3175 125.608L54.1477 125.152L54.2027 125.152L54.2578 125.151L54.7552 125.318L54.8073 125.032L54.6335 124.177L54.63 123.834L54.6811 123.434L54.7878 123.09L55.0057 122.86L55.335 122.742L56.5471 122.787L56.877 122.727L57.6984 122.262L58.3599 122.312L58.6897 122.252L58.9622 121.963L59.179 121.619L59.6712 121.271L59.9442 121.04L60.1611 120.695L60.2127 120.352L60.0996 120.067L59.822 119.842L59.4359 119.789L59.1072 119.963L58.8342 120.194L58.5049 120.312L57.7907 120.49L57.4052 120.494L57.0731 120.326L56.9067 120.214L56.7954 120.101L56.7386 119.93L56.6239 119.474L56.5682 119.418L56.4581 119.419L55.9601 119.196L55.6848 119.198L55.4106 119.315L55.0819 119.49L54.7526 119.608L53.6506 119.562L53.1017 119.738L52.9364 119.74L52.7707 119.685L52.6054 119.686L52.2234 120.033L51.8947 120.207L51.5643 120.211L51.2872 120.042L51.1214 119.987L50.4629 120.222L50.1313 120.111L49.9081 119.828L49.4561 118.69L48.6735 117.556L48.1733 117.104L47.7316 116.995L47.5096 116.826L46.8975 116.204L46.2343 115.982L45.8471 115.815L45.4065 115.819L44.8587 116.11L44.5845 116.227L44.2564 116.459L43.872 116.577L43.486 116.524L43.2072 116.184L42.875 116.016L42.9805 115.558L43.1962 115.099L43.413 114.754L43.4635 114.297L43.2386 113.842L42.681 113.163L42.5663 112.707L42.611 111.679L42.5519 111.28L42.3293 111.054L41.996 110.771L41.8829 110.487L42.2656 110.198L41.9311 109.801L41.8169 109.403L41.7526 108.49L41.6924 107.976L41.5214 107.407L41.242 107.01L40.8009 106.958L39.8687 107.367L39.3737 107.429L38.9308 107.205L38.7082 106.979L38.6514 106.808L38.594 106.58L38.5361 106.295L38.4236 106.068L38.2567 105.898L38.1448 105.728L38.1419 105.443L37.9194 105.217L37.6417 104.991L37.5861 104.934L37.3623 104.594L37.4139 104.251L37.4684 104.193L37.6876 104.077L37.7421 104.019L37.7374 103.563L37.8952 102.819L38.2175 102.016L38.2135 101.616L38.0437 101.161L37.6501 100.366L37.3713 100.026L37.0942 99.8574L36.8739 99.8597L36.6531 99.8048L36.4867 99.6923L36.3198 99.5226L36.0978 99.3536L35.8769 99.2987L35.3268 99.3614L34.8851 99.2516L34.5523 99.0266L34.4382 98.628L34.5976 98.0554L35.1959 97.307L35.4122 96.9052L35.5171 96.3902L35.4569 95.8769L35.2882 95.536L35.174 95.1374L35.2784 94.5654L35.4413 94.3353L35.4941 94.1064L35.3822 93.9362L34.9944 93.7117L34.7718 93.4856L34.6611 93.4296L34.4959 93.4312L34.1666 93.5488L34.0008 93.4933L33.9446 93.3797L33.831 93.0382L33.7742 92.8675L33.6629 92.7544L33.5522 92.6984L33.4415 92.6425L33.3296 92.4723L33.2154 92.0737L33.2131 91.8454L33.4271 91.2151L33.5332 90.8143L33.419 90.4157L33.2498 90.0178L33.1901 89.5615L33.2423 89.2755L33.4608 89.102L33.68 88.9856L33.8974 88.6979L33.9449 87.9551L33.5548 87.5022L32.5572 86.8842L32.3891 86.6004L32.2761 86.316L32.1086 86.0893L31.504 86.2096L31.337 86.04L31.1104 85.4141L30.8328 85.1886L30.2264 85.1376L30.005 85.0256L29.8902 84.5699L30.1036 83.8826L30.0445 83.4835L29.9298 83.0278L29.9791 82.4563L30.0834 81.8843L30.244 81.4258L30.1849 81.0267L29.7966 80.7451L29.4621 80.3488L29.5103 79.6631L29.6738 79.4901L30.2743 78.9702L30.4367 78.683L30.3793 78.4552L29.7655 77.662L29.2675 77.4386L28.7696 77.2152L28.3296 77.2768L28.1105 77.3932L27.8363 77.5101L27.616 77.5124L27.5035 77.2851L27.5024 77.1709L27.554 76.8278L27.5528 76.7136L27.4416 76.6005L27.3314 76.6016L27.2218 76.6598L27.0555 76.5473L26.888 76.3206L26.7749 76.0362L26.717 75.7513L26.6046 75.524L26.4382 75.4115L25.8295 75.1322L25.6087 75.0773L24.5084 75.2026L23.9015 75.0945L23.621 74.5834L23.6743 74.4116L23.6737 74.3545L23.8366 74.1244L23.9995 73.8944L23.9967 73.6089L23.8831 73.2675L23.9352 72.9814L24.0425 72.6948L24.2048 72.4077L24.3666 72.0635L24.7481 71.6599L24.9098 71.3157L25.0704 70.8572L25.2327 70.5701L25.4513 70.3966L25.78 70.222L25.889 70.1067L25.7197 69.7087L25.718 69.5374L25.8821 69.4215L26.1563 69.3046L26.2647 69.1322L26.3714 68.7885L26.4207 68.217L26.4711 67.7596L26.4057 66.7325L26.8956 66.1565L27.4962 65.6366L27.8759 65.0617L27.8724 64.7192L27.7588 64.3777L27.5357 64.0944L27.3131 63.8683L27.0366 63.7569L26.8169 63.8162L26.2696 64.1643L25.4418 64.0014L25.1653 63.89L24.999 63.7774L24.9422 63.6067L24.9938 63.2636L24.9915 63.0352L24.9307 62.4648L24.9278 62.1793L25.1388 61.2636L25.1348 60.8639L24.9581 59.7237L25.0039 58.8096L24.9993 58.3528L24.8852 57.9543L24.7733 57.7841L24.6631 57.7852L24.3316 57.6744L24.1101 57.5624L24.2185 57.39L24.382 57.217L24.4354 57.0452L24.3212 56.6466L24.2082 56.3623L24.1502 56.0774L24.2563 55.6766L24.6802 54.0164L24.6188 53.3889L23.733 52.941L23.4548 52.6583L23.2311 52.318L23.0607 51.8058L22.9488 51.6356L22.892 51.4649L22.8903 51.2936L22.888 51.0652L22.7767 50.9521L22.6103 50.8396L22.4985 50.6694L22.4399 50.3274L22.3831 50.1567L22.2713 49.9865L22.4875 49.5846L22.7606 49.3535L22.9229 49.0663L22.7485 48.1545L22.8551 47.8108L23.1787 47.1223L23.0077 46.553L22.3422 46.1029L21.5672 45.711L21.1232 45.3729L21.1215 45.2016L21.2276 44.8008L21.2253 44.5725L21.0004 44.1179L20.9436 43.9472L20.9413 43.7188L20.9946 43.547L20.9929 43.3757L20.768 42.9211L20.6532 42.4655L20.6509 42.2371L20.2046 41.6706L20.0916 41.3862L20.2539 41.0991L20.6371 40.8668L20.9113 40.7499L21.1867 40.7471L21.5727 40.8003L21.9577 40.7393L22.8365 40.502L23.2225 40.5552L24.3854 41.1716L24.8265 41.2243L25.2108 41.1062L26.0879 40.6976L26.4161 40.4659L26.6868 40.0064L26.6828 39.6067L26.6225 39.0934L26.7275 38.5784L26.8898 38.2913L26.8869 38.0058L26.829 37.7209L26.7704 37.3789L26.8215 36.9787L26.8737 36.6926L27.4123 35.4881L27.5195 35.2015L27.5184 35.0873L27.5706 34.8013L27.453 34.0601L27.5051 33.7741L29.3631 32.3278L29.7475 32.2098L30.0246 32.3783L30.4726 33.1161L30.6958 33.3993L31.6922 33.9032L32.0255 34.1853L33.4677 35.1986ZM201.348 314.385L201.458 314.441L201.569 314.497L201.625 314.61L201.682 314.724L201.359 315.469L201.249 315.471L201.028 315.416L200.806 315.304L200.695 315.191L200.692 314.905L200.635 314.734L200.634 314.563L200.686 314.334L200.795 314.162L200.959 314.103L201.125 314.158L201.348 314.385ZM192.997 310.986L191.73 310.941L191.62 310.943L191.066 310.663L190.73 310.095L190.892 309.808L191.166 309.634L191.495 309.516L191.825 309.513L192.102 309.624L192.708 309.675L192.93 309.787L192.986 309.901L192.987 309.958L192.988 310.129L192.989 310.243L193.1 310.299L193.156 310.356L193.211 310.413L193.213 310.527L193.214 310.641L193.16 310.756L193.106 310.87L192.997 310.986ZM180.709 304.943L180.38 305.117L180.05 305.121L179.057 304.959L178.78 304.848L178.725 304.849L178.503 304.68L177.948 304.228L177.781 304.059L177.836 304.001L177.945 303.943L178.055 303.885L178.22 303.883L179.656 304.325L180.924 304.427L181.311 304.594L181.534 304.82L181.7 304.933L181.481 304.992L180.819 304.942L180.709 304.943ZM231.697 303.743L231.747 303.229L231.964 302.884L232.402 302.651L233.063 302.587L233.179 303.214L232.688 303.676L232.03 303.911L231.697 303.743ZM229.847 300.45L230.178 300.504L230.62 300.671L230.898 300.896L231.008 300.952L231.122 301.294L230.848 301.468L230.575 301.642L229.531 301.938L229.149 302.284L228.772 303.145L228.556 303.489L227.847 304.239L227.74 304.525L227.576 304.698L226.919 305.048L226.755 305.221L226.591 305.336L225.774 306.201L225.281 306.492L224.894 306.324L224.505 305.928L224.06 305.59L222.91 306.23L222.583 306.519L222.254 306.693L221.869 306.697L221.096 306.591L220.767 306.651L220.383 306.827L219.454 307.521L218.521 307.93L217.975 308.393L217.702 308.567L216.656 308.691L215.888 308.928L215.56 309.159L215.395 309.218L215.34 309.219L215.23 309.22L215.064 309.164L214.899 309.166L214.846 309.338L214.792 309.453L214.628 309.568L214.408 309.628L214.243 309.629L214.187 309.573L214.131 309.516L214.019 309.289L213.959 308.776L214.065 308.432L214.118 308.203L214.007 308.09L213.835 307.464L213.998 307.234L214.827 307.511L214.991 307.395L215.102 307.451L215.157 307.45L216.033 306.928L218.283 306.163L218.613 306.102L218.832 305.986L218.887 305.985L219.653 305.464L219.981 305.175L221.077 304.707L221.243 304.705L221.574 304.759L221.739 304.757L221.848 304.699L222.012 304.526L222.177 304.467L222.12 304.354L222.064 304.24L222.337 303.952L222.388 303.609L222.325 302.753L222.211 302.411L221.933 302.129L221.655 301.903L221.543 301.733L221.981 301.443L224.358 302.333L225.017 302.155L226.822 300.937L229.075 300.401L229.847 300.45ZM234.232 298.35L234.398 298.463L234.619 298.517L234.785 298.63L234.786 298.687L234.843 298.915L234.79 299.144L234.627 299.317L234.517 299.375L234.408 299.433L234.133 299.493L233.58 299.27L233.63 298.756L233.956 298.296L234.232 298.35ZM129.106 256.185L129.439 256.353L129.605 256.466L129.553 256.809L129.612 257.151L129.505 257.437L129.339 257.439L129.118 257.327L128.948 256.872L128.834 256.474L128.722 256.246L128.941 256.13L129.106 256.185ZM201.754 321.918L201.866 322.088L201.925 322.43L201.761 322.546L201.54 322.491L201.263 322.38L201.206 322.152L201.425 322.035L201.754 321.918ZM224.514 306.899L224.627 307.126L224.686 307.583L224.47 307.984L224.142 308.216L223.865 308.048L223.915 307.59L224.131 307.131L224.404 306.9L224.514 306.899ZM186.184 307.115L186.405 307.226L186.518 307.511L186.3 307.741L186.024 307.687L185.747 307.519L185.579 307.292L185.687 307.062L186.018 307.059L186.184 307.115ZM210.298 322.631L210.3 322.802L210.357 323.03L210.248 323.145L210.083 323.147L209.974 323.205L209.807 323.036L209.752 323.093L209.751 322.979L209.695 322.866L209.638 322.695L209.857 322.578L210.132 322.519L210.298 322.631Z" fill="white"/>
<path d="M127.258 151.184L127.898 150.536L127.306 149.944C127.61 149.472 127.77 148.888 127.77 148.24C127.77 146.608 126.738 145.384 125.074 145.384C123.41 145.384 122.378 146.608 122.378 148.24C122.378 149.872 123.41 151.096 125.074 151.096C125.706 151.096 126.25 150.92 126.682 150.608L127.258 151.184ZM123.49 148.24C123.49 147.184 124.058 146.384 125.074 146.384C126.09 146.384 126.658 147.184 126.658 148.24C126.658 148.568 126.602 148.872 126.498 149.136L125.682 148.32L125.034 148.976L125.922 149.856C125.69 150.008 125.402 150.096 125.074 150.096C124.058 150.096 123.49 149.288 123.49 148.24Z" fill="black"/>
<path d="M131.129 151.096C132.793 151.096 133.825 149.872 133.825 148.24C133.825 146.608 132.793 145.384 131.129 145.384C129.465 145.384 128.433 146.608 128.433 148.24C128.433 149.872 129.465 151.096 131.129 151.096ZM129.545 148.24C129.545 147.184 130.113 146.384 131.129 146.384C132.145 146.384 132.713 147.184 132.713 148.24C132.713 149.28 132.145 150.096 131.129 150.096C130.113 150.096 129.545 149.288 129.545 148.24Z" fill="black"/>
<path d="M140.409 145.48H138.873L137.521 149.464L136.169 145.48H134.633V151H135.689V146.928L137.097 151H137.937L139.345 146.928V151H140.409V145.48Z" fill="black"/>
<path d="M141.755 180.48V186H142.827V180.48H141.755Z" fill="black"/>
<path d="M146.847 184.456C146.847 184.904 146.527 185.176 145.903 185.176C145.215 185.176 144.799 184.896 144.679 184.296H143.599C143.687 185.416 144.527 186.104 145.895 186.104C147.151 186.104 147.919 185.464 147.919 184.4C147.919 183.528 147.423 183.016 146.399 182.808L145.623 182.656C145.071 182.544 144.839 182.368 144.839 181.984C144.839 181.552 145.199 181.304 145.799 181.304C146.367 181.304 146.711 181.552 146.783 182.104H147.855C147.799 181.032 147.023 180.376 145.799 180.376C144.583 180.376 143.759 181.048 143.759 182.032C143.759 182.88 144.295 183.392 145.319 183.6L146.079 183.744C146.615 183.856 146.847 184.056 146.847 184.456Z" fill="black"/>
<path d="M152.38 181.44V180.48H148.692V186H149.764V183.8H152.076V182.824H149.764V181.44H152.38Z" fill="black"/>
<path d="M156.415 186H157.567L155.455 180.48H154.223L152.103 186H153.231L153.655 184.808H155.991L156.415 186ZM153.999 183.856L154.831 181.576L155.647 183.856H153.999Z" fill="black"/>
<path d="M161.809 180.48V182.688H159.217V180.48H158.145V186H159.217V183.688H161.809V186H162.889V180.48H161.809Z" fill="black"/>
<path d="M167.774 186H168.926L166.814 180.48H165.582L163.462 186H164.59L165.014 184.808H167.35L167.774 186ZM165.358 183.856L166.19 181.576L167.006 183.856H165.358Z" fill="black"/>
<path d="M173.216 180.48V184.32L170.824 180.48H169.504V186H170.576V181.912L173.12 186H174.288V180.48H173.216Z" fill="black"/>
<path d="M47.2559 65.48H42.8079V66.464H44.4959V71H45.5759V66.464H47.2559V65.48Z" fill="black"/>
<path d="M51.0635 71H52.2155L50.1035 65.48H48.8715L46.7515 71H47.8795L48.3035 69.808H50.6395L51.0635 71ZM48.6475 68.856L49.4795 66.576L50.2955 68.856H48.6475Z" fill="black"/>
<path d="M56.2172 68.04C56.6732 67.824 56.9212 67.392 56.9212 66.92C56.9212 66.064 56.2572 65.48 55.2012 65.48H52.7932V71H55.2652C56.4172 71 57.1692 70.376 57.1692 69.376C57.1692 68.752 56.8252 68.224 56.2172 68.04ZM53.8732 70.096V68.568H55.0572C55.7372 68.568 56.0652 68.816 56.0652 69.328C56.0652 69.84 55.7132 70.112 55.0332 70.104L53.8732 70.096ZM53.8732 67.728V66.384L54.9852 66.376C55.5612 66.368 55.8492 66.608 55.8492 67.04C55.8492 67.472 55.5692 67.728 54.9932 67.728H53.8732Z" fill="black"/>
<path d="M62.407 71L61.143 68.872C61.815 68.6 62.199 68.032 62.199 67.264C62.199 66.176 61.375 65.48 60.071 65.48H57.887V71H58.959V69.072H60.079L61.151 71H62.407ZM58.959 68.096V66.464H60.047C60.751 66.464 61.103 66.736 61.103 67.28C61.103 67.824 60.751 68.096 60.047 68.096H58.959Z" fill="black"/>
<path d="M63.1145 65.48V71H64.1865V65.48H63.1145Z" fill="black"/>
<path d="M69.0942 65.48H65.0782V66.464H67.8142L65.0222 70.096V71H69.0782V70.016H66.3342L69.0942 66.384V65.48Z" fill="black"/>
<path d="M55.3534 162H56.6014L54.5774 158.728L56.4734 156.48H55.2494L53.0254 159.12V156.48H51.9534V162H53.0254V160.56L53.8814 159.552L55.3534 162Z" fill="black"/>
<path d="M58.2989 161.04V159.656H60.6109V158.696H58.2989V157.44H60.9149V156.48H57.2269V162H60.9309V161.04H58.2989Z" fill="black"/>
<path d="M66.2859 162L65.0219 159.872C65.6939 159.6 66.0779 159.032 66.0779 158.264C66.0779 157.176 65.2539 156.48 63.9499 156.48H61.7659V162H62.8379V160.072H63.9579L65.0299 162H66.2859ZM62.8379 159.096V157.464H63.9259C64.6299 157.464 64.9819 157.736 64.9819 158.28C64.9819 158.824 64.6299 159.096 63.9259 159.096H62.8379Z" fill="black"/>
<path d="M72.7294 156.48H71.1934L69.8414 160.464L68.4894 156.48H66.9534V162H68.0094V157.928L69.4174 162H70.2574L71.6654 157.928V162H72.7294V156.48Z" fill="black"/>
<path d="M77.6143 162H78.7663L76.6543 156.48H75.4223L73.3023 162H74.4303L74.8543 160.808H77.1903L77.6143 162ZM75.1983 159.856L76.0303 157.576L76.8463 159.856H75.1983Z" fill="black"/>
<path d="M83.0561 156.48V160.32L80.6641 156.48H79.3441V162H80.4161V157.912L82.9601 162H84.1281V156.48H83.0561Z" fill="black"/>
<path d="M88.1007 160.456C88.1007 160.904 87.7807 161.176 87.1567 161.176C86.4687 161.176 86.0527 160.896 85.9327 160.296H84.8527C84.9407 161.416 85.7807 162.104 87.1487 162.104C88.4047 162.104 89.1727 161.464 89.1727 160.4C89.1727 159.528 88.6767 159.016 87.6527 158.808L86.8767 158.656C86.3247 158.544 86.0927 158.368 86.0927 157.984C86.0927 157.552 86.4527 157.304 87.0527 157.304C87.6207 157.304 87.9647 157.552 88.0367 158.104H89.1087C89.0527 157.032 88.2767 156.376 87.0527 156.376C85.8367 156.376 85.0127 157.048 85.0127 158.032C85.0127 158.88 85.5487 159.392 86.5727 159.6L87.3327 159.744C87.8687 159.856 88.1007 160.056 88.1007 160.456Z" fill="black"/>
<path d="M93.6096 156.48V158.688H91.0176V156.48H89.9456V162H91.0176V159.688H93.6096V162H94.6896V156.48H93.6096Z" fill="black"/>
<path d="M99.5752 162H100.727L98.6152 156.48H97.3832L95.2632 162H96.3912L96.8152 160.808H99.1512L99.5752 162ZM97.1592 159.856L97.9912 157.576L98.8072 159.856H97.1592Z" fill="black"/>
<path d="M104.969 156.48V158.688H102.377V156.48H101.305V162H102.377V159.688H104.969V162H106.049V156.48H104.969Z" fill="black"/>
<path d="M270.89 109.48H269.354L268.002 113.464L266.65 109.48H265.114V115H266.17V110.928L267.578 115H268.418L269.826 110.928V115H270.89V109.48Z" fill="black"/>
<path d="M275.774 115H276.926L274.814 109.48H273.582L271.462 115H272.59L273.014 113.808H275.35L275.774 115ZM273.358 112.856L274.19 110.576L275.006 112.856H273.358Z" fill="black"/>
<path d="M280.284 113.456C280.284 113.904 279.964 114.176 279.34 114.176C278.652 114.176 278.236 113.896 278.116 113.296H277.036C277.124 114.416 277.964 115.104 279.332 115.104C280.588 115.104 281.356 114.464 281.356 113.4C281.356 112.528 280.86 112.016 279.836 111.808L279.06 111.656C278.508 111.544 278.276 111.368 278.276 110.984C278.276 110.552 278.636 110.304 279.236 110.304C279.804 110.304 280.148 110.552 280.22 111.104H281.292C281.236 110.032 280.46 109.376 279.236 109.376C278.02 109.376 277.196 110.048 277.196 111.032C277.196 111.88 277.732 112.392 278.756 112.6L279.516 112.744C280.052 112.856 280.284 113.056 280.284 113.456Z" fill="black"/>
<path d="M285.793 109.48V111.688H283.201V109.48H282.129V115H283.201V112.688H285.793V115H286.873V109.48H285.793Z" fill="black"/>
<path d="M291.559 109.48V111.688H288.967V109.48H287.895V115H288.967V112.688H291.559V115H292.639V109.48H291.559Z" fill="black"/>
<path d="M297.524 115H298.676L296.564 109.48H295.332L293.212 115H294.34L294.764 113.808H297.1L297.524 115ZM295.108 112.856L295.94 110.576L296.756 112.856H295.108Z" fill="black"/>
<path d="M301.222 109.48H299.254V115H301.222C302.894 115 304.102 113.936 304.102 112.232C304.102 110.528 302.894 109.48 301.222 109.48ZM300.334 114V110.48H301.206C302.286 110.48 302.99 111.128 302.99 112.232C302.99 113.336 302.286 114 301.206 114H300.334Z" fill="black"/>
<path d="M111.385 119H112.633L110.609 115.728L112.505 113.48H111.281L109.057 116.12V113.48H107.985V119H109.057V117.56L109.913 116.552L111.385 119Z" fill="black"/>
<path d="M117.122 119H118.274L116.162 113.48H114.93L112.81 119H113.938L114.362 117.808H116.698L117.122 119ZM114.706 116.856L115.538 114.576L116.354 116.856H114.706Z" fill="black"/>
<path d="M123.372 119L122.108 116.872C122.78 116.6 123.164 116.032 123.164 115.264C123.164 114.176 122.34 113.48 121.036 113.48H118.852V119H119.924V117.072H121.044L122.116 119H123.372ZM119.924 116.096V114.464H121.012C121.716 114.464 122.068 114.736 122.068 115.28C122.068 115.824 121.716 116.096 121.012 116.096H119.924Z" fill="black"/>
<path d="M127.903 119H129.055L126.943 113.48H125.711L123.591 119H124.719L125.143 117.808H127.479L127.903 119ZM125.487 116.856L126.319 114.576L127.135 116.856H125.487Z" fill="black"/>
<path d="M131.124 119.096C132.372 119.096 133.036 118.376 133.036 117.12V113.48H131.956V117.152C131.956 117.768 131.708 118.12 131.132 118.12C130.62 118.12 130.276 117.832 130.212 117.248H129.132C129.18 118.368 129.932 119.104 131.124 119.096Z" fill="black"/>
<path d="M154.409 248.456C154.409 248.904 154.089 249.176 153.465 249.176C152.777 249.176 152.361 248.896 152.241 248.296H151.161C151.249 249.416 152.089 250.104 153.457 250.104C154.713 250.104 155.481 249.464 155.481 248.4C155.481 247.528 154.985 247.016 153.961 246.808L153.185 246.656C152.633 246.544 152.401 246.368 152.401 245.984C152.401 245.552 152.761 245.304 153.361 245.304C153.929 245.304 154.273 245.552 154.345 246.104H155.417C155.361 245.032 154.585 244.376 153.361 244.376C152.145 244.376 151.321 245.048 151.321 246.032C151.321 246.88 151.857 247.392 152.881 247.6L153.641 247.744C154.177 247.856 154.409 248.056 154.409 248.456Z" fill="black"/>
<path d="M159.918 244.48V246.688H157.326V244.48H156.254V250H157.326V247.688H159.918V250H160.998V244.48H159.918Z" fill="black"/>
<path d="M162.06 244.48V250H163.132V244.48H162.06Z" fill="black"/>
<path d="M168.72 250L167.456 247.872C168.128 247.6 168.512 247.032 168.512 246.264C168.512 245.176 167.688 244.48 166.384 244.48H164.2V250H165.272V248.072H166.392L167.464 250H168.72ZM165.272 247.096V245.464H166.36C167.064 245.464 167.416 245.736 167.416 246.28C167.416 246.824 167.064 247.096 166.36 247.096H165.272Z" fill="black"/>
<path d="M173.251 250H174.403L172.291 244.48H171.059L168.939 250H170.067L170.491 248.808H172.827L173.251 250ZM170.835 247.856L171.667 245.576L172.483 247.856H170.835Z" fill="black"/>
<path d="M178.821 244.48H174.805V245.464H177.541L174.749 249.096V250H178.805V249.016H176.061L178.821 245.384V244.48Z" fill="black"/>
<path d="M278.766 249.48H274.75V250.464H277.486L274.694 254.096V255H278.75V254.016H276.006L278.766 250.384V249.48Z" fill="black"/>
<path d="M283.376 255H284.528L282.416 249.48H281.184L279.064 255H280.192L280.616 253.808H282.952L283.376 255ZM280.96 252.856L281.792 250.576L282.608 252.856H280.96Z" fill="black"/>
<path d="M288.77 249.48V251.688H286.178V249.48H285.106V255H286.178V252.688H288.77V255H289.85V249.48H288.77Z" fill="black"/>
<path d="M291.943 254.04V252.656H294.255V251.696H291.943V250.44H294.559V249.48H290.871V255H294.575V254.04H291.943Z" fill="black"/>
<path d="M297.378 249.48H295.41V255H297.378C299.05 255 300.258 253.936 300.258 252.232C300.258 250.528 299.05 249.48 297.378 249.48ZM296.49 254V250.48H297.362C298.442 250.48 299.146 251.128 299.146 252.232C299.146 253.336 298.442 254 297.362 254H296.49Z" fill="black"/>
<path d="M304.564 255H305.716L303.604 249.48H302.372L300.252 255H301.38L301.804 253.808H304.14L304.564 255ZM302.148 252.856L302.98 250.576L303.796 252.856H302.148Z" fill="black"/>
<path d="M310.005 249.48V253.32L307.613 249.48H306.293V255H307.365V250.912L309.909 255H311.077V249.48H310.005Z" fill="black"/>
<path d="M243.314 231H244.562L242.538 227.728L244.434 225.48H243.21L240.986 228.12V225.48H239.914V231H240.986V229.56L241.842 228.552L243.314 231Z" fill="black"/>
<path d="M246.26 230.04V228.656H248.572V227.696H246.26V226.44H248.876V225.48H245.188V231H248.892V230.04H246.26Z" fill="black"/>
<path d="M254.247 231L252.983 228.872C253.655 228.6 254.039 228.032 254.039 227.264C254.039 226.176 253.215 225.48 251.911 225.48H249.727V231H250.799V229.072H251.919L252.991 231H254.247ZM250.799 228.096V226.464H251.887C252.591 226.464 252.943 226.736 252.943 227.28C252.943 227.824 252.591 228.096 251.887 228.096H250.799Z" fill="black"/>
<path d="M260.69 225.48H259.154L257.802 229.464L256.45 225.48H254.914V231H255.97V226.928L257.378 231H258.218L259.626 226.928V231H260.69V225.48Z" fill="black"/>
<path d="M265.575 231H266.727L264.615 225.48H263.383L261.263 231H262.391L262.815 229.808H265.151L265.575 231ZM263.159 228.856L263.991 226.576L264.807 228.856H263.159Z" fill="black"/>
<path d="M271.017 225.48V229.32L268.625 225.48H267.305V231H268.377V226.912L270.921 231H272.089V225.48H271.017Z" fill="black"/>
<path d="M203.938 203.48L202.554 205.936L201.162 203.48H199.994L201.994 206.856V209H203.074V206.864L205.074 203.48H203.938Z" fill="black"/>
<path d="M208.603 209H209.755L207.643 203.48H206.411L204.291 209H205.419L205.843 207.808H208.179L208.603 209ZM206.187 206.856L207.019 204.576L207.835 206.856H206.187Z" fill="black"/>
<path d="M214.172 203.48H210.156V204.464H212.892L210.1 208.096V209H214.156V208.016H211.412L214.172 204.384V203.48Z" fill="black"/>
<path d="M216.886 203.48H214.918V209H216.886C218.558 209 219.766 207.936 219.766 206.232C219.766 204.528 218.558 203.48 216.886 203.48ZM215.998 208V204.48H216.87C217.95 204.48 218.654 205.128 218.654 206.232C218.654 207.336 217.95 208 216.87 208H215.998Z" fill="black"/>
<path d="M32.1238 90.096C33.5478 90.096 34.4118 89.248 34.4118 87.792V84.48H33.3398V87.792C33.3398 88.584 32.9158 89.08 32.1238 89.08C31.3318 89.08 30.8998 88.584 30.8998 87.792V84.48H29.8278V87.792C29.8278 89.248 30.6918 90.096 32.1238 90.096Z" fill="black"/>
<path d="M39.9343 90L38.6703 87.872C39.3423 87.6 39.7263 87.032 39.7263 86.264C39.7263 85.176 38.9023 84.48 37.5983 84.48H35.4143V90H36.4863V88.072H37.6063L38.6783 90H39.9343ZM36.4863 87.096V85.464H37.5743C38.2783 85.464 38.6303 85.736 38.6303 86.28C38.6303 86.824 38.2783 87.096 37.5743 87.096H36.4863Z" fill="black"/>
<path d="M46.3778 84.48H44.8418L43.4898 88.464L42.1378 84.48H40.6018V90H41.6578V85.928L43.0658 90H43.9058L45.3138 85.928V90H46.3778V84.48Z" fill="black"/>
<path d="M47.4387 84.48V90H48.5107V84.48H47.4387Z" fill="black"/>
<path d="M53.4424 90H54.5944L52.4824 84.48H51.2504L49.1304 90H50.2584L50.6824 88.808H53.0184L53.4424 90ZM51.0264 87.856L51.8584 85.576L52.6744 87.856H51.0264Z" fill="black"/>
<path d="M135.51 122.48H131.062V123.464H132.75V128H133.83V123.464H135.51V122.48Z" fill="black"/>
<path d="M137.229 127.04V125.656H139.541V124.696H137.229V123.44H139.845V122.48H136.157V128H139.861V127.04H137.229Z" fill="black"/>
<path d="M144.36 122.48V124.688H141.768V122.48H140.696V128H141.768V125.688H144.36V128H145.44V122.48H144.36Z" fill="black"/>
<path d="M147.533 127.04V125.656H149.845V124.696H147.533V123.44H150.149V122.48H146.461V128H150.165V127.04H147.533Z" fill="black"/>
<path d="M155.52 128L154.256 125.872C154.928 125.6 155.312 125.032 155.312 124.264C155.312 123.176 154.488 122.48 153.184 122.48H151V128H152.072V126.072H153.192L154.264 128H155.52ZM152.072 125.096V123.464H153.16C153.864 123.464 154.216 123.736 154.216 124.28C154.216 124.824 153.864 125.096 153.16 125.096H152.072Z" fill="black"/>
<path d="M160.052 128H161.204L159.092 122.48H157.86L155.74 128H156.868L157.292 126.808H159.628L160.052 128ZM157.636 125.856L158.468 123.576L159.284 125.856H157.636Z" fill="black"/>
<path d="M165.494 122.48V126.32L163.102 122.48H161.782V128H162.854V123.912L165.398 128H166.566V122.48H165.494Z" fill="black"/>
<path d="M98.169 220H99.321L97.209 214.48H95.977L93.857 220H94.985L95.409 218.808H97.745L98.169 220ZM95.753 217.856L96.585 215.576L97.401 217.856H95.753Z" fill="black"/>
<path d="M103.563 214.48V216.688H100.971V214.48H99.8987V220H100.971V217.688H103.563V220H104.643V214.48H103.563Z" fill="black"/>
<path d="M109.504 214.48L107.952 218.904L106.4 214.48H105.248L107.328 220H108.552L110.624 214.48H109.504Z" fill="black"/>
<path d="M114.403 220H115.555L113.443 214.48H112.211L110.091 220H111.219L111.643 218.808H113.979L114.403 220ZM111.987 217.856L112.819 215.576L113.635 217.856H111.987Z" fill="black"/>
<path d="M119.973 214.48H115.957V215.464H118.693L115.901 219.096V220H119.957V219.016H117.213L119.973 215.384V214.48Z" fill="black"/>
</svg>
